<svg width="32" height="32" viewBox="0 0 32 32" fill="none" xmlns="http://www.w3.org/2000/svg">
<rect width="32" height="32" rx="16" fill="#EFF3FB"/>
<path d="M20.243 20.243C20.5034 19.9827 20.5034 19.5606 20.243 19.3002L16.9437 16.0009L20.244 12.7006C20.5043 12.4402 20.5043 12.0181 20.244 11.7578C19.9836 11.4974 19.5615 11.4974 19.3011 11.7578L16.0009 15.058L12.7006 11.7578C12.4402 11.4974 12.0181 11.4974 11.7578 11.7578C11.4974 12.0181 11.4974 12.4402 11.7578 12.7006L15.058 16.0009L11.7587 19.3002C11.4983 19.5606 11.4983 19.9827 11.7587 20.243C12.019 20.5034 12.4411 20.5034 12.7015 20.243L16.0009 16.9437L19.3002 20.243C19.5606 20.5034 19.9827 20.5034 20.243 20.243Z" fill="#9AA5B5"/>
</svg>
