<svg width="22" height="20" viewBox="0 0 22 20" fill="none" xmlns="http://www.w3.org/2000/svg">
<path d="M20.4263 7.42969L17.7027 1.98247C17.5333 1.64369 17.1871 1.42969 16.8083 1.42969H13.5692M20.4263 7.42969L10.9978 18.5725M20.4263 7.42969H1.14062M10.9978 18.5725L1.14062 7.42969M10.9978 18.5725L6.83211 7.74183C6.75419 7.53925 6.7443 7.31682 6.80393 7.10813L8.42634 1.42969M10.9978 18.5725L15.1634 7.74183C15.2413 7.53925 15.2512 7.31682 15.1916 7.10813L13.5692 1.42969M1.14062 7.42969L4.28128 1.93355C4.45932 1.62197 4.79066 1.42969 5.14952 1.42969H8.42634M8.42634 1.42969H13.5692" stroke="white" stroke-width="1.4"/>
</svg>
