<svg width="19" height="18" viewBox="0 0 19 18" fill="none" xmlns="http://www.w3.org/2000/svg">
<path fill-rule="evenodd" clip-rule="evenodd" d="M9.57814 0C12.0224 0 12.3289 0.0103604 13.2888 0.0541599C14.2468 0.0978523 14.901 0.250007 15.4735 0.472506C16.0653 0.702472 16.5672 1.01021 17.0676 1.51055C17.5679 2.01092 17.8757 2.51283 18.1057 3.10466C18.3281 3.67712 18.4803 4.33137 18.524 5.28931C18.5678 6.24926 18.5781 6.55575 18.5781 9.00002C18.5781 11.4443 18.5678 11.7507 18.524 12.7107C18.4803 13.6686 18.3281 14.3229 18.1057 14.8953C17.8757 15.4872 17.5679 15.9891 17.0676 16.4895C16.5672 16.9898 16.0653 17.2975 15.4735 17.5275C14.901 17.75 14.2468 17.9021 13.2888 17.9458C12.3289 17.9896 12.0224 18 9.57814 18C7.13387 18 6.82738 17.9896 5.86744 17.9458C4.90949 17.9021 4.25525 17.75 3.68278 17.5275C3.09095 17.2975 2.58905 16.9898 2.08867 16.4895C1.58834 15.9891 1.2806 15.4872 1.05063 14.8953C0.828132 14.3229 0.675977 13.6686 0.632285 12.7107C0.588485 11.7507 0.578125 11.4443 0.578125 9.00002C0.578125 6.55575 0.588485 6.24926 0.632285 5.28931C0.675977 4.33137 0.828132 3.67712 1.05063 3.10466C1.2806 2.51283 1.58834 2.01092 2.08867 1.51055C2.58905 1.01021 3.09095 0.702472 3.68278 0.472506C4.25525 0.250007 4.90949 0.0978523 5.86744 0.0541599C6.82738 0.0103604 7.13387 0 9.57814 0ZM9.57814 1.62162C7.17503 1.62162 6.89037 1.6308 5.94135 1.6741C5.06386 1.71411 4.58732 1.86073 4.27018 1.98398C3.85009 2.14725 3.55028 2.34227 3.23536 2.65723C2.9204 2.97215 2.72537 3.27196 2.56211 3.69206C2.43885 4.00919 2.29224 4.48574 2.25222 5.36323C2.20893 6.31224 2.19974 6.5969 2.19974 9.00002C2.19974 11.4031 2.20893 11.6878 2.25222 12.6368C2.29224 13.5143 2.43885 13.9908 2.56211 14.3079C2.72537 14.728 2.92044 15.0278 3.23536 15.3428C3.55028 15.6577 3.85009 15.8528 4.27018 16.016C4.58732 16.1393 5.06386 16.2859 5.94135 16.3259C6.89026 16.3692 7.17485 16.3784 9.57814 16.3784C11.9814 16.3784 12.266 16.3692 13.2149 16.3259C14.0924 16.2859 14.5689 16.1393 14.8861 16.016C15.3062 15.8528 15.606 15.6577 15.9209 15.3428C16.2359 15.0278 16.4309 14.728 16.5941 14.3079C16.7174 13.9908 16.864 13.5143 16.904 12.6368C16.9473 11.6878 16.9565 11.4031 16.9565 9.00002C16.9565 6.5969 16.9473 6.31224 16.904 5.36323C16.864 4.48574 16.7174 4.00919 16.5941 3.69206C16.4309 3.27196 16.2359 2.97215 15.9209 2.65723C15.606 2.34227 15.3062 2.14725 14.8861 1.98398C14.5689 1.86073 14.0924 1.71411 13.2149 1.6741C12.2659 1.6308 11.9812 1.62162 9.57814 1.62162ZM9.57814 4.37838C12.1306 4.37838 14.1997 6.44753 14.1997 9.00002C14.1997 11.5525 12.1306 13.6216 9.57814 13.6216C7.02566 13.6216 4.95651 11.5525 4.95651 9.00002C4.95651 6.44753 7.02566 4.37838 9.57814 4.37838ZM9.57814 12C11.235 12 12.5781 10.6569 12.5781 9.00002C12.5781 7.34314 11.235 6 9.57814 6C7.92126 6 6.57812 7.34314 6.57812 9.00002C6.57812 10.6569 7.92126 12 9.57814 12ZM15.4624 4.19579C15.4624 4.79226 14.9788 5.27577 14.3823 5.27577C13.7859 5.27577 13.3024 4.79226 13.3024 4.19579C13.3024 3.59931 13.7859 3.11577 14.3823 3.11577C14.9788 3.11577 15.4624 3.59931 15.4624 4.19579Z" fill="#252C48"/>
</svg>
