<svg width="97" height="37" viewBox="0 0 97 37" fill="none" xmlns="http://www.w3.org/2000/svg">
<path d="M0.76 -1.90735e-06H5.96V23.6H20.6V28H0.76V-1.90735e-06ZM33.07 28.28C30.91 28.28 28.9633 27.8133 27.23 26.88C25.4967 25.9467 24.1367 24.6533 23.15 23C22.19 21.32 21.71 19.4267 21.71 17.32C21.71 15.2133 22.19 13.3333 23.15 11.68C24.1367 10.0267 25.4967 8.73333 27.23 7.8C28.9633 6.86667 30.91 6.4 33.07 6.4C35.2567 6.4 37.2167 6.86667 38.95 7.8C40.6833 8.73333 42.03 10.0267 42.99 11.68C43.9767 13.3333 44.47 15.2133 44.47 17.32C44.47 19.4267 43.9767 21.32 42.99 23C42.03 24.6533 40.6833 25.9467 38.95 26.88C37.2167 27.8133 35.2567 28.28 33.07 28.28ZM33.07 24C34.91 24 36.43 23.3867 37.63 22.16C38.83 20.9333 39.43 19.32 39.43 17.32C39.43 15.32 38.83 13.7067 37.63 12.48C36.43 11.2533 34.91 10.64 33.07 10.64C31.23 10.64 29.71 11.2533 28.51 12.48C27.3367 13.7067 26.75 15.32 26.75 17.32C26.75 19.32 27.3367 20.9333 28.51 22.16C29.71 23.3867 31.23 24 33.07 24ZM69.8913 6.64V24.76C69.8913 32.28 66.0513 36.04 58.3713 36.04C56.3179 36.04 54.3713 35.7733 52.5313 35.24C50.6913 34.7333 49.1713 33.9867 47.9713 33L50.2113 29.24C51.1446 30.0133 52.3179 30.6267 53.7313 31.08C55.1713 31.56 56.6246 31.8 58.0913 31.8C60.4379 31.8 62.1579 31.2667 63.2513 30.2C64.3446 29.1333 64.8913 27.5067 64.8913 25.32V24.2C64.0379 25.1333 62.9979 25.84 61.7713 26.32C60.5446 26.8 59.1979 27.04 57.7313 27.04C55.7046 27.04 53.8646 26.6133 52.2113 25.76C50.5846 24.88 49.2913 23.6533 48.3313 22.08C47.3979 20.5067 46.9313 18.7067 46.9313 16.68C46.9313 14.6533 47.3979 12.8667 48.3313 11.32C49.2913 9.74667 50.5846 8.53333 52.2113 7.68C53.8646 6.82667 55.7046 6.4 57.7313 6.4C59.2779 6.4 60.6779 6.65333 61.9313 7.16C63.2113 7.66667 64.2779 8.44 65.1313 9.48V6.64H69.8913ZM58.4913 22.8C60.3846 22.8 61.9313 22.24 63.1313 21.12C64.3579 19.9733 64.9713 18.4933 64.9713 16.68C64.9713 14.8933 64.3579 13.44 63.1313 12.32C61.9313 11.2 60.3846 10.64 58.4913 10.64C56.5713 10.64 54.9979 11.2 53.7713 12.32C52.5713 13.44 51.9713 14.8933 51.9713 16.68C51.9713 18.4933 52.5713 19.9733 53.7713 21.12C54.9979 22.24 56.5713 22.8 58.4913 22.8ZM85.5047 28.28C83.3447 28.28 81.398 27.8133 79.6647 26.88C77.9314 25.9467 76.5714 24.6533 75.5847 23C74.6247 21.32 74.1447 19.4267 74.1447 17.32C74.1447 15.2133 74.6247 13.3333 75.5847 11.68C76.5714 10.0267 77.9314 8.73333 79.6647 7.8C81.398 6.86667 83.3447 6.4 85.5047 6.4C87.6914 6.4 89.6514 6.86667 91.3847 7.8C93.118 8.73333 94.4647 10.0267 95.4247 11.68C96.4114 13.3333 96.9047 15.2133 96.9047 17.32C96.9047 19.4267 96.4114 21.32 95.4247 23C94.4647 24.6533 93.118 25.9467 91.3847 26.88C89.6514 27.8133 87.6914 28.28 85.5047 28.28ZM85.5047 24C87.3447 24 88.8647 23.3867 90.0647 22.16C91.2647 20.9333 91.8647 19.32 91.8647 17.32C91.8647 15.32 91.2647 13.7067 90.0647 12.48C88.8647 11.2533 87.3447 10.64 85.5047 10.64C83.6647 10.64 82.1447 11.2533 80.9447 12.48C79.7714 13.7067 79.1847 15.32 79.1847 17.32C79.1847 19.32 79.7714 20.9333 80.9447 22.16C82.1447 23.3867 83.6647 24 85.5047 24Z" fill="#7266FC"/>
</svg>
