<svg width="19" height="18" viewBox="0 0 19 18" fill="none" xmlns="http://www.w3.org/2000/svg">
<path fill-rule="evenodd" clip-rule="evenodd" d="M16.5246 4.48272C16.7577 10.874 12.8847 18 6.02796 18C3.9426 18 2.00142 17.2473 0.367188 15.9581C2.32606 16.2422 4.28183 15.5739 5.83424 14.0762C4.21858 14.0397 2.85458 12.726 2.38488 10.9208C2.96338 11.0569 3.5326 11.0171 4.05228 10.8435C2.27608 10.4038 1.05051 8.43537 1.09032 6.33034C1.58833 6.67048 2.15799 6.8751 2.76347 6.89796C1.11862 5.54612 0.652902 2.87401 1.62062 0.831565C3.44149 3.58095 6.16241 5.38993 9.23185 5.57986C8.69359 2.73687 10.4459 0 12.8294 0C13.8917 0 14.8515 0.551293 15.5246 1.43456C16.3659 1.23102 17.1562 0.852789 17.8696 0.331973C17.5941 1.3932 17.0085 2.28408 16.246 2.84571C16.993 2.73633 17.7046 2.49197 18.3672 2.13061C17.8723 3.04218 17.246 3.84218 16.5246 4.48272Z" fill="#252C48"/>
</svg>
