<svg width="742" height="644" viewBox="0 0 742 644" fill="none" xmlns="http://www.w3.org/2000/svg">
<rect x="112.234" y="83" width="547.942" height="425" rx="10" fill="#F1F0FF"/>
<rect x="413.469" y="182" width="206.98" height="189" rx="5" fill="white"/>
<g filter="url(#filter0_d_2269_265941)">
<rect x="251.758" y="411.391" width="161.858" height="198.607" rx="6" fill="white"/>
</g>
<rect x="265.25" y="468.133" width="134.882" height="80.3887" rx="2" fill="#7266FC" fill-opacity="0.1"/>
<rect x="265.25" y="562.711" width="134.882" height="28.3725" rx="2" fill="#7266FC"/>
<rect x="288.383" y="572.172" width="88.6366" height="9.45749" rx="2" fill="white" fill-opacity="0.11"/>
<ellipse cx="278.738" cy="442.129" rx="13.4882" ry="16.5506" fill="#7266FC" fill-opacity="0.1"/>
<rect x="298.008" y="430.305" width="61.6602" height="7.09312" rx="3.54656" fill="#7266FC" fill-opacity="0.1"/>
<rect x="298.008" y="444.492" width="38.5376" height="7.09312" rx="3.54656" fill="#7266FC" fill-opacity="0.1"/>
<ellipse cx="386.653" cy="435.036" rx="1.92688" ry="2.36437" fill="#7266FC" fill-opacity="0.1"/>
<ellipse cx="392.427" cy="435.036" rx="1.92688" ry="2.36437" fill="#7266FC" fill-opacity="0.1"/>
<ellipse cx="398.216" cy="435.036" rx="1.92688" ry="2.36437" fill="#7266FC" fill-opacity="0.1"/>
<rect x="590.422" y="333.367" width="112.328" height="9.45749" rx="4.72875" fill="#7266FC" fill-opacity="0.1"/>
<rect x="590.422" y="333.367" width="19.8225" height="9.45749" rx="4.72875" fill="#7266FC"/>
<g filter="url(#filter1_d_2269_265941)">
<rect x="548.539" y="212.789" width="162.467" height="212.794" rx="3" fill="white"/>
</g>
<rect x="561.18" y="226.977" width="7.22076" height="9.45749" rx="3.61038" fill="#7266FC" fill-opacity="0.05"/>
<rect x="572.016" y="226.977" width="7.22076" height="9.45749" rx="3.61038" fill="#7266FC" fill-opacity="0.05"/>
<rect x="582.836" y="226.977" width="7.22076" height="9.45749" rx="3.61038" fill="#7266FC" fill-opacity="0.05"/>
<rect x="561.18" y="255.352" width="12.6363" height="9.45749" rx="4.72875" fill="#7266FC" fill-opacity="0.05"/>
<rect x="561.18" y="281.359" width="12.6363" height="9.45749" rx="4.72875" fill="#7266FC" fill-opacity="0.05"/>
<rect x="561.18" y="307.367" width="12.6363" height="9.45749" rx="4.72875" fill="#7266FC" fill-opacity="0.05"/>
<rect x="561.18" y="333.375" width="12.6363" height="9.45749" rx="4.72875" fill="#7266FC" fill-opacity="0.05"/>
<rect x="561.18" y="359.383" width="12.6363" height="9.45749" rx="4.72875" fill="#7266FC" fill-opacity="0.05"/>
<rect x="579.234" y="255.352" width="122.753" height="9.45749" rx="4.72875" fill="#7266FC" fill-opacity="0.1"/>
<rect x="579.234" y="281.359" width="122.753" height="9.45749" rx="4.72875" fill="#7266FC" fill-opacity="0.1"/>
<rect x="579.234" y="307.367" width="122.753" height="9.45749" rx="4.72875" fill="#7266FC" fill-opacity="0.1"/>
<rect x="579.234" y="359.383" width="122.753" height="9.45749" rx="4.72875" fill="#7266FC" fill-opacity="0.1"/>
<rect x="561.18" y="387.75" width="50" height="4" rx="2" fill="#7266FC" fill-opacity="0.05"/>
<rect x="561.18" y="393.75" width="39" height="4" rx="2" fill="#7266FC" fill-opacity="0.05"/>
<rect x="579.234" y="255.352" width="63.1817" height="9.45749" rx="4.72875" fill="#7266FC"/>
<rect x="579.234" y="281.359" width="36.1038" height="9.45749" rx="4.72875" fill="#7266FC"/>
<rect x="579.234" y="307.367" width="90.2595" height="9.45749" rx="4.72875" fill="#7266FC"/>
<rect x="579.234" y="359.383" width="46.935" height="9.45749" rx="4.72875" fill="#7266FC"/>
<path d="M692.955 387.75L694.576 394.285L699.822 394.285L695.578 398.324L697.199 404.859L692.955 400.82L688.711 404.859L690.332 398.324L686.088 394.285L691.334 394.285L692.955 387.75Z" fill="#7266FC"/>
<path d="M528.336 440.492L529.234 443.256H532.14L529.789 444.964L530.687 447.728L528.336 446.02L525.985 447.728L526.883 444.964L524.532 443.256H527.438L528.336 440.492Z" fill="#7266FC"/>
<rect x="537.336" y="439.492" width="50" height="4" rx="2" fill="#7266FC" fill-opacity="0.1"/>
<rect x="537.336" y="445.492" width="39" height="4" rx="2" fill="#7266FC" fill-opacity="0.1"/>
<path d="M217.781 440.492L218.679 443.256H221.585L219.234 444.964L220.132 447.728L217.781 446.02L215.43 447.728L216.328 444.964L213.977 443.256H216.883L217.781 440.492Z" fill="#7266FC"/>
<rect x="226.781" y="439.492" width="50" height="4" rx="2" fill="#7266FC" fill-opacity="0.1"/>
<rect x="226.781" y="445.492" width="39" height="4" rx="2" fill="#7266FC" fill-opacity="0.1"/>
<ellipse cx="235.269" cy="295.536" rx="1.65188" ry="2.36437" fill="#C7C2FE"/>
<ellipse cx="240.222" cy="295.536" rx="1.65188" ry="2.36437" fill="#C7C2FE"/>
<ellipse cx="245.175" cy="295.536" rx="1.65188" ry="2.36437" fill="#C7C2FE"/>
<rect x="398.789" y="132.398" width="33.0376" height="9.45749" rx="4.72875" fill="#7266FC" fill-opacity="0.1"/>
<rect x="445.039" y="132.398" width="33.0376" height="9.45749" rx="4.72875" fill="#7266FC" fill-opacity="0.1"/>
<rect x="491.297" y="132.398" width="33.0376" height="9.45749" rx="4.72875" fill="#7266FC" fill-opacity="0.1"/>
<rect x="537.555" y="132.398" width="33.0376" height="9.45749" rx="4.72875" fill="#7266FC" fill-opacity="0.1"/>
<rect x="583.805" y="132.398" width="33.0376" height="9.45749" rx="4.72875" fill="#7266FC" fill-opacity="0.1"/>
<path d="M528.464 286.077H511.945C514.588 286.077 516.075 283.713 516.901 282.531C517.727 280.166 519.379 277.566 522.683 276.62C525.986 275.674 527.913 282.531 528.464 286.077Z" fill="#7266FC"/>
<ellipse cx="514.417" cy="276.622" rx="1.65188" ry="2.36437" fill="#7266FC"/>
<rect x="215.438" y="132.398" width="31.3857" height="11.8219" rx="5.91093" fill="#7266FC" fill-opacity="0.1"/>
<rect x="215.438" y="203.328" width="36.3413" height="11.8219" rx="5.91093" fill="#7266FC" fill-opacity="0.1"/>
<rect x="215.438" y="226.969" width="130.498" height="11.8219" rx="5.91093" fill="#7266FC" fill-opacity="0.1"/>
<rect x="215.438" y="257.711" width="104.068" height="11.8219" rx="5.91093" fill="#7266FC" fill-opacity="0.1"/>
<rect x="246.828" y="276.625" width="85.8977" height="11.8219" rx="5.91093" fill="#7266FC" fill-opacity="0.1"/>
<rect x="251.773" y="293.172" width="61.1195" height="11.8219" rx="5.91093" fill="#7266FC" fill-opacity="0.1"/>
<rect x="291.422" y="345.188" width="69.3789" height="30.7369" rx="15.3684" fill="white"/>
<rect x="306.289" y="357.008" width="39.6451" height="7.09312" rx="3.54656" fill="#7266FC" fill-opacity="0.1"/>
<rect x="213.781" y="345.188" width="69.3789" height="30.7369" rx="15.3684" fill="#7266FC"/>
<rect x="228.648" y="357.008" width="39.6451" height="7.09312" rx="3.54656" fill="white" fill-opacity="0.1"/>
<g filter="url(#filter2_d_2269_265941)">
<rect x="30" y="271.898" width="198.611" height="82.7531" rx="6" fill="white"/>
</g>
<path d="M63.2549 290.945C65.9958 290.085 68.8769 289.78 71.7338 290.047C74.5907 290.314 77.3684 291.147 79.9083 292.501C82.4482 293.854 84.7009 295.702 86.5373 297.938C88.3737 300.174 89.7576 302.755 90.6091 305.535C91.4607 308.314 91.7631 311.236 91.4987 314.134C91.2343 317.032 90.4084 319.848 89.0688 322.422C87.7293 324.996 85.9024 327.276 83.6935 329.133C81.4846 330.991 78.9368 332.389 76.1959 333.249C73.455 334.109 70.5739 334.414 67.717 334.147C64.8601 333.88 62.0824 333.046 59.5425 331.693C57.0026 330.339 54.7498 328.492 52.9135 326.256C51.0771 324.02 49.6932 321.438 48.8416 318.659C47.9901 315.88 47.6877 312.958 47.9521 310.06C48.2165 307.162 49.0424 304.345 50.3819 301.772C51.7215 299.198 53.5483 296.918 55.7572 295.06C57.9661 293.203 60.5139 291.805 63.2549 290.945L63.2549 290.945Z" stroke="#7266FC" stroke-opacity="0.1" stroke-width="3" stroke-linecap="round" stroke-linejoin="round"/>
<path d="M63.2549 290.945C68.224 289.386 73.5795 289.672 78.3595 291.753C83.1398 293.833 87.034 297.574 89.3374 302.305C91.6411 307.037 92.201 312.447 90.9153 317.561C89.6296 322.674 86.5839 327.152 82.3308 330.191" stroke="#7165F9" stroke-width="3" stroke-linecap="round" stroke-linejoin="round"/>
<rect x="109.453" y="295.547" width="46.732" height="11.8219" rx="5.91093" fill="#7266FC" fill-opacity="0.1"/>
<rect x="109.453" y="316.828" width="81.7811" height="11.8219" rx="5.91093" fill="#7266FC" fill-opacity="0.1"/>
<g filter="url(#filter3_d_2269_265941)">
<rect x="209" y="26" width="159.854" height="198.607" rx="6" fill="white"/>
</g>
<rect x="222.328" y="82.75" width="133.212" height="80.3887" rx="2" fill="#7266FC" fill-opacity="0.1"/>
<rect x="222.328" y="177.32" width="133.212" height="28.3725" rx="2" fill="#7266FC"/>
<rect x="245.164" y="186.781" width="87.5391" height="9.45749" rx="2" fill="white" fill-opacity="0.11"/>
<ellipse cx="235.649" cy="56.7381" rx="13.3212" ry="16.5506" fill="#7266FC" fill-opacity="0.1"/>
<rect x="254.688" y="44.9141" width="60.8968" height="7.09312" rx="3.54656" fill="#7266FC" fill-opacity="0.1"/>
<rect x="254.688" y="59.1016" width="38.0605" height="7.09312" rx="3.54656" fill="#7266FC" fill-opacity="0.1"/>
<ellipse cx="342.216" cy="49.6456" rx="1.90302" ry="2.36437" fill="#7266FC" fill-opacity="0.1"/>
<ellipse cx="347.919" cy="49.6456" rx="1.90302" ry="2.36437" fill="#7266FC" fill-opacity="0.1"/>
<ellipse cx="353.63" cy="49.6456" rx="1.90302" ry="2.36437" fill="#7266FC" fill-opacity="0.1"/>
<defs>
<filter id="filter0_d_2269_265941" x="221.758" y="385.391" width="221.859" height="258.609" filterUnits="userSpaceOnUse" color-interpolation-filters="sRGB">
<feFlood flood-opacity="0" result="BackgroundImageFix"/>
<feColorMatrix in="SourceAlpha" type="matrix" values="0 0 0 0 0 0 0 0 0 0 0 0 0 0 0 0 0 0 127 0" result="hardAlpha"/>
<feOffset dy="4"/>
<feGaussianBlur stdDeviation="15"/>
<feComposite in2="hardAlpha" operator="out"/>
<feColorMatrix type="matrix" values="0 0 0 0 0 0 0 0 0 0 0 0 0 0 0 0 0 0 0.1 0"/>
<feBlend mode="normal" in2="BackgroundImageFix" result="effect1_dropShadow_2269_265941"/>
<feBlend mode="normal" in="SourceGraphic" in2="effect1_dropShadow_2269_265941" result="shape"/>
</filter>
<filter id="filter1_d_2269_265941" x="518.539" y="186.789" width="222.469" height="272.793" filterUnits="userSpaceOnUse" color-interpolation-filters="sRGB">
<feFlood flood-opacity="0" result="BackgroundImageFix"/>
<feColorMatrix in="SourceAlpha" type="matrix" values="0 0 0 0 0 0 0 0 0 0 0 0 0 0 0 0 0 0 127 0" result="hardAlpha"/>
<feOffset dy="4"/>
<feGaussianBlur stdDeviation="15"/>
<feComposite in2="hardAlpha" operator="out"/>
<feColorMatrix type="matrix" values="0 0 0 0 0 0 0 0 0 0 0 0 0 0 0 0 0 0 0.1 0"/>
<feBlend mode="normal" in2="BackgroundImageFix" result="effect1_dropShadow_2269_265941"/>
<feBlend mode="normal" in="SourceGraphic" in2="effect1_dropShadow_2269_265941" result="shape"/>
</filter>
<filter id="filter2_d_2269_265941" x="0" y="245.898" width="258.609" height="142.754" filterUnits="userSpaceOnUse" color-interpolation-filters="sRGB">
<feFlood flood-opacity="0" result="BackgroundImageFix"/>
<feColorMatrix in="SourceAlpha" type="matrix" values="0 0 0 0 0 0 0 0 0 0 0 0 0 0 0 0 0 0 127 0" result="hardAlpha"/>
<feOffset dy="4"/>
<feGaussianBlur stdDeviation="15"/>
<feComposite in2="hardAlpha" operator="out"/>
<feColorMatrix type="matrix" values="0 0 0 0 0 0 0 0 0 0 0 0 0 0 0 0 0 0 0.1 0"/>
<feBlend mode="normal" in2="BackgroundImageFix" result="effect1_dropShadow_2269_265941"/>
<feBlend mode="normal" in="SourceGraphic" in2="effect1_dropShadow_2269_265941" result="shape"/>
</filter>
<filter id="filter3_d_2269_265941" x="179" y="0" width="219.852" height="258.605" filterUnits="userSpaceOnUse" color-interpolation-filters="sRGB">
<feFlood flood-opacity="0" result="BackgroundImageFix"/>
<feColorMatrix in="SourceAlpha" type="matrix" values="0 0 0 0 0 0 0 0 0 0 0 0 0 0 0 0 0 0 127 0" result="hardAlpha"/>
<feOffset dy="4"/>
<feGaussianBlur stdDeviation="15"/>
<feComposite in2="hardAlpha" operator="out"/>
<feColorMatrix type="matrix" values="0 0 0 0 0 0 0 0 0 0 0 0 0 0 0 0 0 0 0.1 0"/>
<feBlend mode="normal" in2="BackgroundImageFix" result="effect1_dropShadow_2269_265941"/>
<feBlend mode="normal" in="SourceGraphic" in2="effect1_dropShadow_2269_265941" result="shape"/>
</filter>
</defs>
</svg>
