<svg width="16" height="16" viewBox="0 0 16 16" fill="none" xmlns="http://www.w3.org/2000/svg">
<path d="M11.9062 5H4.09375C3.49066 5 3 5.49066 3 6.09375V10.7812C3 11.3843 3.49066 11.875 4.09375 11.875H11.9062C12.5093 11.875 13 11.3843 13 10.7812V6.09375C13 5.49066 12.5093 5 11.9062 5ZM4.09375 5.625H11.9062C12.1647 5.625 12.375 5.83529 12.375 6.09375V6.71875H3.625V6.09375C3.625 5.83529 3.83529 5.625 4.09375 5.625ZM11.9062 11.25H4.09375C3.83529 11.25 3.625 11.0397 3.625 10.7812V7.34375H12.375V10.7812C12.375 11.0397 12.1647 11.25 11.9062 11.25Z" fill="#252C48"/>
<path d="M5.1875 10.3125H4.875C4.70242 10.3125 4.5625 10.1726 4.5625 10V9.6875C4.5625 9.51492 4.70242 9.375 4.875 9.375H5.1875C5.36008 9.375 5.5 9.51492 5.5 9.6875V10C5.5 10.1726 5.36008 10.3125 5.1875 10.3125Z" fill="#252C48"/>
<rect x="0.25" y="0.25" width="15.5" height="15.5" rx="1.75" stroke="#9AA5B5" stroke-width="0.5"/>
</svg>
