<svg width="25" height="24" viewBox="0 0 25 24" fill="none" xmlns="http://www.w3.org/2000/svg">
<path d="M12.5234 12C12.5234 9.79086 14.3143 8 16.5234 8C18.7325 8 20.5234 9.79091 20.5234 12C20.5234 14.2092 18.7325 16 16.5234 16C14.3143 16 12.5234 14.2091 12.5234 12Z" fill="#00BCFF"/>
<path d="M4.52344 20.0004C4.52344 17.7913 6.3143 16.0004 8.52342 16.0004L10.6551 14.875L12.5234 16.0004V20.0004C12.5234 22.2096 10.7325 24.0004 8.52342 24.0004C6.3143 24.0004 4.52344 22.2095 4.52344 20.0004Z" fill="#00CF7F"/>
<path d="M12.5282 0L10.3516 3.78141L12.5282 7.99997H16.472C18.6812 7.99997 20.472 6.20911 20.472 3.99998C20.472 1.79086 18.6812 0 16.472 0H12.5282Z" fill="#FF7361"/>
<path d="M4.46875 3.99998C4.46875 6.20911 6.25961 7.99997 8.46873 7.99997L10.5906 8.81953L12.5248 7.99997V0H8.46869C6.25961 0 4.46875 1.79086 4.46875 3.99998Z" fill="#FF4D12"/>
<path d="M4.52344 12C4.52344 14.2092 6.3143 16 8.52342 16H12.5234V8H8.52342C6.3143 8 4.52344 9.79091 4.52344 12Z" fill="#B659FF"/>
</svg>
