<svg width="24" height="24" viewBox="0 0 24 24" fill="none" xmlns="http://www.w3.org/2000/svg">
<g clip-path="url(#clip0_2960_77611)">
<path fill-rule="evenodd" clip-rule="evenodd" d="M18 24H6C4.40872 23.9999 2.88264 23.3678 1.75744 22.2426C0.632233 21.1174 6.96138e-05 19.5913 0 18L0 6C6.96138e-05 4.40872 0.632233 2.88264 1.75744 1.75744C2.88264 0.632233 4.40872 6.96138e-05 6 0L18 0C19.5913 0 21.1174 0.632141 22.2426 1.75736C23.3679 2.88258 24 4.4087 24 6V18C24 19.5913 23.3679 21.1174 22.2426 22.2426C21.1174 23.3679 19.5913 24 18 24Z" fill="#DEEBF5"/>
<path fill-rule="evenodd" clip-rule="evenodd" d="M11.25 6.75H18C18.8652 6.74995 19.6974 6.41762 20.3246 5.82165C20.9519 5.22569 21.3263 4.41159 21.3706 3.5475C21.4149 2.68341 21.1256 1.83531 20.5626 1.17835C19.9995 0.521389 19.2057 0.105743 18.345 0.01725C18.2302 0.010875 18.1166 0 18 0H6C4.40872 6.96138e-05 2.88264 0.632233 1.75744 1.75744C0.632233 2.88264 6.96138e-05 4.40872 0 6L0 18C6.96164e-05 15.0163 1.18536 12.1549 3.29513 10.0451C5.40489 7.93536 8.26634 6.75007 11.25 6.75Z" fill="#F0FAFF"/>
<path fill-rule="evenodd" clip-rule="evenodd" d="M18 12C16.8133 12 15.6533 12.3519 14.6666 13.0112C13.6799 13.6705 12.9109 14.6075 12.4567 15.7039C12.0026 16.8003 11.8838 18.0067 12.1153 19.1705C12.3468 20.3344 12.9182 21.4035 13.7574 22.2426C14.5965 23.0818 15.6656 23.6532 16.8295 23.8847C17.9933 24.1162 19.1997 23.9974 20.2961 23.5433C21.3925 23.0892 22.3295 22.3201 22.9888 21.3334C23.6481 20.3467 24 19.1867 24 18V6C24 7.5913 23.3679 9.11742 22.2426 10.2426C21.1174 11.3679 19.5913 12 18 12Z" fill="#CDDCEB"/>
<path d="M19.5012 12.1758C19.5012 11.8837 19.4877 11.5905 19.4603 11.2991C19.4424 11.1138 19.3562 10.9419 19.2183 10.8168C19.0805 10.6917 18.901 10.6225 18.7148 10.6226C17.3742 10.6211 14.3206 10.6211 12.9023 10.6211C12.7034 10.6211 12.5127 10.7001 12.372 10.8408C12.2314 10.9814 12.1523 11.1722 12.1523 11.3711V12.8175C12.1524 13.0164 12.2315 13.2071 12.3721 13.3477C12.5127 13.4884 12.7035 13.5674 12.9023 13.5675H16.2848C16.2002 14.0382 16.0211 14.4869 15.7583 14.8865C15.4954 15.2861 15.1543 15.6283 14.7556 15.8925V15.8932C14.7556 16.1442 14.805 16.3927 14.901 16.6245C14.9971 16.8564 15.1378 17.0671 15.3153 17.2445C15.4927 17.422 15.7034 17.5628 15.9353 17.6588C16.1671 17.7548 16.4156 17.8042 16.6666 17.8042H17.2212C18.6691 16.4718 19.5012 14.5038 19.5012 12.1758Z" fill="#1E78FF"/>
<path d="M12.1499 19.6501C14.0139 19.7025 15.8277 19.0418 17.2214 17.8028L14.7561 15.8911C14.1624 16.2711 13.4899 16.5108 12.7897 16.5921C12.0894 16.6734 11.3799 16.5941 10.7149 16.3603C10.0499 16.1264 9.44689 15.7441 8.95169 15.2424C8.45648 14.7407 8.08207 14.1328 7.85687 13.4648H7.28275C6.76022 13.4649 6.25911 13.6725 5.88963 14.042C5.52014 14.4115 5.31255 14.9126 5.3125 15.4351V15.4358C5.94978 16.7028 6.92659 17.7678 8.13393 18.512C9.34127 19.2561 10.7316 19.6502 12.1499 19.6501Z" fill="#00B450"/>
<path d="M7.85541 13.4665C7.53478 12.5165 7.53478 11.4875 7.85541 10.5374V10.5367C7.85536 10.0141 7.64776 9.51302 7.27828 9.14353C6.9088 8.77405 6.40769 8.56646 5.88516 8.56641H5.31366C4.77862 9.63261 4.5 10.809 4.5 12.002C4.5 13.1949 4.77862 14.3713 5.31366 15.4375L7.85541 13.4665Z" fill="#FFB400"/>
<path d="M12.1499 7.37584C13.0212 7.36211 13.8749 7.62207 14.5907 8.11909C14.7328 8.22254 14.9072 8.27183 15.0824 8.25808C15.2575 8.24433 15.4221 8.16844 15.5462 8.04409C15.8894 7.71859 16.3405 7.26747 16.696 6.91197C16.7714 6.83661 16.8299 6.74604 16.8675 6.6463C16.9052 6.54656 16.9211 6.43994 16.9143 6.33356C16.9075 6.22717 16.8781 6.12346 16.828 6.02934C16.7779 5.93521 16.7084 5.85284 16.624 5.78772C15.3279 4.83588 13.7578 4.33067 12.1499 4.34809C10.7313 4.34791 9.34057 4.74218 8.13315 5.48685C6.92572 6.23151 5.94913 7.29725 5.3125 8.56497L7.85425 10.536C8.15012 9.62633 8.72362 8.83229 9.49413 8.26545C10.2646 7.69862 11.1934 7.38751 12.1499 7.37584Z" fill="#E60014"/>
</g>
<defs>
<clipPath id="clip0_2960_77611">
<rect width="24" height="24" fill="white"/>
</clipPath>
</defs>
</svg>
