<svg width="25" height="24" viewBox="0 0 25 24" fill="none" xmlns="http://www.w3.org/2000/svg">
<g clip-path="url(#clip0_2565_34438)">
<path d="M22.3243 0H2.67566C1.47406 0 0.5 0.974063 0.5 2.17566V21.8243C0.5 23.0259 1.47406 24 2.67566 24H22.3243C23.5259 24 24.5 23.0259 24.5 21.8243V2.17566C24.5 0.974063 23.5259 0 22.3243 0Z" fill="#DC395F"/>
<path d="M8.51859 7.54925C9.31641 7.54925 9.98475 6.92394 9.98475 6.10438C9.98475 5.28538 9.31641 4.66016 8.51859 4.66016C7.72078 4.66016 7.05263 5.28538 7.05263 6.10438C7.05263 6.92384 7.72078 7.54925 8.51859 7.54925ZM5.47866 15.2855C5.3925 15.6521 5.34928 16.0479 5.34928 16.3708C5.34928 17.643 6.03919 18.4876 7.50534 18.4876C8.72128 18.4876 9.70706 17.7656 10.4168 16.5996L9.98344 18.3389H12.398L13.778 12.804C14.123 11.4027 14.7913 10.6753 15.8048 10.6753C16.6025 10.6753 17.0983 11.1714 17.0983 11.9904C17.0983 12.2277 17.0767 12.4861 16.9905 12.7665L16.2789 15.3106C16.1711 15.6772 16.1282 16.0439 16.1282 16.3887C16.1282 17.5964 16.8395 18.4798 18.3272 18.4798C19.5993 18.4798 20.6125 17.6609 21.1732 15.6988L20.2246 15.3327C19.7502 16.6471 19.3405 16.8848 19.0171 16.8848C18.6937 16.8848 18.5212 16.6693 18.5212 16.2384C18.5212 16.0443 18.5645 15.829 18.629 15.5697L19.3191 13.0911C19.4915 12.5091 19.5562 11.993 19.5562 11.5188C19.5562 9.66463 18.435 8.69694 17.0767 8.69694C15.8047 8.69694 14.511 9.84434 13.8643 11.0519L14.3385 8.88444H10.6519L10.1344 10.7936H11.8593L10.7971 15.0461C9.963 16.9003 8.43084 16.9303 8.23856 16.8873C7.92281 16.8161 7.72087 16.6962 7.72087 16.2859C7.72087 16.0492 7.764 15.7092 7.87181 15.2992L9.489 8.88444H5.3925L4.875 10.7936H6.57816L5.47875 15.2855" fill="white"/>
</g>
<defs>
<clipPath id="clip0_2565_34438">
<rect width="24" height="24" fill="white" transform="translate(0.5)"/>
</clipPath>
</defs>
</svg>
