<svg width="32" height="17" viewBox="0 0 32 17" fill="none" xmlns="http://www.w3.org/2000/svg">
<path d="M18.4315 12.4408H13.5625V3.69043H18.4315V12.4408Z" fill="#FF5F00"/>
<path d="M13.878 8.06484C13.878 6.28979 14.7091 4.70862 16.0033 3.68965C15.0569 2.94453 13.8625 2.4998 12.5643 2.4998C9.49116 2.4998 7 4.99131 7 8.06484C7 11.1384 9.49116 13.6299 12.5643 13.6299C13.8625 13.6299 15.0569 13.1851 16.0033 12.44C14.7091 11.4211 13.878 9.83989 13.878 8.06484Z" fill="#EB001B"/>
<path d="M24.9959 8.06484C24.9959 11.1384 22.5047 13.6299 19.4316 13.6299C18.1334 13.6299 16.939 13.1851 15.9922 12.44C17.2868 11.4211 18.1179 9.83989 18.1179 8.06484C18.1179 6.28979 17.2868 4.70862 15.9922 3.68965C16.939 2.94453 18.1334 2.4998 19.4316 2.4998C22.5047 2.4998 24.9959 4.99131 24.9959 8.06484Z" fill="#F79E1B"/>
<path d="M11.1986 8.09845C11.1986 7.85537 11.3579 7.65567 11.6182 7.65567C11.8669 7.65567 12.0348 7.84676 12.0348 8.09845C12.0348 8.35014 11.8669 8.54122 11.6182 8.54122C11.3579 8.54122 11.1986 8.34153 11.1986 8.09845ZM12.3183 8.09845V7.40696H12.0176V7.57487C11.9222 7.45035 11.7775 7.37219 11.5808 7.37219C11.193 7.37219 10.889 7.67621 10.889 8.09845C10.889 8.52102 11.193 8.82471 11.5808 8.82471C11.7775 8.82471 11.9222 8.74655 12.0176 8.62203V8.78993H12.3183V8.09845ZM22.48 8.09845C22.48 7.85537 22.6392 7.65567 22.8995 7.65567C23.1486 7.65567 23.3162 7.84676 23.3162 8.09845C23.3162 8.35014 23.1486 8.54122 22.8995 8.54122C22.6392 8.54122 22.48 8.34153 22.48 8.09845ZM23.6 8.09845V6.85159H23.2989V7.57487C23.2036 7.45035 23.0588 7.37219 22.8621 7.37219C22.4743 7.37219 22.1703 7.67621 22.1703 8.09845C22.1703 8.52102 22.4743 8.82471 22.8621 8.82471C23.0588 8.82471 23.2036 8.74655 23.2989 8.62203V8.78993H23.6V8.09845ZM16.0509 7.64143C16.2447 7.64143 16.3692 7.76297 16.401 7.97691H15.6833C15.7155 7.77721 15.8367 7.64143 16.0509 7.64143ZM16.0569 7.37219C15.6515 7.37219 15.3681 7.66726 15.3681 8.09845C15.3681 8.53824 15.6631 8.82471 16.0771 8.82471C16.2854 8.82471 16.4762 8.77271 16.6441 8.63097L16.4967 8.40809C16.3808 8.50049 16.2331 8.55282 16.0943 8.55282C15.9006 8.55282 15.7241 8.46307 15.6807 8.21403H16.7076C16.7106 8.17661 16.7136 8.13885 16.7136 8.09845C16.7106 7.66726 16.4444 7.37219 16.0569 7.37219ZM19.6878 8.09845C19.6878 7.85537 19.8471 7.65567 20.1074 7.65567C20.3562 7.65567 20.5241 7.84676 20.5241 8.09845C20.5241 8.35014 20.3562 8.54122 20.1074 8.54122C19.8471 8.54122 19.6878 8.34153 19.6878 8.09845ZM20.8075 8.09845V7.40696H20.5068V7.57487C20.4111 7.45035 20.2667 7.37219 20.07 7.37219C19.6822 7.37219 19.3782 7.67621 19.3782 8.09845C19.3782 8.52102 19.6822 8.82471 20.07 8.82471C20.2667 8.82471 20.4111 8.74655 20.5068 8.62203V8.78993H20.8075V8.09845ZM17.9896 8.09845C17.9896 8.51804 18.2817 8.82471 18.7275 8.82471C18.9358 8.82471 19.0745 8.77834 19.2249 8.65978L19.0805 8.4167C18.9676 8.49784 18.849 8.54122 18.7185 8.54122C18.4784 8.53824 18.3019 8.36471 18.3019 8.09845C18.3019 7.83219 18.4784 7.65865 18.7185 7.65567C18.849 7.65567 18.9676 7.69906 19.0805 7.78019L19.2249 7.53711C19.0745 7.41855 18.9358 7.37219 18.7275 7.37219C18.2817 7.37219 17.9896 7.67886 17.9896 8.09845ZM21.8666 7.37219C21.6931 7.37219 21.5802 7.45333 21.502 7.57487V7.40696H21.2039V8.78993H21.505V8.01466C21.505 7.78582 21.6033 7.65865 21.8001 7.65865C21.861 7.65865 21.9246 7.66726 21.9882 7.69343L22.0809 7.40994C22.0143 7.38378 21.9276 7.37219 21.8666 7.37219ZM13.8056 7.51691C13.6609 7.42154 13.4615 7.37219 13.2416 7.37219C12.8912 7.37219 12.6657 7.54009 12.6657 7.81497C12.6657 8.04049 12.8336 8.17959 13.1429 8.22297L13.285 8.24317C13.4499 8.26635 13.5277 8.30974 13.5277 8.38789C13.5277 8.49486 13.4178 8.5558 13.2125 8.5558C13.0042 8.5558 12.8538 8.48923 12.7525 8.41107L12.6107 8.64521C12.7756 8.76675 12.984 8.82471 13.2095 8.82471C13.6089 8.82471 13.8404 8.6366 13.8404 8.37332C13.8404 8.13024 13.6582 8.00307 13.3572 7.95969L13.2154 7.93916C13.0853 7.92193 12.981 7.8961 12.981 7.80338C12.981 7.70204 13.0793 7.64143 13.2443 7.64143C13.4208 7.64143 13.5917 7.708 13.6754 7.75999L13.8056 7.51691ZM17.6856 7.37219C17.5121 7.37219 17.3991 7.45333 17.3213 7.57487V7.40696H17.0232V8.78993H17.3239V8.01466C17.3239 7.78582 17.4223 7.65865 17.619 7.65865C17.68 7.65865 17.7435 7.66726 17.8071 7.69343L17.8999 7.40994C17.8333 7.38378 17.7465 7.37219 17.6856 7.37219ZM15.1193 7.40696H14.6276V6.98737H14.3235V7.40696H14.043V7.68184H14.3235V8.31272C14.3235 8.63362 14.4481 8.82471 14.8037 8.82471C14.9342 8.82471 15.0846 8.7843 15.1799 8.71774L15.0932 8.46009C15.0034 8.51208 14.9051 8.53824 14.8269 8.53824C14.6766 8.53824 14.6276 8.44552 14.6276 8.30676V7.68184H15.1193V7.40696ZM10.623 8.78993V7.92193C10.623 7.59507 10.4147 7.37517 10.0789 7.37219C9.90241 7.36921 9.72026 7.42418 9.59276 7.61825C9.49738 7.46492 9.34703 7.37219 9.13574 7.37219C8.98804 7.37219 8.84365 7.41557 8.73072 7.57752V7.40696H8.42969V8.78993H8.73337V8.02327C8.73337 7.78317 8.8665 7.65567 9.07216 7.65567C9.27186 7.65567 9.37286 7.78582 9.37286 8.02029V8.78993H9.67688V8.02327C9.67688 7.78317 9.81564 7.65567 10.0153 7.65567C10.2207 7.65567 10.319 7.78582 10.319 8.02029V8.78993H10.623Z" fill="white"/>
<rect x="0.25" y="0.75" width="31.5" height="15.5" rx="1.75" stroke="#9AA5B5" stroke-width="0.5"/>
</svg>
