<svg width="16" height="16" viewBox="0 0 16 16" fill="none" xmlns="http://www.w3.org/2000/svg">
<path d="M6.26896 12.119L6.43254 11.0799L6.06815 11.0714H4.32812L5.53735 3.40414C5.54111 3.38099 5.5533 3.35941 5.57113 3.34408C5.58896 3.32876 5.61179 3.32031 5.63557 3.32031H8.56949C9.5435 3.32031 10.2157 3.523 10.5666 3.92305C10.7311 4.11072 10.8359 4.30684 10.8866 4.52266C10.9398 4.74911 10.9407 5.01967 10.8888 5.34966L10.885 5.37375V5.58519L11.0496 5.6784C11.1881 5.7519 11.2982 5.83604 11.3827 5.93238C11.5234 6.09284 11.6145 6.29678 11.6529 6.53856C11.6926 6.78722 11.6795 7.08312 11.6145 7.41811C11.5394 7.80346 11.418 8.13908 11.2541 8.4137C11.1034 8.66675 10.9113 8.87663 10.6833 9.03927C10.4656 9.19379 10.2069 9.31108 9.91446 9.38615C9.63108 9.45997 9.30797 9.49719 8.95359 9.49719H8.72526C8.56198 9.49719 8.4034 9.556 8.27891 9.6614C8.15411 9.769 8.07154 9.91601 8.0462 10.0768L8.029 10.1703L7.73998 12.0017L7.72685 12.0689C7.72341 12.0902 7.71746 12.1008 7.70871 12.108C7.70089 12.1146 7.68963 12.119 7.67868 12.119H6.26896Z" fill="#253B80"/>
<path d="M11.211 5.39844C11.2022 5.45443 11.1922 5.51167 11.1809 5.57047C10.794 7.55697 9.4703 8.24322 7.7797 8.24322H6.91892C6.71216 8.24322 6.53794 8.39335 6.50573 8.59729L6.06501 11.3923L5.94021 12.1846C5.91925 12.3185 6.02247 12.4392 6.1576 12.4392H7.6843C7.86509 12.4392 8.01867 12.3079 8.04713 12.1296L8.06214 12.052L8.34959 10.2278L8.36805 10.1277C8.3962 9.94883 8.55009 9.81746 8.73088 9.81746H8.95921C10.4384 9.81746 11.5963 9.21692 11.9347 7.47908C12.0761 6.75311 12.0029 6.14693 11.6288 5.72061C11.5156 5.59205 11.3752 5.48539 11.211 5.39844Z" fill="#179BD7"/>
<path d="M10.8005 5.23653C10.7414 5.21933 10.6804 5.20369 10.6178 5.18962C10.5549 5.17585 10.4905 5.16365 10.4242 5.15302C10.1921 5.11549 9.93782 5.09766 9.66538 5.09766H7.36579C7.30917 5.09766 7.25538 5.11048 7.20721 5.13363C7.10117 5.18461 7.02235 5.28501 7.00327 5.40794L6.51408 8.50639L6.5 8.59678C6.53222 8.39285 6.70644 8.24271 6.91319 8.24271H7.77397C9.46458 8.24271 10.7883 7.55615 11.1752 5.56996C11.1868 5.51116 11.1965 5.45392 11.2052 5.39793C11.1073 5.34601 11.0013 5.30159 10.8871 5.26375C10.859 5.25436 10.8299 5.24529 10.8005 5.23653Z" fill="#222D65"/>
<path d="M7.00711 5.40813C7.02619 5.28521 7.10501 5.1848 7.21105 5.13413C7.25953 5.11099 7.31302 5.09816 7.36963 5.09816H9.66923C9.94166 5.09816 10.196 5.11599 10.428 5.15353C10.4944 5.16416 10.5588 5.17636 10.6217 5.19012C10.6842 5.2042 10.7452 5.21984 10.8043 5.23704C10.8337 5.2458 10.8628 5.25487 10.8913 5.26394C11.0054 5.30179 11.1115 5.34651 11.2094 5.39812C11.3245 4.66402 11.2084 4.16419 10.8115 3.71159C10.3739 3.21332 9.58415 3 8.57354 3H5.63962C5.43318 3 5.25708 3.15014 5.22518 3.35439L4.00312 11.1005C3.97904 11.2538 4.09727 11.392 4.25179 11.392H6.06313L6.51792 8.50658L7.00711 5.40813Z" fill="#253B80"/>
<rect x="0.25" y="0.25" width="15.5" height="15.5" rx="1.75" stroke="#9AA5B5" stroke-width="0.5"/>
</svg>
