<svg width="17" height="16" viewBox="0 0 17 16" fill="none" xmlns="http://www.w3.org/2000/svg">
<path d="M7.83854 14.6654C8.20673 14.6654 8.50521 14.3669 8.50521 13.9987C8.50521 13.6305 8.20673 13.332 7.83854 13.332C7.47035 13.332 7.17188 13.6305 7.17188 13.9987C7.17188 14.3669 7.47035 14.6654 7.83854 14.6654Z" stroke="#252C48" stroke-width="1.4" stroke-linecap="round" stroke-linejoin="round"/>
<path d="M12.5026 14.6654C12.8708 14.6654 13.1693 14.3669 13.1693 13.9987C13.1693 13.6305 12.8708 13.332 12.5026 13.332C12.1344 13.332 11.8359 13.6305 11.8359 13.9987C11.8359 14.3669 12.1344 14.6654 12.5026 14.6654Z" stroke="#252C48" stroke-width="1.4" stroke-linecap="round" stroke-linejoin="round"/>
<path d="M1.83594 2H4.26018L5.88442 10.3314C5.93984 10.6178 6.09164 10.8751 6.31324 11.0583C6.53484 11.2414 6.81212 11.3387 7.09654 11.3331H12.9875C13.2719 11.3387 13.5492 11.2414 13.7708 11.0583C13.9924 10.8751 14.1442 10.6178 14.1996 10.3314L15.1693 5.11103H4.86624" stroke="#252C48" stroke-width="1.4" stroke-linecap="round" stroke-linejoin="round"/>
</svg>
