<svg width="50" height="16" viewBox="0 0 50 16" fill="none" xmlns="http://www.w3.org/2000/svg">
<path d="M18.9846 0.281347L12.4396 15.7554H8.16768L4.94915 3.40756C4.75097 2.646 4.5816 2.36898 3.9875 2.04565C3.01437 1.52425 1.41349 1.03517 0 0.730615L0.0988637 0.28146H6.97178C7.84835 0.28146 8.63639 0.860764 8.83458 1.85941L10.5364 10.8155L14.7399 0.28146H18.9846V0.281347ZM35.7177 10.7008C35.7366 6.61909 30.0172 6.3969 30.0584 4.57083C30.0695 4.01348 30.6027 3.4236 31.7705 3.27468C32.3504 3.19823 33.9462 3.14225 35.7549 3.9649L36.4638 0.685107C35.4907 0.335159 34.2398 0 32.6851 0C28.6921 0 25.8809 2.10435 25.8573 5.11532C25.8311 7.34197 27.8628 8.58442 29.3954 9.32596C30.969 10.0848 31.4951 10.5692 31.4896 11.2496C31.4793 12.2882 30.234 12.7422 29.0726 12.7625C27.0409 12.7939 25.8624 12.2185 24.9213 11.7842L24.1899 15.1769C25.1325 15.6057 26.8778 15.978 28.6841 16C32.9279 15.9999 35.7043 13.9179 35.7177 10.7008ZM46.2625 15.7553H50L46.7388 0.281233H43.2884C42.5131 0.281233 41.8595 0.729248 41.5683 1.41549L35.5095 15.7552H39.7502L40.592 13.4442H45.7757L46.2625 15.7553ZM41.7542 10.2728L43.8817 4.46264L45.1056 10.2728H41.7542ZM24.7583 0.281347L21.4155 15.7553H17.3746L20.7182 0.281233H24.7583V0.281347Z" fill="#21246E"/>
</svg>
