<svg width="32" height="16" viewBox="0 0 32 16" fill="none" xmlns="http://www.w3.org/2000/svg">
<path d="M14.3975 11.0993H12.4531L13.6692 4.12891H15.6135L14.3975 11.0993Z" fill="#00579F"/>
<path d="M21.4575 4.29676C21.074 4.15572 20.4657 4 19.7136 4C17.7935 4 16.4413 4.94911 16.4331 6.30605C16.4171 7.30719 17.4011 7.86326 18.1371 8.19707C18.8893 8.53818 19.145 8.76082 19.145 9.06487C19.1374 9.53183 18.5372 9.74708 17.9774 9.74708C17.2011 9.74708 16.7852 9.63611 16.1531 9.37631L15.8971 9.26494L15.625 10.8296C16.081 11.0222 16.9212 11.1931 17.7935 11.2006C19.8336 11.2006 21.1618 10.2662 21.1775 8.82015C21.1853 8.02666 20.6657 7.41866 19.5455 6.92184C18.8654 6.6029 18.4489 6.38785 18.4489 6.06153C18.4569 5.76487 18.8012 5.46102 19.5688 5.46102C20.2009 5.44613 20.6654 5.58697 21.0172 5.72791L21.193 5.80193L21.4575 4.29676Z" fill="#00579F"/>
<path d="M24.0316 8.62993C24.1918 8.22949 24.8079 6.67967 24.8079 6.67967C24.7998 6.69455 24.9677 6.27184 25.0637 6.01234L25.1996 6.61295C25.1996 6.61295 25.5678 8.28143 25.6478 8.62993C25.3439 8.62993 24.4157 8.62993 24.0316 8.62993ZM26.4317 4.12891H24.9277C24.4639 4.12891 24.1116 4.25486 23.9115 4.70724L21.0234 11.0992H23.0636C23.0636 11.0992 23.3994 10.2389 23.4716 10.0536C23.6954 10.0536 25.6801 10.0536 25.968 10.0536C26.0238 10.2983 26.2 11.0992 26.2 11.0992H28.0003L26.4317 4.12891Z" fill="#00579F"/>
<path d="M10.8316 4.12891L8.92749 8.88204L8.71942 7.91805C8.36738 6.80573 7.26332 5.59722 6.03125 4.99631L7.77538 11.0919H9.83145L12.8876 4.12891H10.8316Z" fill="#00579F"/>
<path d="M7.16024 4.12891H4.032L4 4.26974C6.44022 4.84818 8.05634 6.24247 8.72032 7.91834L8.04028 4.71483C7.92832 4.26965 7.58426 4.14359 7.16024 4.12891Z" fill="#FAA61A"/>
<rect x="0.25" y="0.25" width="31.5" height="15.5" rx="1.75" stroke="#9AA5B5" stroke-width="0.5"/>
</svg>
