<svg width="25" height="24" viewBox="0 0 25 24" fill="none" xmlns="http://www.w3.org/2000/svg">
<g clip-path="url(#clip0_2565_34412)">
<path d="M4.74999 0.300781H20.25C22.5972 0.300781 24.5 2.20357 24.5 4.55077V19.4508C24.5 21.798 22.5972 23.7008 20.25 23.7008H4.74999C2.40279 23.7008 0.5 21.798 0.5 19.4508V4.55077C0.5 2.20357 2.40279 0.300781 4.74999 0.300781Z" fill="#470137"/>
<path d="M13.1148 6.45273L10.1201 11.3954L13.3241 16.644C13.3446 16.6807 13.3504 16.7239 13.3402 16.7648C13.3294 16.8025 13.2919 16.7787 13.2275 16.7893H10.9413C10.7803 16.7893 10.6676 16.7836 10.6032 16.6762C10.3884 16.2576 10.1737 15.8417 9.95918 15.4285C9.74436 15.0154 9.51627 14.5941 9.27496 14.1646C9.03347 13.7355 8.79465 13.3008 8.5585 12.8605H8.54237C8.32755 13.2899 8.10481 13.7193 7.87419 14.1485C7.64329 14.5779 7.4152 15.0046 7.18997 15.4284C6.96456 15.8526 6.7338 16.2739 6.4977 16.6923C6.45467 16.7889 6.37943 16.7988 6.27223 16.7988H4.06654C4.02375 16.7988 3.99961 16.8158 3.99408 16.7728C3.98803 16.7335 3.99661 16.6934 4.01826 16.6601L7.12552 11.5564L4.09875 6.4366C4.06654 6.39386 4.0612 6.35898 4.08262 6.33198C4.10671 6.30414 4.14253 6.28923 4.17927 6.29172H6.44932C6.49882 6.289 6.54832 6.29725 6.59426 6.3159C6.63274 6.3377 6.66578 6.36798 6.69086 6.40445C6.88408 6.83386 7.09876 7.26318 7.33486 7.69245C7.57087 8.12186 7.80964 8.54583 8.05132 8.96436C8.29282 9.38295 8.51556 9.80692 8.71951 10.2363H8.73563C8.95018 9.79628 9.16753 9.36696 9.38769 8.94829C9.60758 8.5297 9.83295 8.1084 10.0638 7.68443C10.2946 7.26055 10.5173 6.83925 10.732 6.42057C10.7444 6.38082 10.7665 6.34487 10.7964 6.31595C10.8362 6.2958 10.8809 6.28741 10.9252 6.29176H13.0343C13.0838 6.27958 13.1338 6.30976 13.146 6.35922C13.1545 6.39376 13.1423 6.43018 13.1148 6.45273Z" fill="#FF61F6"/>
<path d="M17.7334 16.9987C16.9924 17.01 16.2581 16.856 15.5841 16.5479C14.9562 16.2573 14.4312 15.7829 14.0788 15.1874C13.7137 14.5812 13.5313 13.8218 13.5314 12.9093C13.5253 12.1704 13.7142 11.4429 14.0788 10.8001C14.4544 10.1455 15.0068 9.60983 15.6727 9.25453C16.3703 8.86815 17.2128 8.67493 18.2004 8.67493C18.254 8.67493 18.3237 8.6776 18.4097 8.68299C18.4955 8.68853 18.5975 8.69654 18.7156 8.70713V5.53543C18.7156 5.46047 18.7478 5.42274 18.8122 5.42274H20.8408C20.8875 5.41608 20.9307 5.44852 20.9374 5.49521C20.9385 5.50322 20.9385 5.51133 20.9374 5.51935V15.0345C20.9374 15.2171 20.9455 15.4157 20.9615 15.6302C20.9777 15.845 20.9911 16.0382 21.0018 16.2098C21.0058 16.2782 20.9675 16.3422 20.9051 16.3708C20.3818 16.589 19.8367 16.751 19.2791 16.8538C18.7692 16.9479 18.2519 16.9964 17.7334 16.9987ZM18.7155 15.0023V10.607C18.6285 10.5834 18.5397 10.5673 18.4499 10.5587C18.3402 10.5477 18.2301 10.5423 18.1198 10.5426C17.7291 10.5387 17.343 10.627 16.9928 10.8002C16.6517 10.9697 16.3605 11.2249 16.1476 11.5408C15.9275 11.8628 15.8175 12.2867 15.8175 12.8127C15.8097 13.1637 15.867 13.513 15.9865 13.8431C16.0839 14.109 16.2376 14.3507 16.4374 14.5515C16.6286 14.7362 16.86 14.874 17.1135 14.954C17.3813 15.0407 17.6612 15.0842 17.9427 15.0828C18.0929 15.0828 18.2324 15.0774 18.3613 15.0667C18.4813 15.0577 18.6 15.0361 18.7155 15.0023Z" fill="#FF61F6"/>
</g>
<defs>
<clipPath id="clip0_2565_34412">
<rect width="24" height="24" fill="white" transform="translate(0.5)"/>
</clipPath>
</defs>
</svg>
