<svg width="180" height="36" viewBox="0 0 180 36" fill="none" xmlns="http://www.w3.org/2000/svg">
<path d="M6.90683 12.2099L11.3395 9.65349L8.86525 5.37032H32.1348L20.5038 25.5228L18.0295 21.2321L13.5969 23.796L20.5038 35.7561L41 0.25H0L6.90683 12.2099Z" fill="#FBBF24"/>
<path d="M59.3856 29.25L68.2356 8.25H64.0056L57.7656 23.49L51.4956 8.25H47.2656L56.1156 29.25H59.3856Z" fill="#3F3F46"/>
<path d="M73.2395 8.25V29.25H88.8695V25.53H77.2595V20.49H87.0695V16.77H77.2595V11.97H88.7195V8.25H73.2395Z" fill="#3F3F46"/>
<path d="M94.638 8.25V29.25H98.658V21.84H103.548L107.958 29.25H112.428L107.628 21.15C110.058 20.07 111.618 17.76 111.618 15.03C111.618 13.11 110.928 11.49 109.518 10.2C108.138 8.91 106.428 8.25 104.358 8.25H94.638ZM104.358 11.97C106.128 11.97 107.418 13.26 107.418 15.03C107.418 16.8 106.128 18.12 104.358 18.12H98.658V11.97H104.358Z" fill="#3F3F46"/>
<path d="M123.178 11.97V29.25H127.228V11.97H134.188V8.25H116.218V11.97H123.178Z" fill="#3F3F46"/>
<path d="M139.661 8.25V29.25H155.291V25.53H143.681V20.49H153.491V16.77H143.681V11.97H155.141V8.25H139.661Z" fill="#3F3F46"/>
<path d="M167.39 18.54L159.59 29.25H164.42L169.79 21.84L175.16 29.25H179.96L172.19 18.54L179.66 8.25H174.86L169.79 15.24L164.72 8.25H159.89L167.39 18.54Z" fill="#3F3F46"/>
</svg>
