<svg width="166" height="38" viewBox="0 0 166 38" fill="none" xmlns="http://www.w3.org/2000/svg">
<path d="M32.1685 14.4639L32.1463 14.4418C32.1445 14.4406 32.1431 14.4389 32.1422 14.437L18.3071 0.601562L4.4721 14.4367C4.47051 14.4383 4.46962 14.4404 4.46801 14.4415L4.44518 14.4636C2.32962 16.591 0.985875 19.3646 0.627559 22.3434C0.269243 25.3223 0.91692 28.3354 2.46762 30.9039C4.01833 33.4724 6.38308 35.4489 9.18595 36.5189C11.9888 37.589 15.069 37.6915 17.9367 36.81C18.178 36.7362 18.436 36.7362 18.6773 36.81C21.5449 37.6912 24.6248 37.5886 27.4275 36.5184C30.2302 35.4482 32.5947 33.4719 34.1453 30.9035C35.6959 28.3352 36.3437 25.3223 35.9855 22.3436C35.6273 19.3649 34.2837 16.5914 32.1685 14.4639ZM9.39164 23.5873C9.32429 23.6546 9.27088 23.7347 9.23446 23.8226C9.19801 23.9105 9.17926 24.0048 9.17927 24.1C9.20389 26.5418 9.89398 28.9306 11.1753 31.0095C11.2044 31.0566 11.2178 31.1118 11.2137 31.167C11.2096 31.2222 11.1881 31.2748 11.1523 31.3171C11.1165 31.3594 11.0682 31.3893 11.0144 31.4025C10.9606 31.4157 10.904 31.4116 10.8527 31.3907C9.88948 30.9855 9.01442 30.3966 8.27649 29.6568C6.76423 28.1443 5.91405 26.0933 5.91268 23.9544C5.9113 21.8155 6.75885 19.7635 8.26919 18.2491L18.3071 8.21213L28.3445 18.2491C29.8551 19.7633 30.7029 21.8154 30.7015 23.9544C30.7002 26.0933 29.8499 28.1443 28.3375 29.6568C27.5995 30.3966 26.7246 30.9855 25.7615 31.3907C25.7101 31.4116 25.6534 31.4157 25.5996 31.4025C25.5459 31.3893 25.4976 31.3593 25.4617 31.3171C25.426 31.2748 25.4044 31.2222 25.4003 31.1669C25.3962 31.1117 25.4096 31.0565 25.4387 31.0093C26.7203 28.9306 27.4107 26.5418 27.4357 24.1C27.4357 24.0048 27.4168 23.9105 27.3802 23.8224C27.3435 23.7343 27.2899 23.6545 27.2224 23.5871L22.4747 18.5512C22.4273 18.5118 22.3679 18.4901 22.3062 18.4901C22.2448 18.4901 22.1851 18.5118 22.1379 18.5512C22.0906 18.5905 22.0588 18.6454 22.0477 18.7059C22.0367 18.7665 22.0472 18.8288 22.0776 18.8824C23.9215 22.2193 22.3359 27.0122 19.6916 29.6568L19.6777 29.6707C19.3127 30.0318 18.82 30.2342 18.3067 30.234C17.7933 30.2338 17.3008 30.0311 16.9361 29.6698L16.9232 29.6568C14.278 27.0122 12.6932 22.2198 14.5374 18.8831C14.5678 18.8296 14.5783 18.7672 14.5673 18.7066C14.5563 18.6461 14.5244 18.5912 14.4771 18.5519C14.4299 18.5125 14.3703 18.4909 14.3087 18.4909C14.2472 18.4909 14.1876 18.5125 14.1403 18.5519L9.39164 23.5873Z" fill="url(#paint0_linear_2247_310515)"/>
<path d="M66.2029 12.1601H70.7818L66.0323 28.0298H60.7993L58.5809 18.6445L56.3341 28.0298H51.1011L46.3516 12.1601H51.2149L53.6892 23.3087L56.1351 12.1601H61.2828L63.7286 23.3087L66.2029 12.1601Z" fill="#18181B"/>
<path d="M82.6759 22.9958C83.3775 22.3133 83.7282 21.3463 83.7282 20.0949C83.7282 18.8435 83.3775 17.886 82.6759 17.2224C81.9744 16.5399 81.1686 16.1986 80.2585 16.1986C79.3484 16.1986 78.5426 16.5399 77.8411 17.2224C77.1395 17.905 76.7888 18.872 76.7888 20.1234C76.7888 21.3747 77.1395 22.3417 77.8411 23.0243C78.5426 23.6879 79.3484 24.0197 80.2585 24.0197C81.1686 24.0197 81.9744 23.6784 82.6759 22.9958ZM73.9447 25.9536C72.5417 24.4368 71.8401 22.4934 71.8401 20.1234C71.8401 17.7533 72.5417 15.8099 73.9447 14.2931C75.3478 12.7573 77.0542 11.9894 79.064 11.9894C81.0927 11.9894 82.6475 12.7383 83.7282 14.2362V12.1601H88.5915V28.0298H83.7282V25.7261C82.5527 27.3946 80.979 28.2289 79.0071 28.2289C77.0352 28.2289 75.3478 27.4705 73.9447 25.9536Z" fill="#18181B"/>
<path d="M90.8452 12.1601H96.0213L99.6333 23.9628L103.245 12.1601H108.421L102.79 28.0298H96.4764L90.8452 12.1601Z" fill="#18181B"/>
<path d="M117.408 28.2289C115.095 28.2289 113.199 27.4894 111.72 26.0105C110.241 24.5127 109.501 22.5313 109.501 20.0665C109.501 17.6016 110.231 15.6393 111.691 14.1793C113.17 12.7194 115.076 11.9894 117.408 11.9894C119.74 11.9894 121.674 12.7099 123.21 14.1509C124.745 15.5919 125.513 17.5922 125.513 20.1518C125.513 20.7016 125.475 21.2136 125.4 21.6876H114.478C114.573 22.3891 114.886 22.9674 115.417 23.4224C115.948 23.8585 116.517 24.0766 117.123 24.0766C117.749 24.0766 118.214 24.0197 118.517 23.9059C118.82 23.7732 119.038 23.65 119.171 23.5362C119.323 23.4035 119.512 23.1949 119.74 22.9105H125.001C124.546 24.5032 123.636 25.7925 122.271 26.7784C120.906 27.7454 119.285 28.2289 117.408 28.2289ZM120.451 18.6445C120.375 17.905 120.053 17.3078 119.484 16.8527C118.915 16.3787 118.242 16.1417 117.465 16.1417C116.687 16.1417 116.033 16.3787 115.502 16.8527C114.971 17.3078 114.64 17.905 114.507 18.6445H120.451Z" fill="#18181B"/>
<path d="M133.5 12.1601V15.1179C134.638 13.0322 136.155 11.9894 138.051 11.9894V16.938H136.856C135.738 16.938 134.894 17.2035 134.325 17.7344C133.775 18.2653 133.5 19.1943 133.5 20.5215V28.0298H128.637V12.1601H133.5Z" fill="#18181B"/>
<path d="M145.128 10.3683C144.578 10.9182 143.905 11.1931 143.108 11.1931C142.312 11.1931 141.639 10.9182 141.089 10.3683C140.539 9.81846 140.264 9.14537 140.264 8.34904C140.264 7.53375 140.539 6.85118 141.089 6.30133C141.639 5.75149 142.312 5.47656 143.108 5.47656C143.905 5.47656 144.578 5.75149 145.128 6.30133C145.678 6.85118 145.952 7.53375 145.952 8.34904C145.952 9.14537 145.678 9.81846 145.128 10.3683ZM140.691 28.0298V12.1601H145.554V28.0298H140.691Z" fill="#18181B"/>
<path d="M159.356 23.0527C160.001 22.3701 160.323 21.3842 160.323 20.0949C160.323 18.8056 159.991 17.8292 159.328 17.1656C158.664 16.483 157.877 16.1417 156.967 16.1417C156.057 16.1417 155.27 16.483 154.607 17.1656C153.962 17.8292 153.64 18.8056 153.64 20.0949C153.64 21.3842 153.971 22.3701 154.635 23.0527C155.318 23.7353 156.114 24.0766 157.024 24.0766C157.934 24.0766 158.711 23.7353 159.356 23.0527ZM151.08 25.9821C149.487 24.4842 148.691 22.5124 148.691 20.0665C148.691 17.6206 149.487 15.6677 151.08 14.2078C152.673 12.7289 154.644 11.9894 156.996 11.9894C159.347 11.9894 161.309 12.7289 162.883 14.2078C164.475 15.6677 165.272 17.6206 165.272 20.0665C165.272 22.5124 164.485 24.4842 162.911 25.9821C161.337 27.4799 159.375 28.2289 157.024 28.2289C154.673 28.2289 152.692 27.4799 151.08 25.9821Z" fill="#18181B"/>
<defs>
<linearGradient id="paint0_linear_2247_310515" x1="18.3065" y1="0.601562" x2="18.3065" y2="37.4038" gradientUnits="userSpaceOnUse">
<stop stop-color="#F0B645"/>
<stop offset="1" stop-color="#D694FF"/>
</linearGradient>
</defs>
</svg>
