<svg width="188" height="40" viewBox="0 0 188 40" fill="none" xmlns="http://www.w3.org/2000/svg">
<path d="M21.4311 7.1332L22.9181 5.64612C25.8384 2.7259 30.5925 2.65362 33.5296 5.55702C34.6425 6.65962 35.3821 8.08313 35.6444 9.62761C35.9068 11.1721 35.6786 12.76 34.9922 14.1682C34.6629 14.8409 34.552 15.5996 34.6748 16.3384C34.7977 17.0772 35.1482 17.7591 35.6775 18.289C36.6508 17.3135 37.4221 16.1558 37.9478 14.8821C38.4734 13.6083 38.743 12.2435 38.7411 10.8655C38.739 9.48762 38.4658 8.12355 37.9365 6.85131C37.4072 5.57904 36.6324 4.42354 35.6565 3.45079C31.5496 -0.632973 24.8832 -0.551707 20.7878 3.54353L6.61348 17.7175L5.44822 16.5522C2.47847 13.5825 2.45954 8.72812 5.48168 5.81114C6.60034 4.73474 8.02554 4.03206 9.56057 3.80012C11.0956 3.56818 12.6648 3.8184 14.0515 4.51624C14.6845 4.84059 15.4038 4.95662 16.1066 4.84776C16.8095 4.7389 17.4599 4.41072 17.9651 3.91009L18.0013 3.87414C18.0125 3.86297 18.0214 3.84968 18.0275 3.83503C18.0336 3.82041 18.0367 3.80471 18.0367 3.78886C18.0367 3.773 18.0336 3.75731 18.0275 3.74268C18.0214 3.72805 18.0125 3.71476 18.0013 3.70357C16.0503 1.80169 13.436 0.733399 10.7115 0.724762C7.98695 0.716127 5.3659 1.76782 3.40299 3.6573C-0.82534 7.73915 -0.81023 14.5269 3.34562 18.6827L17.5158 32.8529L16.0105 34.3581C13.0903 37.2783 8.33594 37.3506 5.39908 34.4472C4.28619 33.3447 3.54663 31.9211 3.28426 30.3766C3.02192 28.8322 3.24992 27.2444 3.93629 25.8361C4.26558 25.1634 4.37656 24.4046 4.25374 23.666C4.1309 22.9271 3.78039 22.2451 3.25116 21.7152C2.27794 22.6908 1.50646 23.8484 0.980788 25.1221C0.455114 26.3959 0.185557 27.7606 0.187511 29.1387C0.189464 30.5166 0.462889 31.8807 0.992172 33.1529C1.52145 34.4252 2.29622 35.5807 3.2722 36.5534C7.37891 40.6374 14.0454 40.5563 18.1408 36.4609L32.3335 22.268L33.5032 23.4377C36.4234 26.3579 36.4957 31.1121 33.5923 34.0489C32.4898 35.162 31.0662 35.9014 29.5217 36.1639C27.9773 36.4263 26.3894 36.1982 24.9812 35.5117C24.3083 35.1822 23.5491 35.0711 22.8101 35.1943C22.0711 35.3172 21.3888 35.6681 20.859 36.1978C21.8345 37.1711 22.9921 37.9426 24.2658 38.4683C25.5397 38.9939 26.9044 39.2635 28.2825 39.2616C29.6604 39.2595 31.0245 38.9861 32.2966 38.4568C33.569 37.9275 34.7245 37.1527 35.6972 36.1768C39.7812 32.07 39.6999 25.4035 35.6046 21.3083L21.4311 7.1332ZM19.6317 30.7359L8.73003 19.8342L19.3143 9.25013L30.216 20.1518L19.6317 30.7359Z" fill="#0EA5E9"/>
<path d="M56.8355 32.6426C54.6662 32.6426 53.0078 32.0061 51.8603 30.7332C50.7219 29.4603 50.0854 27.7212 49.9509 25.516L53.3932 24.6554C53.5636 28.0977 54.711 29.8188 56.8355 29.8188C58.5567 29.8188 59.4172 28.9583 59.4172 27.2371C59.4172 26.7262 59.3455 26.2555 59.2021 25.8253C59.0676 25.386 58.857 24.9871 58.5701 24.6285C58.2833 24.261 58.0233 23.9696 57.7902 23.7545C57.5572 23.5304 57.2389 23.257 56.8355 22.9343L52.5327 19.492C51.7438 18.8734 51.1118 18.0891 50.6367 17.1388C50.1706 16.1797 49.9375 15.0905 49.9375 13.8714C49.9375 12.0964 50.4888 10.6846 51.5914 9.63573C52.694 8.58691 54.1552 8.0625 55.975 8.0625C57.9292 8.0625 59.48 8.54209 60.6274 9.50127C61.7838 10.4515 62.4965 11.8006 62.7654 13.5486C62.7923 13.7369 62.8237 13.9969 62.8595 14.3285L59.4172 15.1891C59.4083 15.0367 59.3859 14.8081 59.35 14.5033C59.1976 13.4097 58.8525 12.5357 58.3146 11.8813C57.7857 11.2179 57.0058 10.8863 55.975 10.8863C55.1502 10.8863 54.5138 11.1193 54.0656 11.5855C53.6173 12.0426 53.3932 12.6836 53.3932 13.5083C53.3932 14.8619 53.967 15.9959 55.1144 16.9103L59.4172 20.3525C61.7121 22.2082 62.8595 24.4268 62.8595 27.0085C62.8595 28.7745 62.3127 30.155 61.2191 31.15C60.1344 32.1451 58.6732 32.6426 56.8355 32.6426Z" fill="#18181B"/>
<path d="M70.0534 29.8188C70.9588 29.8188 71.8193 29.5858 72.6351 29.1196V18.47C72.5992 18.4521 72.5096 18.3983 72.3662 18.3087C72.2227 18.219 72.1197 18.1608 72.0569 18.1339C72.0031 18.098 71.909 18.0442 71.7745 17.9725C71.6401 17.9008 71.528 17.8515 71.4384 17.8246C71.3577 17.7888 71.2501 17.7529 71.1157 17.717C70.9902 17.6722 70.8647 17.6409 70.7391 17.6229C70.6226 17.605 70.4971 17.596 70.3626 17.596C70.0758 17.596 69.8203 17.6633 69.5962 17.7977C69.3811 17.9232 69.2018 18.0756 69.0583 18.2549C68.9149 18.4342 68.7894 18.6897 68.6818 19.0214C68.5832 19.353 68.5115 19.6489 68.4667 19.9088C68.4219 20.1598 68.386 20.5005 68.3591 20.9307C68.3322 21.3521 68.3143 21.6793 68.3053 21.9123C68.3053 22.1454 68.3053 22.4726 68.3053 22.8939C68.3053 22.9119 68.3053 22.9253 68.3053 22.9343C68.3053 23.0867 68.3053 23.3332 68.3053 23.6738C68.3053 24.0145 68.3053 24.3417 68.3053 24.6554C68.3053 24.9692 68.3053 25.265 68.3053 25.5429C68.3143 26.1435 68.3412 26.6724 68.386 27.1296C68.4398 27.5778 68.525 28.0215 68.6415 28.4608C68.767 28.891 68.9463 29.2272 69.1794 29.4692C69.4214 29.7023 69.7127 29.8188 70.0534 29.8188ZM72.6351 37.564V30.8542C72.1241 31.3831 71.5952 31.8134 71.0484 32.1451C70.5106 32.4768 69.892 32.6426 69.1928 32.6426C68.5295 32.6426 67.9378 32.4768 67.4179 32.1451C66.9069 31.8044 66.4946 31.3697 66.1808 30.8408C65.876 30.3119 65.6205 29.6889 65.4144 28.9717C65.2171 28.2456 65.0782 27.533 64.9975 26.8337C64.9258 26.1345 64.8899 25.4084 64.8899 24.6554V22.0334C64.8899 21.2535 64.9258 20.5408 64.9975 19.8954C65.0692 19.2499 65.1992 18.6135 65.3875 17.986C65.5757 17.3585 65.8222 16.8296 66.127 16.3993C66.4408 15.96 66.8531 15.6104 67.3641 15.3505C67.8751 15.0815 68.4667 14.9471 69.139 14.9471C69.5245 14.9471 69.8831 15.0009 70.2147 15.1084C70.5554 15.207 70.8781 15.3684 71.1829 15.5925C71.4966 15.8166 71.7387 16.0138 71.909 16.1842C72.0883 16.3455 72.3303 16.5875 72.6351 16.9103V15.1891H76.0774V37.564H72.6351Z" fill="#18181B"/>
<path d="M81.2946 32.6426C80.5416 32.6426 79.9365 32.3782 79.4793 31.8493C79.0222 31.3114 78.7936 30.648 78.7936 29.8592V15.1891H82.2359V28.8104C82.2359 29.1689 82.3434 29.4603 82.5586 29.6844C82.7827 29.9085 83.0695 30.0205 83.4191 30.0205C83.6074 30.0205 83.7912 29.9981 83.9705 29.9533C84.1497 29.9085 84.3245 29.8323 84.4949 29.7247C84.6741 29.6082 84.8131 29.5185 84.9117 29.4558C85.0103 29.3841 85.1493 29.2675 85.3285 29.1062C85.5168 28.9448 85.6333 28.8462 85.6782 28.8104V15.1891H89.1204V32.4006H85.6782V30.545C85.3375 30.8408 85.0865 31.0559 84.9251 31.1904C84.7728 31.3248 84.5352 31.5086 84.2125 31.7417C83.8898 31.9658 83.6029 32.1316 83.3519 32.2392C83.1099 32.3378 82.8051 32.4275 82.4376 32.5081C82.07 32.5978 81.689 32.6426 81.2946 32.6426Z" fill="#18181B"/>
<path d="M96.8387 29.8188C97.0807 29.8188 97.3138 29.7471 97.5379 29.6037C97.771 29.4603 97.9458 29.3213 98.0623 29.1869C98.1789 29.0524 98.3223 28.8731 98.4926 28.649C98.5195 28.6042 98.5419 28.5728 98.5598 28.5549V23.7948C98.4164 23.8934 98.1789 24.0458 97.8472 24.252C97.5155 24.4582 97.2511 24.6285 97.0538 24.763C96.8566 24.8885 96.6191 25.0678 96.3412 25.3008C96.0633 25.5249 95.8481 25.7446 95.6958 25.9597C95.5434 26.1659 95.4089 26.4214 95.2924 26.7262C95.1758 27.031 95.1176 27.3492 95.1176 27.6809C95.1176 29.1062 95.6913 29.8188 96.8387 29.8188ZM95.1176 32.6426C94.1584 32.6426 93.3426 32.2302 92.6703 31.4055C92.0069 30.5718 91.6753 29.6351 91.6753 28.5952C91.6753 27.7615 91.8142 27.0041 92.0921 26.3228C92.379 25.6415 92.6793 25.0991 92.993 24.6958C93.3068 24.2834 93.8312 23.8621 94.5662 23.4318C95.3013 22.9925 95.8571 22.6922 96.2336 22.5309C96.6101 22.3695 97.2645 22.1051 98.1968 21.7375C98.3581 21.6748 98.4792 21.6255 98.5598 21.5896V20.3525C98.5598 19.483 98.4388 18.8107 98.1968 18.3356C97.9548 17.8515 97.5021 17.6095 96.8387 17.6095C96.2471 17.6095 95.8213 17.8157 95.5613 18.228C95.3103 18.6314 95.1669 19.1917 95.131 19.9088C95.122 20.0074 95.1176 20.1553 95.1176 20.3525H91.6753C91.6932 18.7031 92.1549 17.3898 93.0602 16.4127C93.9656 15.4356 95.2251 14.9471 96.8387 14.9471C98.4433 14.9471 99.7028 15.4446 100.617 16.4396C101.54 17.4257 102.002 18.73 102.002 20.3525V28.0977C102.002 29.8906 102.15 31.3248 102.446 32.4006H99.017L98.5598 29.8188C98.3806 30.1774 98.2326 30.4553 98.1161 30.6525C98.0085 30.8497 97.8472 31.0963 97.632 31.3921C97.4169 31.6789 97.2018 31.903 96.9866 32.0644C96.7715 32.2168 96.5025 32.3513 96.1798 32.4678C95.8571 32.5843 95.503 32.6426 95.1176 32.6426Z" fill="#18181B"/>
<path d="M104.974 32.4006V15.1891H108.416V17.4885C108.766 16.8072 109.272 16.2155 109.936 15.7135C110.608 15.2026 111.352 14.9471 112.168 14.9471C112.195 14.9471 112.378 14.965 112.719 15.0009V18.8062C112.082 18.5552 111.446 18.4297 110.81 18.4297C110.092 18.4297 109.514 18.6449 109.075 19.0751C108.636 19.5054 108.416 20.0747 108.416 20.7828V32.4006H104.974Z" fill="#18181B"/>
<path d="M119.039 32.6426C118.205 32.6426 117.479 32.4992 116.86 32.2123C116.251 31.9255 115.762 31.5534 115.395 31.0963C115.036 30.6301 114.745 30.0385 114.521 29.3213C114.297 28.5952 114.14 27.8736 114.05 27.1565C113.969 26.4303 113.92 25.5877 113.902 24.6285C113.875 23.8755 113.875 23.1225 113.902 22.3695C113.929 21.4731 113.987 20.6797 114.077 19.9895C114.176 19.2903 114.341 18.6135 114.575 17.9591C114.808 17.3047 115.108 16.7668 115.475 16.3455C115.852 15.9242 116.341 15.588 116.941 15.337C117.551 15.0771 118.259 14.9471 119.066 14.9471C119.801 14.9471 120.446 15.0457 121.002 15.2429C121.567 15.4312 122.033 15.7225 122.4 16.1169C122.777 16.5024 123.086 16.9327 123.328 17.4078C123.579 17.8829 123.767 18.4611 123.893 19.1424C124.018 19.8147 124.104 20.478 124.148 21.1324C124.202 21.7868 124.229 22.5398 124.229 23.3914V23.7948H117.345V24.6554C117.345 24.7719 117.345 24.9557 117.345 25.2067C117.327 25.5384 117.322 25.8835 117.331 26.2421C117.349 26.5917 117.367 26.9368 117.385 27.2775C117.403 27.6181 117.452 27.9453 117.533 28.2591C117.613 28.5638 117.712 28.8328 117.829 29.0658C117.945 29.2989 118.106 29.4827 118.313 29.6171C118.528 29.7516 118.779 29.8188 119.066 29.8188C119.424 29.8188 119.72 29.7516 119.953 29.6171C120.186 29.4737 120.357 29.2631 120.464 28.9852C120.581 28.7073 120.661 28.4294 120.706 28.1515C120.751 27.8736 120.778 27.524 120.787 27.1027V26.3766H124.202V27.0623C124.122 28.9 123.669 30.2895 122.844 31.2307C122.019 32.172 120.751 32.6426 119.039 32.6426ZM117.345 22.0737H120.76V21.0383C120.751 20.5811 120.724 20.1822 120.679 19.8416C120.634 19.5009 120.554 19.1603 120.437 18.8197C120.33 18.479 120.159 18.219 119.926 18.0398C119.693 17.8605 119.406 17.7708 119.066 17.7708C118.716 17.7708 118.42 17.865 118.178 18.0532C117.945 18.2415 117.77 18.5149 117.654 18.8734C117.546 19.223 117.47 19.5682 117.425 19.9088C117.38 20.2495 117.353 20.6573 117.345 21.1324V22.0737Z" fill="#18181B"/>
<path d="M133.158 32.6426C130.988 32.6426 129.33 32.0061 128.182 30.7332C127.044 29.4603 126.407 27.7212 126.273 25.516L129.715 24.6554C129.886 28.0977 131.033 29.8188 133.158 29.8188C134.879 29.8188 135.739 28.9583 135.739 27.2371C135.739 26.7262 135.668 26.2555 135.524 25.8253C135.39 25.386 135.179 24.9871 134.892 24.6285C134.605 24.261 134.345 23.9696 134.112 23.7545C133.879 23.5304 133.561 23.257 133.158 22.9343L128.855 19.492C128.066 18.8734 127.434 18.0891 126.959 17.1388C126.493 16.1797 126.26 15.0905 126.26 13.8714C126.26 12.0964 126.811 10.6846 127.913 9.63573C129.016 8.58691 130.477 8.0625 132.297 8.0625C134.251 8.0625 135.802 8.54209 136.949 9.50127C138.106 10.4515 138.818 11.8006 139.087 13.5486C139.114 13.7369 139.146 13.9969 139.182 14.3285L135.739 15.1891C135.73 15.0367 135.708 14.8081 135.672 14.5033C135.52 13.4097 135.175 12.5357 134.637 11.8813C134.108 11.2179 133.328 10.8863 132.297 10.8863C131.472 10.8863 130.836 11.1193 130.388 11.5855C129.939 12.0426 129.715 12.6836 129.715 13.5083C129.715 14.8619 130.289 15.9959 131.436 16.9103L135.739 20.3525C138.034 22.2082 139.182 24.4268 139.182 27.0085C139.182 28.7745 138.635 30.155 137.541 31.15C136.456 32.1451 134.995 32.6426 133.158 32.6426Z" fill="#18181B"/>
<path d="M146.322 32.6426C144.968 32.6426 143.982 32.2975 143.363 31.6072C142.754 30.917 142.44 29.8726 142.422 28.4742V17.7708H140.701V15.1891H142.422V9.16511H145.864V15.1891H148.446V17.7708H145.864V27.8153C145.864 28.5056 145.959 29.0121 146.147 29.3348C146.335 29.6575 146.716 29.8188 147.29 29.8188C147.541 29.8188 147.926 29.774 148.446 29.6844V32.4812C147.586 32.5888 146.877 32.6426 146.322 32.6426Z" fill="#18181B"/>
<path d="M159.66 31.029C158.863 32.1047 157.54 32.6426 155.694 32.6426C153.847 32.6426 152.525 32.1047 151.727 31.029C150.929 29.9533 150.53 28.4025 150.53 26.3766V21.2131C150.53 19.1872 150.929 17.6364 151.727 16.5607C152.525 15.4849 153.847 14.9471 155.694 14.9471C157.54 14.9471 158.863 15.4849 159.66 16.5607C160.458 17.6364 160.857 19.1872 160.857 21.2131V26.3766C160.857 28.4025 160.458 29.9533 159.66 31.029ZM155.048 29.7113C155.237 29.783 155.452 29.8188 155.694 29.8188C155.936 29.8188 156.146 29.783 156.326 29.7113C156.514 29.6396 156.666 29.5544 156.783 29.4558C156.908 29.3482 157.012 29.1958 157.092 28.9986C157.173 28.7924 157.236 28.6131 157.28 28.4608C157.325 28.3084 157.357 28.0887 157.375 27.8019C157.393 27.515 157.401 27.2909 157.401 27.1296C157.41 26.9592 157.415 26.7082 157.415 26.3766V21.2131C157.415 20.8814 157.41 20.6349 157.401 20.4736C157.401 20.3032 157.393 20.0747 157.375 19.7878C157.357 19.5009 157.325 19.2813 157.28 19.1289C157.236 18.9765 157.173 18.8017 157.092 18.6045C157.012 18.3983 156.908 18.2459 156.783 18.1473C156.666 18.0398 156.514 17.9501 156.326 17.8784C156.146 17.8067 155.936 17.7708 155.694 17.7708C155.452 17.7708 155.237 17.8067 155.048 17.8784C154.869 17.9501 154.717 18.0398 154.591 18.1473C154.475 18.2459 154.376 18.3983 154.295 18.6045C154.215 18.8017 154.152 18.9765 154.107 19.1289C154.062 19.2813 154.031 19.5009 154.013 19.7878C153.995 20.0747 153.982 20.3032 153.973 20.4736C153.973 20.6349 153.973 20.8814 153.973 21.2131V26.3766C153.973 26.7082 153.973 26.9592 153.973 27.1296C153.982 27.2909 153.995 27.515 154.013 27.8019C154.031 28.0887 154.062 28.3084 154.107 28.4608C154.152 28.6131 154.215 28.7924 154.295 28.9986C154.376 29.1958 154.475 29.3482 154.591 29.4558C154.717 29.5544 154.869 29.6396 155.048 29.7113Z" fill="#18181B"/>
<path d="M163.681 32.4006V15.1891H167.123V17.0447C167.634 16.5786 168.051 16.2245 168.374 15.9825C168.697 15.7315 169.14 15.4984 169.705 15.2832C170.279 15.0591 170.888 14.9471 171.534 14.9471C172.269 14.9471 172.865 15.216 173.322 15.7539C173.779 16.2917 174.008 16.9506 174.008 17.7305V32.4006H170.566V19.492C170.566 18.8914 170.48 18.4566 170.31 18.1877C170.14 17.9098 169.795 17.7708 169.275 17.7708C168.979 17.7708 168.683 17.8336 168.387 17.9591C168.1 18.0756 167.885 18.1877 167.742 18.2952C167.598 18.3939 167.392 18.5552 167.123 18.7793V32.4006H163.681Z" fill="#18181B"/>
<path d="M181.887 32.6426C181.054 32.6426 180.328 32.4992 179.709 32.2123C179.1 31.9255 178.611 31.5534 178.243 31.0963C177.885 30.6301 177.594 30.0385 177.369 29.3213C177.145 28.5952 176.988 27.8736 176.899 27.1565C176.818 26.4303 176.769 25.5877 176.751 24.6285C176.724 23.8755 176.724 23.1225 176.751 22.3695C176.778 21.4731 176.836 20.6797 176.926 19.9895C177.024 19.2903 177.19 18.6135 177.423 17.9591C177.656 17.3047 177.957 16.7668 178.324 16.3455C178.701 15.9242 179.189 15.588 179.79 15.337C180.399 15.0771 181.108 14.9471 181.914 14.9471C182.649 14.9471 183.295 15.0457 183.851 15.2429C184.415 15.4312 184.882 15.7225 185.249 16.1169C185.626 16.5024 185.935 16.9327 186.177 17.4078C186.428 17.8829 186.616 18.4611 186.742 19.1424C186.867 19.8147 186.952 20.478 186.997 21.1324C187.051 21.7868 187.078 22.5398 187.078 23.3914V23.7948H180.193V24.6554C180.193 24.7719 180.193 24.9557 180.193 25.2067C180.175 25.5384 180.171 25.8835 180.18 26.2421C180.198 26.5917 180.216 26.9368 180.234 27.2775C180.251 27.6181 180.301 27.9453 180.381 28.2591C180.462 28.5638 180.561 28.8328 180.677 29.0658C180.794 29.2989 180.955 29.4827 181.161 29.6171C181.376 29.7516 181.628 29.8188 181.914 29.8188C182.273 29.8188 182.569 29.7516 182.802 29.6171C183.035 29.4737 183.205 29.2631 183.313 28.9852C183.429 28.7073 183.51 28.4294 183.555 28.1515C183.6 27.8736 183.627 27.524 183.635 27.1027V26.3766H187.051V27.0623C186.97 28.9 186.518 30.2895 185.693 31.2307C184.868 32.172 183.6 32.6426 181.887 32.6426ZM180.193 22.0737H183.609V21.0383C183.6 20.5811 183.573 20.1822 183.528 19.8416C183.483 19.5009 183.402 19.1603 183.286 18.8197C183.178 18.479 183.008 18.219 182.775 18.0398C182.542 17.8605 182.255 17.7708 181.914 17.7708C181.565 17.7708 181.269 17.865 181.027 18.0532C180.794 18.2415 180.619 18.5149 180.502 18.8734C180.395 19.223 180.319 19.5682 180.274 19.9088C180.229 20.2495 180.202 20.6573 180.193 21.1324V22.0737Z" fill="#18181B"/>
</svg>
