<svg width="112" height="31" viewBox="0 0 112 31" fill="none" xmlns="http://www.w3.org/2000/svg">
<path d="M46.4238 25.034H46.374C46.3964 25.034 46.4114 25.0589 46.4338 25.0614H46.4487L46.4238 25.0365V25.034ZM46.4338 25.0614C46.2023 25.0639 45.6199 25.1859 45.0051 25.1859C43.0638 25.1859 42.3918 24.2899 42.3918 23.1201V15.3274H46.3491C46.5731 15.3274 46.7474 15.1283 46.7474 14.8545V10.6234C46.7474 10.3994 46.5482 10.2003 46.3491 10.2003H42.3918V4.94871C42.3918 4.7496 42.2674 4.62515 42.0434 4.62515H36.6674C36.4434 4.62515 36.3189 4.7496 36.3189 4.94871V10.3496C36.3189 10.3496 33.606 11.0216 33.4318 11.0465C33.2327 11.0963 33.1082 11.2705 33.1082 11.4696V14.8545C33.1082 15.1283 33.3074 15.3274 33.5314 15.3274H36.294V23.4909C36.294 29.5638 40.5251 30.186 43.4122 30.186C44.7314 30.186 46.3242 29.7629 46.5731 29.6385C46.7225 29.5887 46.7971 29.4145 46.7971 29.2403V25.5069C46.8006 25.401 46.7657 25.2975 46.699 25.2152C46.6322 25.1329 46.5381 25.0774 46.4338 25.0589V25.0614ZM105.41 19.5834C105.41 15.0785 103.594 14.4812 101.677 14.6803C100.184 14.7798 98.9891 15.5265 98.9891 15.5265V24.2874C98.9891 24.2874 100.209 25.1336 102.026 25.1834C104.589 25.258 105.41 24.3372 105.41 19.5834ZM111.458 19.1852C111.458 27.722 108.696 30.1612 103.867 30.1612C99.7856 30.1612 97.5954 28.0954 97.5954 28.0954C97.5954 28.0954 97.4958 29.2403 97.3714 29.3896C97.2967 29.5389 97.1722 29.5887 97.0229 29.5887H93.3394C93.0905 29.5887 92.8665 29.3896 92.8665 29.1656L92.9162 1.51404C92.9162 1.29004 93.1154 1.09093 93.3394 1.09093H98.6407C98.8647 1.09093 99.0638 1.29004 99.0638 1.51404V10.8972C99.0638 10.8972 101.105 9.57804 104.091 9.57804L104.066 9.52826C107.053 9.52826 111.458 10.6483 111.458 19.1852ZM89.7554 10.2003H84.5287C84.2549 10.2003 84.1056 10.3994 84.1056 10.6732V24.2127C84.1056 24.2127 82.7367 25.1834 80.87 25.1834C79.0034 25.1834 78.4558 24.3372 78.4558 22.4705V10.6483C78.4558 10.4243 78.2567 10.2252 78.0327 10.2252H72.7065C72.4825 10.2252 72.2834 10.4243 72.2834 10.6483V23.3665C72.2834 28.842 75.3447 30.2109 79.5509 30.2109C83.0105 30.2109 85.8229 28.2945 85.8229 28.2945C85.8229 28.2945 85.9474 29.2652 86.022 29.4145C86.0718 29.5389 86.246 29.6385 86.4202 29.6385H89.7554C90.0291 29.6385 90.1785 29.4394 90.1785 29.2154L90.2282 10.6234C90.2282 10.3994 90.0291 10.2003 89.7554 10.2003ZM30.7687 10.1754H25.4674C25.2434 10.1754 25.0442 10.3994 25.0442 10.6732V28.9416C25.0442 29.4394 25.3678 29.6136 25.7909 29.6136H30.5696C31.0674 29.6136 31.1918 29.3896 31.1918 28.9416V10.5985C31.1918 10.3745 30.9927 10.1754 30.7687 10.1754ZM28.1554 1.76293C26.2389 1.76293 24.7207 3.28115 24.7207 5.1976C24.7207 7.11404 26.2389 8.63226 28.1554 8.63226C30.022 8.63226 31.5402 7.11404 31.5402 5.1976C31.5402 3.28115 30.022 1.76293 28.1554 1.76293ZM69.1971 1.14071H63.9456C63.7216 1.14071 63.5225 1.33982 63.5225 1.56382V11.7434H55.2842V1.56382C55.2842 1.33982 55.0851 1.14071 54.8611 1.14071H49.5598C49.3358 1.14071 49.1367 1.33982 49.1367 1.56382V29.2154C49.1367 29.4394 49.3607 29.6385 49.5598 29.6385H54.8611C55.0851 29.6385 55.2842 29.4394 55.2842 29.2154V17.3932H63.5225L63.4727 29.2154C63.4727 29.4394 63.6718 29.6385 63.8958 29.6385H69.1971C69.4211 29.6385 69.6202 29.4394 69.6202 29.2154V1.56382C69.6202 1.33982 69.4211 1.14071 69.1971 1.14071ZM22.2318 13.386V27.6723C22.2318 27.7718 22.2069 27.946 22.0825 27.9958C22.0825 27.9958 18.9714 30.2109 13.8442 30.2109C7.64691 30.2109 0.304688 28.2696 0.304688 15.4767C0.304688 2.68382 6.72602 0.0455973 12.998 0.0704862C18.4238 0.0704862 20.614 1.29004 20.9625 1.51404C21.062 1.63849 21.1118 1.73804 21.1118 1.86249L20.0665 6.29271C20.0665 6.51671 19.8425 6.79049 19.5687 6.71582C18.6727 6.44204 17.3287 5.89449 14.1678 5.89449C10.5091 5.89449 6.57669 6.93982 6.57669 15.178C6.57669 23.4163 10.31 24.3869 12.998 24.3869C15.2878 24.3869 16.1091 24.1132 16.1091 24.1132V18.3887H12.4505C12.1767 18.3887 11.9776 18.1896 11.9776 17.9656V13.386C11.9776 13.162 12.1767 12.9629 12.4505 12.9629H21.7589C22.0327 12.9629 22.2318 13.162 22.2318 13.386Z" fill="#24292E"/>
</svg>
