<svg width="346" height="82" viewBox="0 0 346 82" fill="none" xmlns="http://www.w3.org/2000/svg">
<path d="M105.6 60.2C104.4 59.7 103.5 58.7 103.5 57.3C103.5 55.6 104.9 54.3 106.5 54.3C107 54.3 107.4 54.4 107.7 54.6C109.8 55.6 112.1 56.2 114.9 56.2C120 56.2 122.4 53.7 122.4 49.1V47.9C120.2 50.5 117.8 52.1 113.9 52.1C107.8 52.1 102.3 47.7 102.3 39.9V39.8C102.3 32 107.9 27.6 113.9 27.6C118 27.6 120.3 29.3 122.4 31.5V31.3C122.4 29.3 124.1 27.6 126.1 27.6C128.1 27.6 129.8 29.3 129.8 31.3V48.1C129.8 52.8 128.7 56.2 126.5 58.4C124 60.9 120.3 61.9 115.2 61.9C111.7 62.1 108.7 61.4 105.6 60.2ZM122.4 39.8C122.4 36.2 119.6 33.6 116 33.6C112.4 33.6 109.7 36.1 109.7 39.7V39.8C109.7 43.4 112.4 45.9 116 45.9C119.6 45.8 122.4 43.3 122.4 39.8ZM133.9 31.4C133.9 29.4 135.6 27.7 137.6 27.7C139.6 27.7 141.3 29.4 141.3 31.4V32.5C142.4 29.9 144.1 27.7 146.3 27.7C148.6 27.7 149.9 29.2 149.9 31.3C149.9 33.2 148.7 34.4 147.1 34.7C143.3 35.6 141.3 38.5 141.3 43.7V50.7C141.3 52.7 139.6 54.4 137.6 54.4C135.6 54.4 133.9 52.7 133.9 50.7V31.4ZM149.1 46.5C149.1 40.7 153.4 38 159.7 38C162.3 38 164.3 38.4 166.1 39.1V38.7C166.1 35.6 164.2 33.9 160.5 33.9C158.5 33.9 156.8 34.2 155.4 34.6C155 34.8 154.7 34.8 154.3 34.8C152.6 34.8 151.2 33.5 151.2 31.8C151.2 30.5 152 29.3 153.2 28.9C155.6 28 158 27.5 161.6 27.5C165.7 27.5 168.6 28.6 170.4 30.4C172.3 32.3 173.2 35.2 173.2 38.8V50.7C173.2 52.7 171.6 54.2 169.6 54.2C167.5 54.2 166.1 52.7 166.1 51.1V51C164.3 53 161.8 54.3 158.2 54.3C153.2 54.6 149.1 51.7 149.1 46.5ZM166.1 44.9V43.6C164.9 43 163.2 42.6 161.3 42.6C158.1 42.6 156.2 43.8 156.2 46.2V46.3C156.2 48.3 157.9 49.5 160.3 49.5C163.8 49.5 166.1 47.6 166.1 44.9ZM177.1 31.4C177.1 29.4 178.8 27.7 180.8 27.7C182.8 27.7 184.5 29.4 184.5 31.4V31.7C186.2 29.5 188.5 27.5 192.3 27.5C195.7 27.5 198.3 29 199.7 31.6C202 29 204.7 27.5 208.2 27.5C213.7 27.5 217 30.8 217 37.1V50.8C217 52.8 215.3 54.5 213.3 54.5C211.3 54.5 209.6 52.8 209.6 50.8V39.6C209.6 36.1 208 34.3 205.3 34.3C202.5 34.3 200.8 36.1 200.8 39.6V50.8C200.8 52.8 199.1 54.5 197.1 54.5C195.1 54.5 193.4 52.8 193.4 50.8V39.6C193.4 36.1 191.8 34.3 189.1 34.3C186.3 34.3 184.6 36.1 184.6 39.6V50.8C184.6 52.8 182.9 54.5 180.9 54.5C178.9 54.5 177.2 52.8 177.2 50.8L177.1 31.4ZM221 31.4C221 29.4 222.7 27.7 224.7 27.7C226.7 27.7 228.4 29.4 228.4 31.4V31.7C230.1 29.5 232.4 27.5 236.2 27.5C239.6 27.5 242.2 29 243.6 31.6C245.9 29 248.6 27.5 252.1 27.5C257.6 27.5 260.9 30.8 260.9 37.1V50.8C260.9 52.8 259.2 54.5 257.2 54.5C255.2 54.5 253.5 52.8 253.5 50.8V39.6C253.5 36.1 251.9 34.3 249.2 34.3C246.4 34.3 244.7 36.1 244.7 39.6V50.8C244.7 52.8 243 54.5 241 54.5C239 54.5 237.3 52.8 237.3 50.8V39.6C237.3 36.1 235.7 34.3 233 34.3C230.2 34.3 228.5 36.1 228.5 39.6V50.8C228.5 52.8 226.8 54.5 224.8 54.5C222.8 54.5 221.1 52.8 221.1 50.8L221 31.4ZM263.4 46.5C263.4 40.7 267.7 38 274 38C276.6 38 278.6 38.4 280.4 39.1V38.7C280.4 35.6 278.5 33.9 274.8 33.9C272.8 33.9 271.1 34.2 269.7 34.6C269.3 34.8 269 34.8 268.6 34.8C266.9 34.8 265.5 33.5 265.5 31.8C265.5 30.5 266.3 29.3 267.5 28.9C269.9 28 272.3 27.5 275.9 27.5C280 27.5 282.9 28.6 284.7 30.4C286.6 32.3 287.5 35.2 287.5 38.8V50.7C287.5 52.7 285.9 54.2 283.9 54.2C281.8 54.2 280.4 52.7 280.4 51.1V51C278.6 53 276.1 54.3 272.5 54.3C267.4 54.6 263.4 51.7 263.4 46.5ZM280.4 44.9V43.6C279.2 43 277.5 42.6 275.6 42.6C272.4 42.6 270.5 43.8 270.5 46.2V46.3C270.5 48.3 272.2 49.5 274.6 49.5C278.1 49.5 280.4 47.6 280.4 44.9ZM291.4 31.4C291.4 29.4 293.1 27.7 295.1 27.7C297.1 27.7 298.8 29.4 298.8 31.4V32.5C299.9 29.9 301.6 27.7 303.8 27.7C306.1 27.7 307.4 29.2 307.4 31.3C307.4 33.2 306.2 34.4 304.6 34.7C300.8 35.6 298.8 38.5 298.8 43.7V50.7C298.8 52.7 297.1 54.4 295.1 54.4C293.1 54.4 291.4 52.7 291.4 50.7V31.4ZM309.7 21.9C309.7 19.9 311.4 18.2 313.4 18.2C315.4 18.2 317.1 19.9 317.1 21.9V50.7C317.1 52.7 315.4 54.4 313.4 54.4C311.4 54.4 309.7 52.7 309.7 50.7V21.9ZM323 61.3C321.9 60.9 320.6 60.1 320.6 58.2C320.6 56.4 322 55.2 323.5 55.2C324.1 55.2 324.5 55.3 324.7 55.4C325.3 55.6 325.8 55.7 326.3 55.7C327.6 55.7 328.2 55.4 328.9 54.1L329.2 53.5L320.3 32.8C320.1 32.3 319.9 31.6 319.9 31.1C319.9 29 321.5 27.6 323.6 27.6C325.4 27.6 326.5 28.7 327.1 30.4L332.7 45.6L338.2 30.4C338.8 28.8 339.9 27.6 341.7 27.6C343.6 27.6 345.2 29.1 345.2 31C345.2 31.6 345 32.4 344.8 32.8L335.6 54.7C333.4 60 331.2 62 326.8 62C325.4 62.1 324.3 61.8 323 61.3Z" fill="#4C4C4C"/>
<path d="M41.2 81.5C63.5675 81.5 81.7 63.3675 81.7 41C81.7 18.6325 63.5675 0.5 41.2 0.5C18.8325 0.5 0.699997 18.6325 0.699997 41C0.699997 63.3675 18.8325 81.5 41.2 81.5Z" fill="#2BB673"/>
<path d="M49.2 46.5C47.5 46.5 46.2 48 46.5 49.8C46.8 51.1 48 52 49.3 52H53.5L56 51.6C52 57.4 45.3 60.1 37.8 58.8C31.7 57.8 26.5 53.7 24.3 48C19.3 35 28.8 22.5 41.2 22.5C47.6 22.5 53.4 26.3 56.6 30.9V31C57.5 32.2 59.2 32.6 60.4 31.7C61.5 30.9 61.9 29.3 61.2 28.1C56.7 21.1 48.6 16.6 39.5 17.2C27.7 18.2 18.1 27.9 17.4 39.8C16.6 53.6 27.5 64.8 41.2 64.8C48.3 64.8 54.8 61.7 59.1 56.6L58.6 59.5V62.1C58.6 63.4 59.5 64.7 60.8 64.9C62.6 65.3 64.1 63.8 64.1 62.2V46.6H49.2V46.5Z" fill="white"/>
</svg>
