<svg width="388" height="78" viewBox="0 0 388 78" fill="none" xmlns="http://www.w3.org/2000/svg">
<path d="M13 51.4C13 55.9 14 59.3 15.3 61.4C17 64.1 19.5 65.3 22.1 65.3C25.4 65.3 28.4 64.5 34.3 56.4C39 49.9 44.5 40.9 48.2 35.2L54.5 25.6C58.9 18.9 63.9 11.5 69.7 6.4C74.4 2.3 79.5 0 84.6 0C93.2 0 101.4 5 107.7 14.3C114.6 24.5 117.9 37.5 117.9 50.8C117.9 58.7 116.3 64.5 113.7 69.1C111.1 73.5 106.1 78 97.7 78V65.3C104.9 65.3 106.7 58.7 106.7 51.1C106.7 40.3 104.2 28.3 98.6 19.8C94.7 13.7 89.6 10 84 10C77.9 10 73 14.6 67.6 22.7C64.7 27 61.7 32.3 58.3 38.3L54.6 44.9C47.2 58.1 45.3 61.1 41.6 66C35.1 74.7 29.5 78 22.2 78C13.5 78 8 74.2 4.6 68.6C1.7 64 0.300003 57.9 0.300003 51L13 51.4Z" fill="#0081FB"/>
<path d="M10.3 15.2C16.1 6.2 24.5 0 34.1 0C39.7 0 45.2 1.7 51 6.4C57.3 11.6 64.1 20.1 72.5 34.1L75.5 39.1C82.8 51.2 86.9 57.5 89.4 60.4C92.5 64.2 94.7 65.3 97.5 65.3C104.7 65.3 106.5 58.7 106.5 51.1L117.7 50.7C117.7 58.6 116.1 64.4 113.5 69C110.9 73.4 105.9 77.9 97.5 77.9C92.3 77.9 87.6 76.8 82.5 71.9C78.6 68.2 74 61.6 70.4 55.7L60 38.2C54.7 29.4 49.9 22.8 47.1 19.8C44.1 16.6 40.2 12.7 34 12.7C29 12.7 24.7 16.2 21.2 21.6L10.3 15.2Z" fill="url(#paint0_linear_0_1)"/>
<path d="M34 12.7C29 12.7 24.7 16.2 21.2 21.6C16.2 29.2 13.1 40.5 13.1 51.4C13.1 55.9 14.1 59.3 15.4 61.4L4.6 68.5C1.7 64 0.300003 57.9 0.300003 51C0.300003 38.4 3.7 25.3 10.3 15.2C16.1 6.2 24.5 0 34.1 0L34 12.7Z" fill="url(#paint1_linear_0_1)"/>
<path d="M142.5 2.39999H157.2L182.2 47.6L207.2 2.39999H221.6V76.6H209.6V19.7L187.7 59.1H176.5L154.6 19.7V76.6H142.6V2.39999H142.5ZM259 30.1C250.4 30.1 245.2 36.6 244 44.6H273.2C272.5 36.3 267.8 30.1 259 30.1ZM232.1 49.1C232.1 32.3 243 20 259.2 20C275.1 20 284.6 32.1 284.6 50V53.3H244C245.4 62 251.2 67.9 260.5 67.9C267.9 67.9 272.6 65.6 277 61.5L283.4 69.3C277.4 74.8 269.8 78 260.1 78C242.6 78 232.1 65.2 232.1 49.1ZM299.2 31.2H288.2V21.4H299.2V5.19999H310.8V21.4H327.5V31.2H310.8V56C310.8 64.5 313.5 67.5 320.2 67.5C323.2 67.5 325 67.2 327.6 66.8V76.5C324.4 77.4 321.3 77.8 318 77.8C305.5 77.8 299.3 71 299.3 57.3L299.2 31.2ZM376.1 40.7C373.8 34.8 368.6 30.5 361 30.5C351.1 30.5 344.8 37.5 344.8 48.9C344.8 60 350.6 67.4 360.5 67.4C368.3 67.4 373.9 62.9 376.1 57.2V40.7ZM387.7 76.6H376.4V68.9C373.2 73.5 367.5 78 358.1 78C343.1 78 333 65.4 333 49C333 32.4 343.3 20.1 358.7 20.1C366.3 20.1 372.3 23.1 376.3 28.5V21.4H387.6V76.6H387.7Z" fill="#192830"/>
<defs>
<linearGradient id="paint0_linear_0_1" x1="25.7909" y1="36.9777" x2="106.695" y2="41.0638" gradientUnits="userSpaceOnUse">
<stop stop-color="#0064E1"/>
<stop offset="0.4" stop-color="#0064E1"/>
<stop offset="0.83" stop-color="#0073EE"/>
<stop offset="1" stop-color="#0082FB"/>
</linearGradient>
<linearGradient id="paint1_linear_0_1" x1="17.2466" y1="56.7744" x2="17.2466" y2="26.9461" gradientUnits="userSpaceOnUse">
<stop stop-color="#0082FB"/>
<stop offset="1" stop-color="#0064E0"/>
</linearGradient>
</defs>
</svg>
