<svg width="188" height="40" viewBox="0 0 188 40" fill="none" xmlns="http://www.w3.org/2000/svg">
<g clip-path="url(#clip0_2247_310519)">
<path d="M66.6869 23.0406L65.5693 26.2034H65.4762C65.2899 25.4902 64.9485 24.4049 64.3897 23.1026L58.3984 8.06383H52.5312V32.0328H56.4116V17.2421C56.4116 16.3119 56.4116 15.2576 56.3806 13.9553C56.3495 13.3041 56.2875 12.808 56.2564 12.4359H56.3495C56.5358 13.3662 56.7531 14.0483 56.9083 14.4824L64.1103 31.9708H66.8421L73.982 14.3274C74.1372 13.9243 74.2924 13.1181 74.4476 12.4359H74.5408C74.4476 14.2034 74.3855 15.7848 74.3545 16.746V31.9398H78.4832V8.00182H72.8334L66.6869 23.0406ZM82.3947 14.7615H86.4302V31.9398H82.3947V14.7615ZM84.4435 7.50569C83.7605 7.50569 83.2018 7.75375 82.7361 8.18786C82.2705 8.62197 82.0221 9.18011 82.0221 9.86228C82.0221 10.5134 82.2705 11.0716 82.7361 11.5057C83.2018 11.9398 83.7605 12.1569 84.4435 12.1569C85.1264 12.1569 85.7163 11.9088 86.1509 11.5057C86.6165 11.0716 86.8649 10.5134 86.8649 9.86228C86.8649 9.21112 86.6165 8.65298 86.1509 8.18786C85.7473 7.75375 85.1575 7.50569 84.4435 7.50569ZM100.741 14.6065C99.9961 14.4514 99.22 14.3584 98.475 14.3584C96.6434 14.3584 94.9671 14.7615 93.5701 15.5677C92.1732 16.3739 91.0557 17.4902 90.3417 18.8855C89.5966 20.3119 89.2241 21.9553 89.2241 23.8468C89.2241 25.4902 89.5966 26.9476 90.3106 28.2809C91.0246 29.5832 92.018 30.6375 93.3529 31.3507C94.6256 32.0638 96.1157 32.4359 97.792 32.4359C99.7167 32.4359 101.362 32.0328 102.666 31.2886L102.697 31.2576V27.5367L102.542 27.6607C101.952 28.0948 101.269 28.4669 100.586 28.684C99.8719 28.9321 99.22 29.0561 98.6612 29.0561C97.047 29.0561 95.7742 28.591 94.874 27.5677C93.9427 26.5755 93.477 25.2111 93.477 23.5057C93.477 21.7383 93.9427 20.3429 94.905 19.3196C95.8673 18.2964 97.1401 17.7693 98.6922 17.7693C99.9961 17.7693 101.331 18.2034 102.542 19.0716L102.697 19.1956V15.2576L102.666 15.2266C102.138 15.0096 101.548 14.7615 100.741 14.6065ZM114.059 14.4824C113.065 14.4824 112.134 14.7925 111.327 15.4437C110.644 16.0018 110.178 16.808 109.775 17.7693H109.744V14.7615H105.708V31.9398H109.744V23.1646C109.744 21.6762 110.054 20.4359 110.737 19.5367C111.42 18.6065 112.289 18.1414 113.345 18.1414C113.717 18.1414 114.09 18.2344 114.555 18.2964C114.99 18.4204 115.3 18.5445 115.518 18.6995L115.673 18.8235V14.7925L115.58 14.7615C115.3 14.5755 114.742 14.4824 114.059 14.4824ZM125.048 14.3894C122.223 14.3894 119.957 15.2266 118.374 16.87C116.759 18.5134 115.983 20.777 115.983 23.6297C115.983 26.2964 116.79 28.4669 118.343 30.0483C119.895 31.5987 122.006 32.4049 124.644 32.4049C127.407 32.4049 129.611 31.5677 131.194 29.8933C132.809 28.2189 133.585 25.9863 133.585 23.2266C133.585 20.4979 132.84 18.3274 131.318 16.746C129.859 15.1646 127.718 14.3894 125.048 14.3894ZM128.276 27.5987C127.531 28.56 126.352 29.0251 124.893 29.0251C123.434 29.0251 122.254 28.56 121.416 27.5367C120.578 26.5755 120.174 25.1801 120.174 23.4127C120.174 21.5832 120.609 20.1879 121.416 19.1956C122.254 18.2034 123.403 17.7072 124.862 17.7072C126.29 17.7072 127.407 18.1724 128.214 19.1336C129.021 20.0948 129.456 21.4902 129.456 23.3196C129.394 25.1801 129.052 26.6375 128.276 27.5987ZM142.587 21.8933C141.314 21.3662 140.507 20.9631 140.135 20.622C139.824 20.3119 139.669 19.8778 139.669 19.3196C139.669 18.8545 139.855 18.3894 140.321 18.0793C140.787 17.7693 141.314 17.6142 142.09 17.6142C142.773 17.6142 143.487 17.7382 144.17 17.9243C144.853 18.1103 145.474 18.3894 145.971 18.7615L146.126 18.8855V15.1026L146.033 15.0716C145.567 14.8855 144.946 14.6995 144.201 14.5445C143.456 14.4204 142.773 14.3584 142.215 14.3584C140.29 14.3584 138.707 14.8235 137.465 15.8468C136.223 16.808 135.633 18.1103 135.633 19.6297C135.633 20.4359 135.758 21.1491 136.037 21.7383C136.316 22.3274 136.72 22.8855 137.279 23.3507C137.838 23.7848 138.645 24.2809 139.762 24.746C140.693 25.1491 141.407 25.4592 141.842 25.7072C142.277 25.9553 142.556 26.2344 142.773 26.4514C142.929 26.6995 143.022 27.0096 143.022 27.4127C143.022 28.56 142.153 29.1181 140.383 29.1181C139.7 29.1181 138.986 28.9941 138.148 28.715C137.31 28.4359 136.534 28.0328 135.882 27.5677L135.727 27.4437V31.3817L135.82 31.4127C136.41 31.6917 137.124 31.8778 137.993 32.0948C138.862 32.2499 139.638 32.3739 140.321 32.3739C142.401 32.3739 144.108 31.9088 145.319 30.8855C146.561 29.8933 147.213 28.622 147.213 26.9786C147.213 25.8313 146.902 24.808 146.219 24.0328C145.319 23.2886 144.201 22.5134 142.587 21.8933ZM157.86 14.3894C155.035 14.3894 152.769 15.2266 151.186 16.87C149.603 18.5134 148.796 20.777 148.796 23.6297C148.796 26.2964 149.603 28.4669 151.155 30.0483C152.707 31.5987 154.818 32.4049 157.457 32.4049C160.22 32.4049 162.424 31.5677 164.007 29.8933C165.621 28.2189 166.397 25.9863 166.397 23.2266C166.397 20.4979 165.652 18.3274 164.131 16.746C162.672 15.1646 160.53 14.3894 157.86 14.3894ZM161.058 27.5987C160.313 28.56 159.133 29.0251 157.674 29.0251C156.184 29.0251 155.035 28.56 154.197 27.5367C153.359 26.5755 152.955 25.1801 152.955 23.4127C152.955 21.5832 153.39 20.1879 154.197 19.1956C155.035 18.2034 156.184 17.7072 157.643 17.7072C159.04 17.7072 160.189 18.1724 160.996 19.1336C161.803 20.0948 162.237 21.4902 162.237 23.3196C162.237 25.1801 161.834 26.6375 161.058 27.5987ZM187.972 18.0793V14.7615H183.905V9.67624L183.781 9.70724L179.932 10.8545L179.839 10.8855V14.7615H173.754V12.591C173.754 11.5987 174.003 10.8235 174.437 10.3274C174.872 9.83127 175.524 9.58321 176.331 9.58321C176.89 9.58321 177.479 9.70724 178.131 9.98631L178.287 10.0793V6.57546L178.193 6.54445C177.635 6.35841 176.89 6.23438 175.927 6.23438C174.717 6.23438 173.661 6.51344 172.699 6.97856C171.737 7.50569 171.023 8.21887 170.495 9.18011C169.967 10.1103 169.688 11.1646 169.688 12.3739V14.7615H166.863V18.0483H169.688V31.9398H173.754V18.0793H179.839V26.9165C179.839 30.5445 181.546 32.3739 184.961 32.3739C185.52 32.3739 186.109 32.2809 186.668 32.1879C187.258 32.0638 187.693 31.9088 187.941 31.7848L187.972 31.7538V28.4359L187.817 28.56C187.568 28.715 187.351 28.839 186.979 28.9321C186.668 29.0251 186.389 29.0561 186.172 29.0561C185.364 29.0561 184.806 28.87 184.402 28.4049C184.03 27.9708 183.843 27.2576 183.843 26.2034V18.0793H187.972Z" fill="#737373"/>
<path d="M0.5 0H19.5294V19.0078H0.5V0Z" fill="#F25022"/>
<path d="M21.5156 0H40.545V19.0078H21.5156V0Z" fill="#7FBA00"/>
<path d="M0.5 20.9922H19.5294V39.9999H0.5V20.9922Z" fill="#00A4EF"/>
<path d="M21.5156 20.9922H40.545V39.9999H21.5156V20.9922Z" fill="#FFB900"/>
</g>
<defs>
<clipPath id="clip0_2247_310519">
<rect width="187.5" height="40" fill="white" transform="translate(0.5)"/>
</clipPath>
</defs>
</svg>
