<svg width="101" height="113" viewBox="0 0 101 113" fill="none" xmlns="http://www.w3.org/2000/svg">
<path d="M4.69113 88.1253L45.4674 111.662C48.3683 113.34 51.9488 113.34 54.8497 111.662L95.6328 88.1253C98.5335 86.4464 100.324 83.3505 100.324 79.9991V32.9211C100.324 29.5701 98.5335 26.4737 95.6328 24.7949L54.8497 1.2591C51.9488 -0.4197 48.3683 -0.4197 45.4674 1.2591L4.69113 24.7949C1.79021 26.4737 0 29.5701 0 32.9211V79.9991C0 83.3505 1.79021 86.4464 4.69113 88.1253ZM21.8223 26.219L47.7803 11.2339C49.2504 10.3847 51.0667 10.3847 52.5368 11.2339L78.4948 26.219C81.6636 28.048 81.6636 32.6206 78.4948 34.4496L52.8373 49.2518C51.1778 50.2121 49.1393 50.2121 47.4797 49.2518L21.8288 34.4496C18.66 32.6206 18.66 28.048 21.8223 26.219ZM16.2818 43.5426C17.3598 43.5426 18.464 43.8235 19.5094 44.4244L47.4797 60.5658C49.1393 61.526 51.1778 61.526 52.8373 60.5658L80.8142 44.4244C85.1329 41.9291 90.5229 45.045 90.5229 50.0226C90.5229 51.1788 90.2162 52.2893 89.6545 53.2561C89.0986 54.2229 88.2884 55.046 87.2888 55.6273L52.8373 75.5114C51.1778 76.4652 49.1393 76.4652 47.4797 75.5114L13.0346 55.6273C11.0352 54.4711 9.80042 52.3351 9.80042 50.0292C9.80042 46.2535 12.8973 43.5426 16.2818 43.5426ZM16.1707 69.7175C17.2291 69.7175 18.3137 69.9919 19.3395 70.5801L47.4797 86.8254C49.1393 87.7792 51.1778 87.7792 52.8373 86.8254L80.9841 70.5801C85.2242 68.1367 90.5229 71.1935 90.5229 76.0862C90.5229 77.2232 90.2162 78.3139 89.6672 79.2678C89.1182 80.2146 88.3214 81.0245 87.3414 81.593L52.8373 101.51C51.1778 102.471 49.1393 102.471 47.4797 101.51L12.9823 81.593C11.0091 80.4567 9.80042 78.3595 9.80042 76.0862C9.80042 72.3762 12.8516 69.7175 16.1707 69.7175Z" fill="#7266FC"/>
</svg>
