<svg width="490" height="113" viewBox="0 0 490 113" fill="none" xmlns="http://www.w3.org/2000/svg">
<g clip-path="url(#clip0_4263_260747)">
<path d="M4.69113 88.1253L45.4674 111.662C48.3683 113.34 51.9488 113.34 54.8497 111.662L95.6328 88.1253C98.5335 86.4464 100.324 83.3505 100.324 79.9991V32.9211C100.324 29.5701 98.5335 26.4737 95.6328 24.7949L54.8497 1.2591C51.9488 -0.4197 48.3683 -0.4197 45.4674 1.2591L4.69113 24.7949C1.79021 26.4737 0 29.5701 0 32.9211V79.9991C0 83.3505 1.79021 86.4464 4.69113 88.1253ZM21.8223 26.219L47.7803 11.2339C49.2504 10.3847 51.0667 10.3847 52.5368 11.2339L78.4948 26.219C81.6636 28.048 81.6636 32.6206 78.4948 34.4496L52.8373 49.2518C51.1778 50.2121 49.1393 50.2121 47.4797 49.2518L21.8288 34.4496C18.66 32.6206 18.66 28.048 21.8223 26.219ZM16.2818 43.5426C17.3598 43.5426 18.464 43.8235 19.5094 44.4244L47.4797 60.5658C49.1393 61.526 51.1778 61.526 52.8373 60.5658L80.8142 44.4244C85.1329 41.9291 90.5229 45.045 90.5229 50.0226C90.5229 51.1788 90.2162 52.2893 89.6545 53.2561C89.0986 54.2229 88.2884 55.046 87.2888 55.6273L52.8373 75.5114C51.1778 76.4652 49.1393 76.4652 47.4797 75.5114L13.0346 55.6273C11.0352 54.4711 9.80042 52.3351 9.80042 50.0292C9.80042 46.2535 12.8973 43.5426 16.2818 43.5426ZM16.1707 69.7175C17.2291 69.7175 18.3137 69.9919 19.3395 70.5801L47.4797 86.8254C49.1393 87.7792 51.1778 87.7792 52.8373 86.8254L80.9841 70.5801C85.2242 68.1367 90.5229 71.1935 90.5229 76.0862C90.5229 77.2232 90.2162 78.3139 89.6672 79.2678C89.1182 80.2146 88.3214 81.0245 87.3414 81.593L52.8373 101.51C51.1778 102.471 49.1393 102.471 47.4797 101.51L12.9823 81.593C11.0091 80.4567 9.80042 78.3595 9.80042 76.0862C9.80042 72.3762 12.8516 69.7175 16.1707 69.7175Z" fill="#7266FC"/>
<path d="M138.056 84.037C135.533 84.037 133.473 83.2643 131.877 81.7195C130.332 80.1234 129.559 78.0122 129.559 75.3865V53.7607H119.98V45.7282H129.559V33.834H139.293V45.7282H149.799V53.7607H139.293V73.6873C139.293 75.2321 140.014 76.0042 141.455 76.0042H148.871V84.037H138.056Z" fill="#252C48"/>
<path d="M156.459 84.0374V29.9727H166.193V50.4399H167.583C167.996 49.6161 168.639 48.7923 169.515 47.9684C170.391 47.1446 171.549 46.4752 172.991 45.9603C174.485 45.3939 176.365 45.1107 178.63 45.1107C181.617 45.1107 184.218 45.8059 186.433 47.196C188.699 48.5348 190.45 50.4142 191.686 52.8342C192.922 55.2027 193.54 57.9833 193.54 61.1756V84.0374H183.806V61.9479C183.806 59.0645 183.085 56.902 181.643 55.4602C180.253 54.0185 178.244 53.2976 175.618 53.2976C172.631 53.2976 170.314 54.3017 168.665 56.3098C167.017 58.2665 166.193 61.0211 166.193 64.574V84.0374H156.459Z" fill="#252C48"/>
<path d="M219.371 85.1194C215.56 85.1194 212.187 84.3214 209.251 82.7254C206.367 81.0774 204.101 78.7865 202.454 75.8513C200.857 72.8649 200.058 69.3636 200.058 65.3474V64.4206C200.058 60.4044 200.857 56.9288 202.454 53.9939C204.05 51.0075 206.29 48.7162 209.174 47.12C212.058 45.4723 215.406 44.6484 219.217 44.6484C222.976 44.6484 226.247 45.498 229.027 47.1972C231.809 48.8449 233.972 51.1619 235.517 54.1484C237.062 57.0833 237.834 60.5074 237.834 64.4206V67.7417H209.947C210.05 70.3677 211.028 72.5048 212.882 74.1521C214.736 75.8001 217.002 76.6241 219.68 76.6241C222.41 76.6241 224.419 76.0317 225.706 74.8477C226.994 73.6629 227.972 72.3504 228.641 70.9081L236.598 75.0793C235.878 76.4177 234.822 77.8853 233.431 79.4814C232.092 81.0262 230.29 82.3646 228.023 83.4974C225.757 84.579 222.874 85.1194 219.371 85.1194ZM210.024 60.4816H227.946C227.74 58.2676 226.839 56.4912 225.242 55.1525C223.697 53.8136 221.663 53.1443 219.14 53.1443C216.513 53.1443 214.427 53.8136 212.882 55.1525C211.337 56.4912 210.384 58.2676 210.024 60.4816Z" fill="#252C48"/>
<path d="M244.348 84.038V45.7292H253.927V49.8999H255.317C255.987 48.6126 257.094 47.5056 258.639 46.5788C260.184 45.6005 262.219 45.1113 264.742 45.1113C267.472 45.1113 269.66 45.652 271.308 46.7333C272.957 47.763 274.218 49.1275 275.094 50.8267H276.484C277.36 49.179 278.596 47.8146 280.192 46.7333C281.789 45.652 284.055 45.1113 286.991 45.1113C289.359 45.1113 291.497 45.6262 293.402 46.656C295.359 47.6343 296.904 49.1533 298.037 51.2129C299.222 53.221 299.814 55.7698 299.814 58.8591V84.038H290.08V59.5543C290.08 57.4432 289.54 55.8727 288.458 54.8429C287.377 53.7616 285.857 53.221 283.9 53.221C281.685 53.221 279.961 53.9418 278.724 55.3836C277.54 56.7738 276.948 58.7819 276.948 61.4079V84.038H267.214V59.5543C267.214 57.4432 266.673 55.8727 265.592 54.8429C264.51 53.7616 262.991 53.221 261.034 53.221C258.82 53.221 257.094 53.9418 255.858 55.3836C254.674 56.7738 254.081 58.7819 254.081 61.4079V84.038H244.348Z" fill="#252C48"/>
<path d="M325.592 85.1194C321.781 85.1194 318.407 84.3214 315.472 82.7254C312.588 81.0774 310.322 78.7865 308.673 75.8513C307.077 72.8649 306.279 69.3636 306.279 65.3474V64.4206C306.279 60.4044 307.077 56.9288 308.673 53.9939C310.27 51.0075 312.511 48.7162 315.394 47.12C318.278 45.4723 321.626 44.6484 325.437 44.6484C329.196 44.6484 332.466 45.498 335.248 47.1972C338.029 48.8449 340.192 51.1619 341.737 54.1484C343.282 57.0833 344.054 60.5074 344.054 64.4206V67.7417H316.167C316.27 70.3677 317.248 72.5048 319.102 74.1521C320.956 75.8001 323.222 76.6241 325.901 76.6241C328.63 76.6241 330.638 76.0317 331.926 74.8477C333.213 73.6629 334.192 72.3504 334.862 70.9081L342.818 75.0793C342.097 76.4177 341.041 77.8853 339.651 79.4814C338.312 81.0262 336.509 82.3646 334.243 83.4974C331.977 84.579 329.093 85.1194 325.592 85.1194ZM316.244 60.4816H334.166C333.96 58.2676 333.059 56.4912 331.463 55.1525C329.917 53.8136 327.883 53.1443 325.359 53.1443C322.733 53.1443 320.647 53.8136 319.102 55.1525C317.557 56.4912 316.605 58.2676 316.244 60.4816Z" fill="#252C48"/>
<path d="M350.568 84.0374V29.9727H360.302V50.4399H361.692C362.104 49.6161 362.748 48.7923 363.624 47.9684C364.499 47.1446 365.658 46.4752 367.1 45.9603C368.593 45.3939 370.473 45.1107 372.739 45.1107C375.726 45.1107 378.327 45.8059 380.541 47.196C382.807 48.5348 384.558 50.4142 385.794 52.8342C387.03 55.2027 387.648 57.9833 387.648 61.1756V84.0374H377.915V61.9479C377.915 59.0645 377.194 56.902 375.751 55.4602C374.361 54.0185 372.353 53.2976 369.726 53.2976C366.739 53.2976 364.422 54.3017 362.773 56.3098C361.126 58.2665 360.302 61.0211 360.302 64.574V84.0374H350.568Z" fill="#252C48"/>
<path d="M396.021 84.0367V45.7278H405.754V84.0367H396.021ZM400.887 41.2482C399.137 41.2482 397.643 40.6818 396.407 39.5491C395.223 38.4162 394.63 36.923 394.63 35.0694C394.63 33.2158 395.223 31.7226 396.407 30.5898C397.643 29.457 399.137 28.8906 400.887 28.8906C402.69 28.8906 404.184 29.457 405.368 30.5898C406.553 31.7226 407.145 33.2158 407.145 35.0694C407.145 36.923 406.553 38.4162 405.368 39.5491C404.184 40.6818 402.69 41.2482 400.887 41.2482Z" fill="#252C48"/>
<path d="M422.425 84.0373L410.219 45.7285H420.571L429.455 76.9317H430.846L439.729 45.7285H450.081L437.875 84.0373H422.425Z" fill="#252C48"/>
<path d="M470.89 85.1194C467.079 85.1194 463.706 84.3214 460.77 82.7254C457.886 81.0774 455.62 78.7865 453.972 75.8513C452.375 72.8649 451.577 69.3636 451.577 65.3474V64.4206C451.577 60.4044 452.375 56.9288 453.972 53.9939C455.569 51.0075 457.809 48.7162 460.693 47.12C463.577 45.4723 466.924 44.6484 470.736 44.6484C474.495 44.6484 477.765 45.498 480.546 47.1972C483.327 48.8449 485.49 51.1619 487.035 54.1484C488.581 57.0833 489.353 60.5074 489.353 64.4206V67.7417H461.466C461.568 70.3677 462.547 72.5048 464.401 74.1521C466.255 75.8001 468.521 76.6241 471.199 76.6241C473.928 76.6241 475.937 76.0317 477.224 74.8477C478.512 73.6629 479.49 72.3504 480.16 70.9081L488.117 75.0793C487.396 76.4177 486.34 77.8853 484.95 79.4814C483.61 81.0262 481.808 82.3646 479.542 83.4974C477.276 84.579 474.392 85.1194 470.89 85.1194ZM461.543 60.4816H479.465C479.259 58.2676 478.357 56.4912 476.761 55.1525C475.216 53.8136 473.181 53.1443 470.658 53.1443C468.031 53.1443 465.946 53.8136 464.401 55.1525C462.856 56.4912 461.903 58.2676 461.543 60.4816Z" fill="#252C48"/>
<path d="M400.965 41.4742C404.66 41.4742 407.656 38.4793 407.656 34.785C407.656 31.0906 404.66 28.0957 400.965 28.0957C397.27 28.0957 394.275 31.0906 394.275 34.785C394.275 38.4793 397.27 41.4742 400.965 41.4742Z" fill="#7266FC"/>
</g>
<defs>
<clipPath id="clip0_4263_260747">
<rect width="490" height="113" fill="white"/>
</clipPath>
</defs>
</svg>
