<svg width="370" height="58" viewBox="0 0 370 58" fill="none" xmlns="http://www.w3.org/2000/svg">
<path d="M18.0766 55.9413C15.5529 55.9413 13.4932 55.1685 11.8969 53.6237C10.3518 52.0277 9.57886 49.9165 9.57886 47.2908V25.665H0V17.6325H9.57886V5.73828H19.3129V17.6325H29.8191V25.665H19.3129V45.5916C19.3129 47.1364 20.0338 47.9085 21.4758 47.9085H28.8917V55.9413H18.0766Z" fill="#252C48"/>
<path d="M36.4797 55.9417V1.87695H46.2137V22.3442H47.6037C48.0158 21.5204 48.6595 20.6966 49.5349 19.8727C50.411 19.0489 51.5693 18.3795 53.0113 17.8646C54.5051 17.2982 56.3851 17.015 58.6505 17.015C61.6375 17.015 64.2384 17.7101 66.4533 19.1003C68.7193 20.4391 70.4701 22.3185 71.7064 24.7385C72.9419 27.107 73.5604 29.8875 73.5604 33.0799V55.9417H63.8264V33.8522C63.8264 30.9688 63.1054 28.8063 61.6635 27.3645C60.2728 25.9228 58.2644 25.2019 55.6382 25.2019C52.6511 25.2019 50.3338 26.206 48.6855 28.2141C47.0372 30.1707 46.2137 32.9254 46.2137 36.4783V55.9417H36.4797Z" fill="#252C48"/>
<path d="M99.3915 57.0237C95.5803 57.0237 92.2072 56.2257 89.2714 54.6297C86.3875 52.9817 84.1215 50.6908 82.4739 47.7556C80.8768 44.7692 80.0786 41.2679 80.0786 37.2517V36.3249C80.0786 32.3087 80.8768 28.8331 82.4739 25.8982C84.0702 22.9118 86.3103 20.6205 89.1942 19.0243C92.0787 17.3766 95.4259 16.5527 99.2371 16.5527C102.996 16.5527 106.267 17.4023 109.048 19.1015C111.829 20.7492 113.992 23.0662 115.537 26.0527C117.082 28.9876 117.854 32.4117 117.854 36.3249V39.646H89.9671C90.0703 42.272 91.0482 44.4091 92.9022 46.0564C94.7561 47.7044 97.0222 48.5284 99.7004 48.5284C102.43 48.5284 104.439 47.936 105.726 46.7519C107.014 45.5672 107.992 44.2547 108.661 42.8124L116.619 46.9836C115.898 48.322 114.842 49.7896 113.451 51.3856C112.112 52.9304 110.31 54.2689 108.044 55.4017C105.778 56.4833 102.894 57.0237 99.3915 57.0237ZM90.0443 32.3859H107.967C107.76 30.1719 106.859 28.3955 105.262 27.0567C103.717 25.7179 101.684 25.0486 99.1598 25.0486C96.5329 25.0486 94.4473 25.7179 92.9022 27.0567C91.3577 28.3955 90.4044 30.1719 90.0443 32.3859Z" fill="#252C48"/>
<path d="M124.368 55.9423V17.6335H133.947V21.8042H135.338C136.007 20.5169 137.114 19.4099 138.66 18.4831C140.205 17.5048 142.239 17.0156 144.762 17.0156C147.492 17.0156 149.68 17.5563 151.329 18.6376C152.977 19.6673 154.239 21.0318 155.114 22.731H156.505C157.38 21.0833 158.616 19.7189 160.213 18.6376C161.809 17.5563 164.075 17.0156 167.011 17.0156C169.379 17.0156 171.517 17.5305 173.422 18.5603C175.379 19.5386 176.925 21.0576 178.058 23.1172C179.242 25.1253 179.834 27.6741 179.834 30.7634V55.9423H170.1V31.4586C170.1 29.3475 169.56 27.777 168.479 26.7472C167.397 25.6659 165.878 25.1253 163.921 25.1253C161.706 25.1253 159.981 25.8461 158.745 27.2879C157.56 28.6781 156.968 30.6862 156.968 33.3122V55.9423H147.235V31.4586C147.235 29.3475 146.693 27.777 145.612 26.7472C144.53 25.6659 143.011 25.1253 141.054 25.1253C138.84 25.1253 137.114 25.8461 135.878 27.2879C134.694 28.6781 134.101 30.6862 134.101 33.3122V55.9423H124.368Z" fill="#252C48"/>
<path d="M205.612 57.0237C201.801 57.0237 198.428 56.2257 195.492 54.6297C192.608 52.9817 190.342 50.6908 188.694 47.7556C187.097 44.7692 186.299 41.2679 186.299 37.2517V36.3249C186.299 32.3087 187.097 28.8331 188.694 25.8982C190.29 22.9118 192.531 20.6205 195.415 19.0243C198.298 17.3766 201.646 16.5527 205.458 16.5527C209.217 16.5527 212.487 17.4023 215.268 19.1015C218.049 20.7492 220.212 23.0662 221.757 26.0527C223.302 28.9876 224.075 32.4117 224.075 36.3249V39.646H196.187C196.29 42.272 197.269 44.4091 199.123 46.0564C200.977 47.7044 203.243 48.5284 205.921 48.5284C208.65 48.5284 210.659 47.936 211.946 46.7519C213.234 45.5672 214.212 44.2547 214.882 42.8124L222.838 46.9836C222.118 48.322 221.062 49.7896 219.671 51.3856C218.332 52.9304 216.53 54.2689 214.263 55.4017C211.997 56.4833 209.114 57.0237 205.612 57.0237ZM196.264 32.3859H214.186C213.981 30.1719 213.079 28.3955 211.483 27.0567C209.938 25.7179 207.903 25.0486 205.38 25.0486C202.753 25.0486 200.668 25.7179 199.123 27.0567C197.578 28.3955 196.625 30.1719 196.264 32.3859Z" fill="#252C48"/>
<path d="M230.588 55.9417V1.87695H240.322V22.3442H241.713C242.125 21.5204 242.768 20.6966 243.644 19.8727C244.519 19.0489 245.678 18.3795 247.12 17.8646C248.613 17.2982 250.493 17.015 252.759 17.015C255.746 17.015 258.347 17.7101 260.561 19.1003C262.828 20.4391 264.578 22.3185 265.815 24.7385C267.051 27.107 267.669 29.8875 267.669 33.0799V55.9417H257.935V33.8522C257.935 30.9688 257.214 28.8063 255.772 27.3645C254.382 25.9228 252.373 25.2019 249.746 25.2019C246.759 25.2019 244.442 26.206 242.794 28.2141C241.146 30.1708 240.322 32.9254 240.322 36.4783V55.9417H230.588Z" fill="#252C48"/>
<path d="M276.041 55.941V17.6321H285.775V55.941H276.041ZM280.908 13.1525C279.157 13.1525 277.664 12.5861 276.427 11.4533C275.243 10.3205 274.651 8.82733 274.651 6.9737C274.651 5.12008 275.243 3.62687 276.427 2.49406C277.664 1.36125 279.157 0.794922 280.908 0.794922C282.71 0.794922 284.204 1.36125 285.389 2.49406C286.573 3.62687 287.165 5.12008 287.165 6.9737C287.165 8.82733 286.573 10.3205 285.389 11.4533C284.204 12.5861 282.71 13.1525 280.908 13.1525Z" fill="#252C48"/>
<path d="M302.445 55.9416L290.24 17.6328H300.591L309.475 48.836H310.866L319.749 17.6328H330.101L317.895 55.9416H302.445Z" fill="#252C48"/>
<path d="M350.91 57.0237C347.099 57.0237 343.726 56.2257 340.79 54.6297C337.906 52.9817 335.64 50.6908 333.992 47.7556C332.396 44.7692 331.597 41.2679 331.597 37.2517V36.3249C331.597 32.3087 332.396 28.8331 333.992 25.8982C335.589 22.9118 337.829 20.6205 340.713 19.0243C343.597 17.3766 346.945 16.5527 350.756 16.5527C354.515 16.5527 357.786 17.4023 360.566 19.1015C363.348 20.7492 365.511 23.0662 367.056 26.0527C368.601 28.9876 369.373 32.4117 369.373 36.3249V39.646H341.486C341.588 42.272 342.567 44.4091 344.421 46.0564C346.275 47.7044 348.541 48.5284 351.219 48.5284C353.949 48.5284 355.957 47.936 357.244 46.7519C358.532 45.5672 359.511 44.2547 360.18 42.8124L368.137 46.9836C367.416 48.322 366.36 49.7896 364.97 51.3856C363.631 52.9304 361.829 54.2689 359.563 55.4017C357.296 56.4833 354.412 57.0237 350.91 57.0237ZM341.563 32.3859H359.485C359.279 30.1719 358.378 28.3955 356.781 27.0567C355.236 25.7179 353.202 25.0486 350.679 25.0486C348.052 25.0486 345.966 25.7179 344.421 27.0567C342.876 28.3955 341.923 30.1719 341.563 32.3859Z" fill="#252C48"/>
<path d="M280.986 13.3785C284.681 13.3785 287.676 10.3836 287.676 6.68925C287.676 2.99488 284.681 0 280.986 0C277.29 0 274.295 2.99488 274.295 6.68925C274.295 10.3836 277.29 13.3785 280.986 13.3785Z" fill="#7266FC"/>
</svg>
