<svg width="42" height="41" viewBox="0 0 42 41" fill="none" xmlns="http://www.w3.org/2000/svg">
<line x1="30" y1="4.37117e-08" x2="30" y2="8.00006" stroke="#7266FC" stroke-width="2"/>
<path d="M1 4H41V40.0003H1V4Z" stroke="#7266FC" stroke-width="2" stroke-linejoin="round"/>
<line x1="10.8047" y1="4.0349e-08" x2="10.8047" y2="8.00006" stroke="#7266FC" stroke-width="2"/>
<line x1="1" y1="14.1953" x2="41" y2="14.1953" stroke="#7266FC" stroke-width="2"/>
<path d="M17.0872 29.7182C16.4872 29.7182 15.9538 29.6155 15.4872 29.4099C15.0233 29.2043 14.6566 28.9182 14.3872 28.5516C14.1177 28.1849 13.9747 27.7613 13.958 27.2807H15.5247C15.5386 27.5113 15.6149 27.7127 15.7538 27.8849C15.8927 28.0543 16.0774 28.1863 16.308 28.2807C16.5386 28.3752 16.7969 28.4224 17.083 28.4224C17.3886 28.4224 17.6594 28.3696 17.8955 28.2641C18.1316 28.1557 18.3163 28.0057 18.4497 27.8141C18.583 27.6224 18.6483 27.4016 18.6455 27.1516C18.6483 26.8932 18.5816 26.6655 18.4455 26.4682C18.3094 26.271 18.1122 26.1168 17.8538 26.0057C17.5983 25.8946 17.2899 25.8391 16.9288 25.8391H16.1747V24.6474H16.9288C17.2261 24.6474 17.4858 24.596 17.708 24.4932C17.933 24.3905 18.1094 24.246 18.2372 24.0599C18.3649 23.871 18.4274 23.653 18.4247 23.4057C18.4274 23.1641 18.3733 22.9543 18.2622 22.7766C18.1538 22.596 17.9997 22.4557 17.7997 22.3557C17.6024 22.2557 17.3705 22.2057 17.1038 22.2057C16.8427 22.2057 16.6011 22.253 16.3788 22.3474C16.1566 22.4418 15.9774 22.5766 15.8413 22.7516C15.7052 22.9238 15.633 23.1293 15.6247 23.3682H14.1372C14.1483 22.8905 14.2858 22.471 14.5497 22.1099C14.8163 21.746 15.1719 21.4627 15.6163 21.2599C16.0608 21.0543 16.5594 20.9516 17.1122 20.9516C17.6816 20.9516 18.1761 21.0585 18.5955 21.2724C19.0177 21.4835 19.3441 21.7682 19.5747 22.1266C19.8052 22.4849 19.9205 22.8807 19.9205 23.3141C19.9233 23.7946 19.7816 24.1974 19.4955 24.5224C19.2122 24.8474 18.8399 25.0599 18.3788 25.1599V25.2266C18.9788 25.3099 19.4386 25.5321 19.758 25.8932C20.0802 26.2516 20.2399 26.6974 20.2372 27.2307C20.2372 27.7085 20.1011 28.1363 19.8288 28.5141C19.5594 28.8891 19.1872 29.1835 18.7122 29.3974C18.2399 29.6113 17.6983 29.7182 17.0872 29.7182ZM24.8215 29.7641C24.1354 29.7641 23.5465 29.5905 23.0549 29.2432C22.566 28.8932 22.1896 28.3891 21.9257 27.7307C21.6646 27.0696 21.534 26.2738 21.534 25.3432C21.5368 24.4127 21.6688 23.621 21.9299 22.9682C22.1938 22.3127 22.5702 21.8127 23.059 21.4682C23.5507 21.1238 24.1382 20.9516 24.8215 20.9516C25.5049 20.9516 26.0924 21.1238 26.584 21.4682C27.0757 21.8127 27.4521 22.3127 27.7132 22.9682C27.9771 23.6238 28.109 24.4155 28.109 25.3432C28.109 26.2766 27.9771 27.0738 27.7132 27.7349C27.4521 28.3932 27.0757 28.896 26.584 29.2432C26.0952 29.5905 25.5077 29.7641 24.8215 29.7641ZM24.8215 28.4599C25.3549 28.4599 25.7757 28.1974 26.084 27.6724C26.3952 27.1446 26.5507 26.3682 26.5507 25.3432C26.5507 24.6655 26.4799 24.096 26.3382 23.6349C26.1965 23.1738 25.9965 22.8266 25.7382 22.5932C25.4799 22.3571 25.1743 22.2391 24.8215 22.2391C24.291 22.2391 23.8715 22.503 23.5632 23.0307C23.2549 23.5557 23.0993 24.3266 23.0965 25.3432C23.0938 26.0238 23.1618 26.596 23.3007 27.0599C23.4424 27.5238 23.6424 27.8738 23.9007 28.1099C24.159 28.3432 24.466 28.4599 24.8215 28.4599Z" fill="#7266FC"/>
</svg>
