<svg width="44" height="42" viewBox="0 0 44 42" fill="none" xmlns="http://www.w3.org/2000/svg">
<path d="M29.2308 18.4609C28.7431 17.9392 28.1495 17.5392 27.4941 17.2907C26.8387 17.0422 26.1382 16.9516 25.4448 17.0256C24.7513 17.0996 24.0827 17.3362 23.4885 17.718C22.8943 18.0998 22.3898 18.6169 22.0125 19.2309C21.6354 18.6167 21.131 18.0995 20.5368 17.7176C19.9426 17.3357 19.2739 17.099 18.5804 17.025C17.8869 16.951 17.1864 17.0417 16.5309 17.2903C15.8754 17.5389 15.2819 17.939 14.7943 18.4609C13.9145 19.4035 13.4219 20.6695 13.4219 21.9879C13.4219 23.3063 13.9145 24.5722 14.7943 25.5149L22.0125 33.1999L29.2327 25.5159C30.1119 24.5726 30.6038 23.3064 30.6035 21.988C30.6031 20.6696 30.1105 19.4037 29.2308 18.4609V18.4609Z" stroke="#7266FC" stroke-width="2" stroke-miterlimit="10" stroke-linecap="round" stroke-linejoin="round"/>
<path d="M39.1818 41H4.81818C3.80554 41 2.83437 40.5786 2.11832 39.8284C1.40227 39.0783 1 38.0609 1 37V1H16.2727L21.0455 9H43V37C43 38.0609 42.5977 39.0783 41.8817 39.8284C41.1656 40.5786 40.1945 41 39.1818 41Z" stroke="#7266FC" stroke-width="2" stroke-miterlimit="10" stroke-linecap="round" stroke-linejoin="round"/>
</svg>
