<svg width="40" height="41" viewBox="0 0 40 41" fill="none" xmlns="http://www.w3.org/2000/svg">
<path d="M14.0592 18.9231C13.2303 19.752 13.2303 21.1009 14.0592 21.9298L17.6168 25.4873C18.4478 26.3182 19.7925 26.3183 20.6235 25.4873L25.8871 20.2237C26.7161 19.3947 26.7161 18.0459 25.8871 17.217C25.0564 16.3861 23.7113 16.3859 22.8804 17.217L19.1201 20.9773L17.066 18.9231C16.2351 18.0923 14.8902 18.0921 14.0592 18.9231ZM19.5345 22.2202L23.7092 18.0456C24.082 17.6727 24.6856 17.6727 25.0585 18.0456C25.4306 18.4177 25.4306 19.023 25.0585 19.3951L19.7948 24.6588C19.4228 25.0308 18.8175 25.0308 18.4455 24.6588L14.8879 21.1012C14.5158 20.7291 14.5158 20.1238 14.8879 19.7518C15.2608 19.3789 15.8643 19.3788 16.2373 19.7518L18.7058 22.2202C18.9346 22.4491 19.3056 22.4491 19.5345 22.2202Z" fill="#7266FC"/>
<path d="M38.2912 17.2801H35.7241C35.4835 17.2801 35.2708 17.1136 35.2067 16.8752C34.8535 15.5603 34.3284 14.2939 33.6458 13.1111C33.5227 12.8977 33.5563 12.6291 33.7275 12.4578L35.5421 10.6432C35.8649 10.3205 36.0427 9.89133 36.0427 9.43484C36.0427 8.97844 35.8649 8.5493 35.5422 8.22656L32.7422 5.42664C32.076 4.76047 30.9919 4.76047 30.3255 5.42664L28.5109 7.24133C28.3395 7.41273 28.0709 7.44625 27.8577 7.32312C26.6751 6.64055 25.4087 6.11539 24.0935 5.76211C23.8551 5.69805 23.6886 5.48539 23.6886 5.24477V2.67758C23.6887 1.73531 22.922 0.96875 21.9798 0.96875H18.0202C17.0779 0.96875 16.3113 1.73531 16.3113 2.67758V5.24469C16.3113 5.48523 16.1448 5.69797 15.9063 5.76203C14.5911 6.11531 13.3247 6.64055 12.1423 7.32305C11.9288 7.44633 11.6602 7.41258 11.4891 7.24133L9.67438 5.42672C9.35164 5.10398 8.9225 4.92625 8.46602 4.92625C8.00961 4.92625 7.58047 5.10398 7.25766 5.42672L4.45789 8.22656C3.79172 8.89281 3.7918 9.97688 4.45789 10.6431L6.27258 12.4578C6.44383 12.6291 6.4775 12.8977 6.35437 13.1111C5.6718 14.2938 5.14656 15.5602 4.79336 16.8752C4.72937 17.1137 4.51664 17.2802 4.27609 17.2802H1.70883C0.766562 17.2801 0 18.0466 0 18.9889V22.9486C0 23.8909 0.766562 24.6574 1.70883 24.6574H4.27594C4.51648 24.6574 4.72922 24.8239 4.7932 25.0623C5.14641 26.3772 5.67156 27.6437 6.35422 28.8264C6.47734 29.0398 6.44375 29.3084 6.27242 29.4797L4.45773 31.2944C3.79156 31.9605 3.79156 33.0446 4.45773 33.711L7.25773 36.5109C7.58047 36.8337 8.00961 37.0114 8.46602 37.0114C8.9225 37.0114 9.35164 36.8337 9.67438 36.5109L11.4891 34.6963C11.6603 34.5252 11.9289 34.4915 12.1423 34.6145C13.3247 35.297 14.5911 35.8223 15.9064 36.1755C16.1448 36.2396 16.3113 36.4523 16.3113 36.6929V39.26C16.3113 40.2023 17.0779 40.9688 18.0202 40.9688H21.9798C22.9221 40.9688 23.6887 40.2023 23.6887 39.26V36.6929C23.6887 36.4523 23.8552 36.2396 24.0937 36.1755C25.4087 35.8223 26.6752 35.297 27.8577 34.6145C28.071 34.4914 28.3398 34.5251 28.5109 34.6963L30.3256 36.5109C30.9919 37.1773 32.076 37.1771 32.7423 36.5109L35.5422 33.7111C35.8649 33.3884 36.0427 32.9592 36.0427 32.5027C36.0427 32.0463 35.8649 31.6172 35.5422 31.2945L33.7275 29.4798C33.5563 29.3085 33.5227 29.0399 33.6458 28.8265C34.3284 27.6436 34.8536 26.3772 35.2067 25.0625C35.2708 24.8241 35.4835 24.6575 35.7241 24.6575H38.2912C39.2334 24.6575 40 23.8909 40 22.9487V22.3359C40 22.0123 39.7377 21.75 39.4141 21.75C39.0904 21.75 38.8281 22.0123 38.8281 22.3359V22.9486C38.8281 23.2447 38.5873 23.4855 38.2912 23.4855H35.7241C34.9545 23.4855 34.2763 24.0089 34.075 24.7584C33.7483 25.9746 33.2624 27.1462 32.6308 28.2407C32.243 28.9125 32.3533 29.7627 32.8988 30.3084L34.7136 32.123C34.815 32.2245 34.8709 32.3592 34.8709 32.5027C34.8709 32.6461 34.815 32.7809 34.7135 32.8823L31.9137 35.6822C31.7043 35.8916 31.3638 35.8916 31.1543 35.6822L29.3396 33.8675C28.7941 33.322 27.9437 33.2117 27.272 33.5995C26.1777 34.2309 25.0062 34.7169 23.7897 35.0437C23.0402 35.245 22.5169 35.923 22.5169 36.6927V39.2598C22.5169 39.5559 22.276 39.7968 21.9799 39.7968H18.0202C17.7241 39.7968 17.4833 39.5559 17.4833 39.2598V36.6927C17.4833 35.923 16.9599 35.245 16.2105 35.0437C14.9939 34.7168 13.8223 34.2309 12.7281 33.5994C12.0564 33.2116 11.2061 33.322 10.6605 33.8675L8.84578 35.6821C8.74438 35.7835 8.60961 35.8394 8.46617 35.8394C8.32273 35.8394 8.18789 35.7835 8.08656 35.6821L5.28664 32.8823C5.07727 32.6729 5.07727 32.3322 5.28664 32.1229L7.10133 30.3082C7.6468 29.7627 7.75711 28.9124 7.36945 28.2405C6.73781 27.1462 6.2518 25.9745 5.92516 24.7583C5.72391 24.0089 5.04578 23.4855 4.27617 23.4855H1.70883C1.41273 23.4855 1.17188 23.2446 1.17188 22.9485V18.9888C1.17188 18.6927 1.41273 18.4519 1.70883 18.4519H4.27594C5.04562 18.4519 5.72367 17.9284 5.92492 17.1791C6.25172 15.9627 6.73758 14.7911 7.36922 13.6966C7.75687 13.0248 7.64664 12.1746 7.10109 11.6291L5.28641 9.81437C5.07703 9.605 5.07703 9.26437 5.28641 9.055L8.08625 6.25516C8.18773 6.15375 8.3225 6.09789 8.46594 6.09789C8.60938 6.09789 8.74422 6.15375 8.84562 6.25516L10.6602 8.06977C11.2057 8.61516 12.0559 8.72555 12.728 8.33789C13.822 7.70641 14.9937 7.22047 16.2102 6.89367C16.9597 6.69234 17.483 6.0143 17.483 5.24461V2.67758C17.483 2.38148 17.7239 2.14062 18.02 2.14062H21.9797C22.2758 2.14062 22.5166 2.38148 22.5166 2.67758V5.24469C22.5166 6.01437 23.04 6.69242 23.7894 6.89375C25.0059 7.22055 26.1775 7.70648 27.2717 8.33797C27.9438 8.72578 28.7938 8.61547 29.3395 8.06992L31.154 6.25531C31.3634 6.04594 31.704 6.04594 31.9134 6.25531L34.7133 9.05516C34.8148 9.15656 34.8706 9.29141 34.8706 9.43484C34.8706 9.57828 34.8148 9.71313 34.7133 9.81453L32.8986 11.6292C32.3531 12.1748 32.2428 13.0251 32.6305 13.6969C33.2622 14.7913 33.7481 15.9629 34.0748 17.1792C34.2761 17.9286 34.9543 18.452 35.7238 18.452H38.2909C38.587 18.452 38.8279 18.6928 38.8279 18.9889V19.6016C38.8279 19.9252 39.0902 20.1875 39.4138 20.1875C39.7375 20.1875 39.9998 19.9252 39.9998 19.6016V18.9889C40 18.0466 39.2334 17.2801 38.2912 17.2801Z" fill="#7266FC"/>
<path d="M18.5589 10.0596C13.1095 10.7742 9 15.4635 9 20.9675C9 27.034 13.9355 31.9696 20.0022 31.9696C26.0687 31.9696 31.0043 27.0341 31.0043 20.9675C31.0043 15.4635 26.8949 10.7742 21.4455 10.0596C21.1255 10.018 20.8304 10.2435 20.7884 10.5644C20.7463 10.8853 20.9723 11.1795 21.2932 11.2216C26.1613 11.8599 29.8324 16.0497 29.8324 20.9675C29.8324 26.3878 25.4226 30.7978 20.0022 30.7978C14.5817 30.7978 10.1719 26.3879 10.1719 20.9675C10.1719 16.0497 13.843 11.8599 18.7112 11.2216C19.032 11.1795 19.258 10.8853 19.216 10.5644C19.1739 10.2435 18.8784 10.018 18.5589 10.0596Z" fill="#7266FC"/>
</svg>
