<svg width="37" height="38" viewBox="0 0 37 38" fill="none" xmlns="http://www.w3.org/2000/svg">
<path d="M34.122 27.0346C34.061 26.4857 33.5665 26.0902 33.0176 26.1513L24.0728 27.1464C23.5239 27.2075 23.1284 27.702 23.1895 28.2509C23.2505 28.7998 23.745 29.1952 24.2939 29.1342L32.2449 28.2496L33.1294 36.2005C33.1905 36.7494 33.685 37.1449 34.2339 37.0838C34.7828 37.0227 35.1783 36.5283 35.1172 35.9794L34.122 27.0346ZM3.56652 10.9855C3.62759 11.5344 4.12207 11.9299 4.67097 11.8688L13.6158 10.8736C14.1647 10.8126 14.5601 10.3181 14.4991 9.7692C14.438 9.2203 13.9435 8.82483 13.3946 8.8859L5.44369 9.77048L4.55911 1.81954C4.49804 1.27064 4.00356 0.875175 3.45466 0.936243C2.90577 0.997311 2.5103 1.49179 2.57137 2.04068L3.56652 10.9855ZM32.3472 26.5206C26.4839 33.8518 19.1794 35.3752 13.3783 33.4201C7.53518 31.4509 3.07333 25.9176 2.96116 18.7783L0.961404 18.8097C1.08712 26.8113 6.10874 33.0807 12.7396 35.3154C19.4125 37.5643 27.5724 35.6929 33.9091 27.7697L32.3472 26.5206ZM5.34135 11.4995C11.2046 4.16829 18.5092 2.64486 24.3102 4.59992C30.1534 6.56915 34.6152 12.1025 34.7274 19.2418L36.7272 19.2104C36.6014 11.2088 31.5798 4.93936 24.949 2.70465C18.276 0.455762 10.1161 2.32719 3.77944 10.2503L5.34135 11.4995Z" fill="#7266FC"/>
</svg>
