<svg width="18" height="19" viewBox="0 0 18 19" fill="none" xmlns="http://www.w3.org/2000/svg">
<path d="M17.9996 9.20234C18.0105 8.58339 17.9452 7.96444 17.8073 7.36328H9.18359V10.7035H14.2467C14.0544 11.888 13.3757 12.9409 12.3703 13.6239L12.3521 13.7342L15.0779 15.8044L15.2666 15.8222C16.9979 14.2535 17.9996 11.9449 17.9996 9.20234Z" fill="white"/>
<path d="M9.18311 18.0019C11.6621 18.0019 13.7454 17.2016 15.2661 15.8214L12.3698 13.6195C11.4298 14.2385 10.3155 14.5515 9.18674 14.5195C6.8058 14.5053 4.70069 12.997 3.96028 10.7773L3.85139 10.788L1.01676 12.9365L0.980469 13.0361C2.53389 16.0846 5.70969 18.0055 9.18311 18.0019Z" fill="white"/>
<path d="M3.95614 10.7798C3.75652 10.2071 3.65126 9.60596 3.65126 8.99769C3.65489 8.39297 3.75652 7.79181 3.94888 7.21555L3.94525 7.09816L1.07433 4.91406L0.979962 4.95675C-0.326654 7.50012 -0.326654 10.4953 0.979962 13.0386L3.95614 10.7798Z" fill="white"/>
<path d="M9.18256 3.47945C10.5001 3.4581 11.7704 3.93832 12.7322 4.8205L15.3237 2.34116C13.6613 0.811574 11.4582 -0.0243595 9.17893 0.000540696C5.70551 0.000540696 2.52971 1.91785 0.972656 4.96279L3.94158 7.22159C4.68925 5.00191 6.79798 3.49368 9.18256 3.47945Z" fill="white"/>
</svg>
