<svg width="25" height="24" viewBox="0 0 25 24" fill="none" xmlns="http://www.w3.org/2000/svg">
<g clip-path="url(#clip0_2551_45105)">
<path fill-rule="evenodd" clip-rule="evenodd" d="M18.5 24H6.5C4.90872 23.9999 3.38264 23.3678 2.25744 22.2426C1.13223 21.1174 0.50007 19.5913 0.5 18L0.5 6C0.50007 4.40872 1.13223 2.88264 2.25744 1.75744C3.38264 0.632233 4.90872 6.96138e-05 6.5 0L18.5 0C20.0913 0 21.6174 0.632141 22.7426 1.75736C23.8679 2.88258 24.5 4.4087 24.5 6V18C24.5 19.5913 23.8679 21.1174 22.7426 22.2426C21.6174 23.3679 20.0913 24 18.5 24Z" fill="#DEEBF5"/>
<path fill-rule="evenodd" clip-rule="evenodd" d="M11.75 6.75H18.5C19.3652 6.74995 20.1974 6.41762 20.8246 5.82165C21.4519 5.22569 21.8263 4.41159 21.8706 3.5475C21.9149 2.68341 21.6256 1.83531 21.0626 1.17835C20.4995 0.521389 19.7057 0.105743 18.845 0.01725C18.7302 0.010875 18.6166 0 18.5 0H6.5C4.90872 6.96138e-05 3.38264 0.632233 2.25744 1.75744C1.13223 2.88264 0.50007 4.40872 0.5 6L0.5 18C0.50007 15.0163 1.68536 12.1549 3.79513 10.0451C5.90489 7.93536 8.76634 6.75007 11.75 6.75Z" fill="#F0FAFF"/>
<path fill-rule="evenodd" clip-rule="evenodd" d="M18.5 12C17.3133 12 16.1533 12.3519 15.1666 13.0112C14.1799 13.6705 13.4109 14.6075 12.9567 15.7039C12.5026 16.8003 12.3838 18.0067 12.6153 19.1705C12.8468 20.3344 13.4182 21.4035 14.2574 22.2426C15.0965 23.0818 16.1656 23.6532 17.3295 23.8847C18.4933 24.1162 19.6997 23.9974 20.7961 23.5433C21.8925 23.0892 22.8295 22.3201 23.4888 21.3334C24.1481 20.3467 24.5 19.1867 24.5 18V6C24.5 7.5913 23.8679 9.11742 22.7426 10.2426C21.6174 11.3679 20.0913 12 18.5 12Z" fill="#CDDCEB"/>
<path d="M19.9973 12.1758C19.9973 11.8837 19.9838 11.5905 19.9564 11.2991C19.9385 11.1138 19.8523 10.9419 19.7144 10.8168C19.5766 10.6917 19.3971 10.6225 19.2109 10.6226C17.8703 10.6211 14.8167 10.6211 13.3984 10.6211C13.1995 10.6211 13.0088 10.7001 12.8681 10.8408C12.7275 10.9814 12.6484 11.1722 12.6484 11.3711V12.8175C12.6485 13.0164 12.7275 13.2071 12.8682 13.3477C13.0088 13.4884 13.1995 13.5674 13.3984 13.5675H16.7809C16.6963 14.0382 16.5172 14.4869 16.2544 14.8865C15.9915 15.2861 15.6504 15.6283 15.2517 15.8925V15.8932C15.2517 16.1442 15.3011 16.3927 15.3971 16.6245C15.4932 16.8564 15.6339 17.0671 15.8114 17.2445C15.9888 17.422 16.1995 17.5628 16.4314 17.6588C16.6632 17.7548 16.9117 17.8042 17.1627 17.8042H17.7173C19.1652 16.4718 19.9973 14.5038 19.9973 12.1758Z" fill="#1E78FF"/>
<path d="M12.6499 19.6501C14.5139 19.7025 16.3277 19.0418 17.7214 17.8028L15.2561 15.8911C14.6624 16.2711 13.9899 16.5108 13.2897 16.5921C12.5894 16.6734 11.8799 16.5941 11.2149 16.3603C10.5499 16.1264 9.94689 15.7441 9.45169 15.2424C8.95648 14.7407 8.58207 14.1328 8.35687 13.4648H7.78275C7.26022 13.4649 6.75911 13.6725 6.38963 14.042C6.02014 14.4115 5.81255 14.9126 5.8125 15.4351V15.4358C6.44978 16.7028 7.42659 17.7678 8.63393 18.512C9.84127 19.2561 11.2316 19.6502 12.6499 19.6501Z" fill="#00B450"/>
<path d="M8.35541 13.4665C8.03478 12.5165 8.03478 11.4875 8.35541 10.5374V10.5367C8.35536 10.0141 8.14776 9.51302 7.77828 9.14353C7.4088 8.77405 6.90769 8.56646 6.38516 8.56641H5.81366C5.27862 9.63261 5 10.809 5 12.002C5 13.1949 5.27862 14.3713 5.81366 15.4375L8.35541 13.4665Z" fill="#FFB400"/>
<path d="M12.6499 7.37584C13.5212 7.36211 14.3749 7.62207 15.0907 8.11909C15.2328 8.22254 15.4072 8.27183 15.5824 8.25808C15.7575 8.24433 15.9221 8.16844 16.0462 8.04409C16.3894 7.71859 16.8405 7.26747 17.196 6.91197C17.2714 6.83661 17.3299 6.74604 17.3675 6.6463C17.4052 6.54656 17.4211 6.43994 17.4143 6.33356C17.4075 6.22717 17.3781 6.12346 17.328 6.02934C17.2779 5.93521 17.2084 5.85284 17.124 5.78772C15.8279 4.83588 14.2578 4.33067 12.6499 4.34809C11.2313 4.34791 9.84057 4.74218 8.63315 5.48685C7.42572 6.23151 6.44913 7.29725 5.8125 8.56497L8.35425 10.536C8.65012 9.62633 9.22362 8.83229 9.99413 8.26545C10.7646 7.69862 11.6934 7.38751 12.6499 7.37584Z" fill="#E60014"/>
</g>
<defs>
<clipPath id="clip0_2551_45105">
<rect width="24" height="24" fill="white" transform="translate(0.5)"/>
</clipPath>
</defs>
</svg>
