<svg width="112" height="112" viewBox="0 0 112 112" fill="none" xmlns="http://www.w3.org/2000/svg">
<g clip-path="url(#clip0_2256_328249)">
<path d="M103.168 27.8555H8.39431C4.48314 27.8555 1.3125 31.0261 1.3125 34.9373V96.2424C1.3125 100.154 4.48314 103.324 8.39431 103.324H103.168C107.079 103.324 110.25 100.154 110.25 96.2424V34.9373C110.25 31.0261 107.079 27.8555 103.168 27.8555Z" fill="#AAA3FD"/>
<path d="M103.168 103.324H8.39431C7.46433 103.324 6.54344 103.141 5.68424 102.785C4.82503 102.43 4.04434 101.908 3.38673 101.25C2.72912 100.593 2.20747 99.8121 1.85158 98.9529C1.49568 98.0937 1.3125 97.1728 1.3125 96.2428V37.3438L50.9688 70.9494H60.5938L110.25 37.3438V96.2428C110.25 97.1728 110.067 98.0937 109.711 98.9529C109.355 99.8121 108.833 100.593 108.176 101.25C107.518 101.908 106.737 102.43 105.878 102.785C105.019 103.141 104.098 103.324 103.168 103.324Z" fill="#D5D1FE"/>
<path d="M56 48.418C66.9939 48.418 75.9062 39.5056 75.9062 28.5117C75.9062 17.5178 66.9939 8.60547 56 8.60547C45.0061 8.60547 36.0938 17.5178 36.0938 28.5117C36.0938 39.5056 45.0061 48.418 56 48.418Z" fill="#D5D1FE"/>
<path d="M55.2705 36.5793L66.525 25.325C66.8418 24.9939 67.0163 24.5519 67.0113 24.0937C67.0063 23.6354 66.8221 23.1974 66.4981 22.8732C66.1741 22.5491 65.7361 22.3647 65.2779 22.3595C64.8197 22.3543 64.3776 22.5286 64.0463 22.8453L55.2716 31.62L51.0171 27.3655C50.6883 27.0366 50.2423 26.8518 49.7772 26.8518C49.3121 26.8518 48.8661 27.0365 48.5372 27.3653C48.2083 27.6941 48.0235 28.1402 48.0234 28.6052C48.0234 29.0703 48.2081 29.5164 48.5369 29.8453L55.2705 36.5793Z" fill="#7266FC"/>
<path d="M49.2829 88.2539C48.9287 88.2539 48.5826 88.3588 48.2881 88.5555C47.9936 88.7523 47.7641 89.0319 47.6285 89.359C47.493 89.6862 47.4575 90.0462 47.5266 90.3935C47.5956 90.7409 47.7661 91.0599 48.0165 91.3103C48.2669 91.5608 48.5859 91.7313 48.9333 91.8004C49.2806 91.8695 49.6406 91.8341 49.9678 91.6986C50.295 91.5631 50.5746 91.3336 50.7714 91.0391C50.9681 90.7447 51.0731 90.3985 51.0731 90.0444C51.0732 89.8093 51.0269 89.5764 50.9369 89.3592C50.847 89.142 50.7151 88.9446 50.5489 88.7783C50.3826 88.6121 50.1852 88.4802 49.968 88.3902C49.7508 88.3002 49.518 88.2539 49.2829 88.2539Z" fill="#7266FC"/>
<path d="M56.0012 91.8344C56.9899 91.8344 57.7914 91.0329 57.7914 90.0442C57.7914 89.0554 56.9899 88.2539 56.0012 88.2539C55.0125 88.2539 54.2109 89.0554 54.2109 90.0442C54.2109 91.0329 55.0125 91.8344 56.0012 91.8344Z" fill="#7266FC"/>
<path d="M62.7126 88.2539C62.3584 88.2539 62.0122 88.3588 61.7178 88.5555C61.4233 88.7523 61.1938 89.0319 61.0582 89.359C60.9227 89.6862 60.8872 90.0462 60.9563 90.3935C61.0253 90.7409 61.1958 91.0599 61.4462 91.3103C61.6966 91.5608 62.0156 91.7313 62.363 91.8004C62.7103 91.8695 63.0703 91.8341 63.3975 91.6986C63.7247 91.5631 64.0043 91.3336 64.2011 91.0391C64.3978 90.7447 64.5028 90.3985 64.5028 90.0444C64.5028 89.8093 64.4566 89.5764 64.3666 89.3592C64.2766 89.142 64.1448 88.9446 63.9785 88.7783C63.8123 88.6121 63.6149 88.4802 63.3977 88.3902C63.1805 88.3002 62.9477 88.2539 62.7126 88.2539Z" fill="#7266FC"/>
<path d="M56.0021 49.3635C60.1636 49.3635 64.2317 48.1295 67.6919 45.8174C71.1521 43.5054 73.849 40.2192 75.4415 36.3745C77.0341 32.5297 77.4508 28.299 76.6389 24.2175C75.827 20.1359 73.823 16.3867 70.8804 13.4441C67.9377 10.5014 64.1886 8.49744 60.107 7.68556C56.0254 6.87368 51.7947 7.29037 47.95 8.88292C44.1052 10.4755 40.819 13.1724 38.507 16.6326C36.195 20.0928 34.9609 24.1608 34.9609 28.3224C34.9674 33.9008 37.1863 39.249 41.1309 43.1935C45.0755 47.1381 50.4236 49.357 56.0021 49.3635ZM56.0021 10.788C59.47 10.788 62.8601 11.8164 65.7436 13.7431C68.6271 15.6698 70.8746 18.4083 72.2017 21.6123C73.5288 24.8163 73.8761 28.3418 73.1995 31.7432C72.5229 35.1445 70.8529 38.2688 68.4007 40.721C65.9485 43.1733 62.8242 44.8432 59.4228 45.5198C56.0215 46.1964 52.4959 45.8491 49.292 44.522C46.088 43.1949 43.3495 40.9474 41.4228 38.0639C39.4961 35.1804 38.4677 31.7903 38.4677 28.3224C38.4729 23.6736 40.322 19.2167 43.6092 15.9295C46.8964 12.6423 51.3533 10.7933 56.0021 10.788Z" fill="#7266FC"/>
<path d="M103.878 26.8682H81.6438C81.4119 26.8656 81.1818 26.909 80.9668 26.996C80.7518 27.0829 80.5562 27.2117 80.3913 27.3747C80.2264 27.5378 80.0955 27.732 80.0061 27.946C79.9168 28.16 79.8708 28.3896 79.8708 28.6216C79.8708 28.8535 79.9168 29.0831 80.0061 29.2971C80.0955 29.5111 80.2264 29.7053 80.3913 29.8684C80.5562 30.0315 80.7518 30.1602 80.9668 30.2472C81.1818 30.3341 81.4119 30.3775 81.6438 30.375H103.878C105.102 30.3761 106.276 30.8628 107.141 31.7281C108.006 32.5935 108.493 33.7668 108.494 34.9906V36.5172L63.2964 67.6591C61.1468 69.1284 58.6037 69.9145 56 69.9145C53.3963 69.9145 50.8532 69.1284 48.7036 67.6591L3.50678 36.5164V34.9897C3.50794 33.7659 3.9946 32.5926 4.85995 31.7272C5.72529 30.8619 6.89862 30.3752 8.12241 30.3741H30.3562C30.5881 30.3767 30.8182 30.3332 31.0332 30.2463C31.2482 30.1593 31.4438 30.0306 31.6087 29.8675C31.7736 29.7044 31.9045 29.5103 31.9939 29.2962C32.0832 29.0822 32.1292 28.8526 32.1292 28.6207C32.1292 28.3888 32.0832 28.1592 31.9939 27.9451C31.9045 27.7311 31.7736 27.5369 31.6087 27.3739C31.4438 27.2108 31.2482 27.0821 31.0332 26.9951C30.8182 26.9081 30.5881 26.8647 30.3562 26.8673H8.12153C5.96818 26.8698 3.90375 27.7264 2.38118 29.2491C0.858614 30.7718 0.00225793 32.8364 0 34.9897L0 96.5952C0.00248949 98.7484 0.858948 100.813 2.38149 102.335C3.90403 103.858 5.96833 104.714 8.12153 104.717H103.878C106.032 104.714 108.096 103.858 109.619 102.335C111.141 100.813 111.998 98.7484 112 96.5952V34.9897C111.998 32.8365 111.141 30.7722 109.619 29.2497C108.096 27.7271 106.032 26.8707 103.878 26.8682ZM8.12153 101.21C7.79866 101.21 7.47671 101.175 7.161 101.108L33.8772 70.964C34.0299 70.7917 34.1472 70.5909 34.2223 70.3732C34.2974 70.1555 34.329 69.9252 34.3151 69.6953C34.3012 69.4654 34.2422 69.2406 34.1414 69.0335C34.0406 68.8264 33.9 68.6413 33.7276 68.4885C33.5553 68.3358 33.3545 68.2185 33.1368 68.1434C32.9192 68.0682 32.6888 68.0367 32.4589 68.0506C32.2291 68.0645 32.0042 68.1235 31.7971 68.2243C31.5901 68.3251 31.4049 68.4657 31.2522 68.6381L4.2525 99.1021C3.76583 98.3565 3.50672 97.4855 3.50678 96.5952V40.7748L46.7138 70.5466C49.4496 72.4165 52.6861 73.4169 55.9998 73.4169C59.3135 73.4169 62.55 72.4165 65.2857 70.5466L108.493 40.7748V96.5952C108.493 97.4855 108.234 98.3566 107.747 99.1021L80.7474 68.6376C80.439 68.2895 80.0049 68.0782 79.5406 68.0502C79.0764 68.0221 78.62 68.1797 78.2719 68.4881C77.9238 68.7965 77.7125 69.2306 77.6845 69.6949C77.6564 70.1591 77.814 70.6155 78.1224 70.9636L104.839 101.107C104.523 101.175 104.201 101.209 103.878 101.209L8.12153 101.21Z" fill="#7266FC"/>
</g>
<defs>
<clipPath id="clip0_2256_328249">
<rect width="112" height="112" fill="white"/>
</clipPath>
</defs>
</svg>
