<svg width="60" height="60" viewBox="0 0 60 60" fill="none" xmlns="http://www.w3.org/2000/svg">
<path d="M53.1427 36.4756C53.6918 37.0249 53.6918 37.9152 53.1427 38.4644L45.256 46.3511C44.9923 46.6148 44.6345 46.763 44.2616 46.763C43.8887 46.763 43.531 46.6149 43.2673 46.3511L38.4734 41.5572C37.9243 41.008 37.9243 40.1177 38.4734 39.5684C39.0227 39.0193 39.913 39.0193 40.4622 39.5684L44.2616 43.368L51.154 36.4756C51.7032 35.9266 52.5936 35.9265 53.1427 36.4756ZM60.0016 41.4133C60.0016 49.2397 53.6344 55.6068 45.808 55.6068C44.3717 55.6068 42.9849 55.3917 41.6772 54.993C35.742 57.9119 29.7298 59.3853 23.7699 59.3853C22.9218 59.3853 22.0756 59.3555 21.23 59.2959C14.4207 58.8151 7.54222 56.3827 0.785777 52.0661C0.421793 51.8336 0.18484 51.4466 0.143238 51.0166C-0.428403 45.1136 0.770894 39.3547 3.52046 34.8007C6.1341 30.4715 10.0258 27.3233 14.8608 25.5972C12.9674 23.347 11.6355 20.7087 10.98 17.8766C10.228 14.6268 10.4391 11.2877 11.5742 8.47426C13.5557 3.5634 18.0149 0.699687 23.8087 0.617422L23.8286 0.617188L23.8485 0.617422C29.6423 0.699805 34.1015 3.56352 36.0829 8.47438C37.2181 11.2877 37.429 14.6268 36.677 17.8766C36.0216 20.709 34.6894 23.3475 32.7957 25.5979C35.0751 26.4109 37.146 27.5403 38.9812 28.9727C41.0079 27.8561 43.3348 27.2198 45.8078 27.2198C53.6344 27.2197 60.0016 33.587 60.0016 41.4133ZM18.008 24.8702C19.9711 26.8171 21.9294 27.8043 23.8286 27.8043C25.7277 27.8043 27.6861 26.8171 29.6491 24.8702C33.8612 20.6929 35.4345 14.3834 33.4748 9.52648C31.9173 5.66656 28.4922 3.50187 23.8286 3.42969C19.1649 3.50187 15.7397 5.66656 14.1823 9.52648C12.2227 14.3836 13.7958 20.693 18.008 24.8702ZM38.301 53.4536C34.2889 50.9431 31.6144 46.485 31.6144 41.4133C31.6144 37.1226 33.5284 33.2707 36.5472 30.6658C34.7821 29.4194 32.7814 28.4711 30.5738 27.8353C28.3882 29.6817 26.1243 30.617 23.8286 30.617C21.5329 30.617 19.2691 29.6817 17.0834 27.8354C7.58769 30.5784 2.08492 39.1849 2.88449 50.0647C14.7817 57.4658 26.3972 58.5811 38.301 53.4536ZM57.1891 41.4133C57.1891 35.1378 52.0835 30.0322 45.808 30.0322C39.5325 30.0322 34.4269 35.1377 34.4269 41.4133C34.4269 47.6889 39.5324 52.7943 45.808 52.7943C52.0837 52.7943 57.1891 47.6888 57.1891 41.4133Z" fill="#252C48"/>
</svg>
