<svg width="61" height="60" viewBox="0 0 61 60" fill="none" xmlns="http://www.w3.org/2000/svg">
<g clip-path="url(#clip0_2264_282960)">
<path d="M46.4734 9.94666C46.4995 9.94855 46.5256 9.95045 46.5522 9.95045C46.5973 9.95045 46.6424 9.94666 46.6865 9.94049C47.8679 9.96469 48.8135 10.9282 48.8149 12.1097C48.8149 12.6465 49.2501 13.0818 49.787 13.0818C50.3238 13.0818 50.7591 12.6465 50.7591 12.1097C50.7567 10.1773 49.4115 8.5056 47.5243 8.08981V7.15569C47.5243 6.61885 47.089 6.18359 46.5522 6.18359C46.0154 6.18359 45.5801 6.61885 45.5801 7.15569V8.13395C43.5847 8.66746 42.2936 10.5979 42.5627 12.646C42.8319 14.6942 44.5776 16.2254 46.6433 16.2254C47.8428 16.2254 48.8149 17.198 48.8149 18.3974C48.8149 19.5964 47.8428 20.569 46.6433 20.569C45.4439 20.569 44.4718 19.5964 44.4718 18.3974C44.4718 17.8606 44.0365 17.4253 43.4997 17.4253C42.9629 17.4253 42.5276 17.8606 42.5276 18.3974C42.53 20.26 43.7812 21.8894 45.5801 22.3731V23.4382C45.5801 23.9751 46.0154 24.4103 46.5522 24.4103C47.089 24.4103 47.5243 23.9751 47.5243 23.4382V22.4177C49.5772 21.9682 50.9617 20.044 50.7353 17.9546C50.5094 15.8651 48.7451 14.2817 46.6433 14.2822C45.4771 14.2826 44.5188 13.3618 44.4727 12.1965C44.4272 11.0312 45.3105 10.0378 46.4734 9.94713V9.94666Z" fill="#3B415A"/>
<path d="M46.6996 1.42969C40.7194 1.42969 35.6159 5.33182 33.704 10.5568H9.57682C9.04236 10.5568 8.60853 11.0386 8.60473 11.5726L8.375 45.6737H1.49772C0.96089 45.6737 0.5 46.0624 0.5 46.6002V50.9276C0.512341 55.0016 3.72101 58.3484 7.7907 58.5325V58.5539H37.8041V58.5254C38.0471 58.5344 38.1472 58.5539 38.301 58.5539H38.3219C42.534 58.5473 45.9453 55.1307 45.9453 50.9186V29.0389C46.1884 29.0522 46.4456 29.0593 46.6972 29.0593C54.3073 29.0593 60.5002 22.8547 60.5002 15.244C60.5002 7.6339 54.3102 1.42969 46.6996 1.42969V1.42969ZM8.16045 56.6097H8.15428C5.00969 56.6055 2.45843 54.0627 2.44419 50.9177V47.6179H30.6349V50.9039C30.6363 52.9326 31.4465 54.8772 32.8857 56.3074C32.9877 56.4094 33.1145 56.4882 33.2213 56.6097H8.16045ZM44.0012 50.9177C44.0016 54.057 41.4599 56.6036 38.321 56.6097H38.3025C35.1507 56.604 32.5947 54.0561 32.5791 50.9048V46.6002C32.5871 46.3515 32.4922 46.1108 32.3161 45.9352C32.14 45.7596 31.8994 45.6651 31.6511 45.6737H10.3192L10.5423 12.501H33.1643C32.992 13.391 32.9028 14.2947 32.898 15.2008C32.8961 17.117 33.2958 19.0118 34.0714 20.7638H24.8897C24.3524 20.7638 23.9176 21.1991 23.9176 21.7359C23.9176 22.2727 24.3524 22.708 24.8897 22.708H35.1261C37.1315 25.8616 40.3373 28.0602 44.0012 28.7959V50.9177ZM46.6996 27.1156C40.1512 27.1156 34.8422 21.8071 34.8427 15.2583C34.8427 8.70947 40.1512 3.40093 46.7 3.40093C53.2484 3.40093 58.5569 8.70994 58.5569 15.2583C58.5498 21.8038 53.2455 27.1085 46.6996 27.1156Z" fill="#3B415A"/>
<path d="M18.6504 27.2344C16.9345 27.2344 15.5391 28.5857 15.5391 30.247C15.5391 31.9083 16.9345 33.2596 18.6504 33.2596C20.3663 33.2596 21.7623 31.9083 21.7623 30.247C21.7623 28.5857 20.3663 27.2344 18.6504 27.2344V27.2344ZM18.6504 31.3155C18.0063 31.3155 17.4832 30.8361 17.4832 30.247C17.4832 29.6575 18.0068 29.1786 18.6504 29.1786C19.2941 29.1786 19.8181 29.658 19.8181 30.247C19.8181 30.8361 19.2941 31.3155 18.6504 31.3155Z" fill="#3B415A"/>
<path d="M23.918 30.2416C23.918 30.7785 24.3528 31.2137 24.8901 31.2137H37.85C38.3869 31.2137 38.8221 30.7785 38.8221 30.2416C38.8221 29.7048 38.3869 29.2695 37.85 29.2695H24.8901C24.3528 29.2695 23.918 29.7048 23.918 30.2416Z" fill="#3B415A"/>
<path d="M18.6504 18.7852C16.9345 18.7852 15.5391 20.137 15.5391 21.7983C15.5391 23.4596 16.9345 24.8109 18.6504 24.8109C20.3663 24.8109 21.7623 23.4596 21.7623 21.7983C21.7623 20.137 20.3663 18.7852 18.6504 18.7852ZM18.6504 22.8667C18.0063 22.8667 17.4832 22.3873 17.4832 21.7983C17.4832 21.2092 18.0068 20.7293 18.6504 20.7293C19.2941 20.7293 19.8181 21.2087 19.8181 21.7983C19.8181 22.3873 19.2941 22.8672 18.6504 22.8672V22.8667Z" fill="#3B415A"/>
<path d="M18.6504 35.6836C16.9345 35.6836 15.5391 37.0349 15.5391 38.6962C15.5391 40.3575 16.9345 41.7089 18.6504 41.7089C20.3663 41.7089 21.7623 40.3575 21.7623 38.6962C21.7623 37.0349 20.3663 35.6836 18.6504 35.6836ZM18.6504 39.7647C18.0063 39.7647 17.4832 39.2857 17.4832 38.6962C17.4832 38.1072 18.0068 37.6278 18.6504 37.6278C19.2941 37.6278 19.8181 38.1072 19.8181 38.6962C19.8181 39.2853 19.2941 39.7647 18.6504 39.7647V39.7647Z" fill="#3B415A"/>
<path d="M37.85 37.7773H24.8901C24.3528 37.7773 23.918 38.2126 23.918 38.7494C23.918 39.2863 24.3528 39.7215 24.8901 39.7215H37.85C38.3869 39.7215 38.8221 39.2863 38.8221 38.7494C38.8221 38.2126 38.3869 37.7773 37.85 37.7773Z" fill="#3B415A"/>
</g>
<defs>
<clipPath id="clip0_2264_282960">
<rect width="60" height="60" fill="white" transform="translate(0.5)"/>
</clipPath>
</defs>
</svg>
