<svg width="355" height="285" viewBox="0 0 355 285" fill="none" xmlns="http://www.w3.org/2000/svg">
<rect x="52.25" y="47.8633" width="247.207" height="163.968" rx="10" fill="#F1F0FF"/>
<rect x="180.797" y="86.1211" width="98.8827" height="72.8745" rx="5" fill="white"/>
<g filter="url(#filter0_d_2578_3216)">
<rect x="138.773" y="174.48" width="69.2179" height="76.5182" rx="6" fill="white"/>
</g>
<rect x="144.539" y="196.344" width="57.6816" height="30.9717" rx="2" fill="#F1F0FF"/>
<rect x="144.539" y="232.781" width="57.6816" height="10.9312" rx="2" fill="#7266FC"/>
<rect x="154.43" y="236.422" width="37.905" height="3.64372" rx="1.82186" fill="white" fill-opacity="0.11"/>
<ellipse cx="150.307" cy="186.322" rx="5.76816" ry="6.37652" fill="#7266FC" fill-opacity="0.1"/>
<rect x="158.547" y="181.766" width="26.3687" height="2.73279" rx="1.3664" fill="#7266FC" fill-opacity="0.1"/>
<rect x="158.547" y="187.23" width="16.4804" height="2.73279" rx="1.3664" fill="#7266FC" fill-opacity="0.1"/>
<ellipse cx="196.449" cy="183.591" rx="0.824022" ry="0.910931" fill="#7266FC" fill-opacity="0.1"/>
<ellipse cx="198.918" cy="183.591" rx="0.824022" ry="0.910931" fill="#7266FC" fill-opacity="0.1"/>
<ellipse cx="201.394" cy="183.591" rx="0.824022" ry="0.910931" fill="#7266FC" fill-opacity="0.1"/>
<rect x="264.844" y="144.422" width="56.0335" height="3.64372" rx="1.82186" fill="#7266FC" fill-opacity="0.1"/>
<rect x="264.844" y="144.422" width="9.88827" height="3.64372" rx="1.82186" fill="#7266FC"/>
<g filter="url(#filter1_d_2578_3216)">
<rect x="250.836" y="97.9648" width="74.162" height="81.9838" rx="3" fill="white"/>
</g>
<rect x="256.602" y="103.43" width="3.29609" height="3.64372" rx="1.64804" fill="#7266FC" fill-opacity="0.05"/>
<rect x="261.547" y="103.43" width="3.29609" height="3.64372" rx="1.64804" fill="#7266FC" fill-opacity="0.05"/>
<rect x="266.492" y="103.43" width="3.29609" height="3.64372" rx="1.64804" fill="#7266FC" fill-opacity="0.05"/>
<rect x="256.602" y="114.363" width="5.76816" height="3.64372" rx="1.82186" fill="#7266FC" fill-opacity="0.05"/>
<rect x="256.602" y="124.383" width="5.76816" height="3.64372" rx="1.82186" fill="#7266FC" fill-opacity="0.05"/>
<rect x="256.602" y="134.402" width="5.76816" height="3.64372" rx="1.82186" fill="#7266FC" fill-opacity="0.05"/>
<rect x="256.602" y="144.422" width="5.76816" height="3.64372" rx="1.82186" fill="#7266FC" fill-opacity="0.05"/>
<rect x="256.602" y="154.441" width="5.76816" height="3.64372" rx="1.82186" fill="#7266FC" fill-opacity="0.05"/>
<rect x="264.844" y="114.363" width="56.0335" height="3.64372" rx="1.82186" fill="#7266FC" fill-opacity="0.1"/>
<rect x="264.844" y="124.383" width="56.0335" height="3.64372" rx="1.82186" fill="#7266FC" fill-opacity="0.1"/>
<rect x="264.844" y="134.402" width="56.0335" height="3.64372" rx="1.82186" fill="#7266FC" fill-opacity="0.1"/>
<rect x="264.844" y="154.441" width="56.0335" height="3.64372" rx="1.82186" fill="#7266FC" fill-opacity="0.1"/>
<rect x="256.602" y="165.375" width="50" height="4" rx="2" fill="#7266FC" fill-opacity="0.05"/>
<rect x="256.602" y="171.375" width="39" height="4" rx="2" fill="#7266FC" fill-opacity="0.05"/>
<rect x="264.844" y="114.363" width="28.8408" height="3.64372" rx="1.82186" fill="#7266FC"/>
<rect x="264.844" y="124.383" width="16.4804" height="3.64372" rx="1.82186" fill="#7266FC"/>
<rect x="264.844" y="134.402" width="41.2011" height="3.64372" rx="1.82186" fill="#7266FC"/>
<rect x="264.844" y="154.441" width="21.4246" height="3.64372" rx="1.82186" fill="#7266FC"/>
<path d="M316.757 165.375L317.497 167.893H319.892L317.954 169.449L318.694 171.967L316.757 170.411L314.82 171.967L315.56 169.449L313.622 167.893H316.017L316.757 165.375Z" fill="#7266FC"/>
<path d="M235.883 183.234L236.781 185.998H239.687L237.336 187.707L238.234 190.47L235.883 188.762L233.532 190.47L234.43 187.707L232.079 185.998H234.985L235.883 183.234Z" fill="#7266FC"/>
<rect x="244.883" y="182.234" width="50" height="4" rx="2" fill="#7266FC" fill-opacity="0.1"/>
<rect x="244.883" y="188.234" width="39" height="4" rx="2" fill="#7266FC" fill-opacity="0.1"/>
<path d="M80.9688 183.234L81.8668 185.998H84.773L82.4218 187.707L83.3199 190.47L80.9688 188.762L78.6176 190.47L79.5157 187.707L77.1645 185.998H80.0707L80.9688 183.234Z" fill="#7266FC"/>
<rect x="89.9688" y="182.234" width="50" height="4" rx="2" fill="#7266FC" fill-opacity="0.1"/>
<rect x="89.9688" y="188.234" width="39" height="4" rx="2" fill="#7266FC" fill-opacity="0.1"/>
<ellipse cx="87.6834" cy="129.845" rx="0.824022" ry="0.910931" fill="#C7C2FE"/>
<ellipse cx="90.1521" cy="129.845" rx="0.824022" ry="0.910931" fill="#C7C2FE"/>
<ellipse cx="92.6287" cy="129.845" rx="0.824022" ry="0.910931" fill="#C7C2FE"/>
<rect x="169.258" y="66.9922" width="16.4804" height="3.64372" rx="1.82186" fill="#7266FC" fill-opacity="0.1"/>
<rect x="192.336" y="66.9922" width="16.4804" height="3.64372" rx="1.82186" fill="#7266FC" fill-opacity="0.1"/>
<rect x="215.406" y="66.9922" width="16.4804" height="3.64372" rx="1.82186" fill="#7266FC" fill-opacity="0.1"/>
<rect x="238.477" y="66.9922" width="16.4804" height="3.64372" rx="1.82186" fill="#7266FC" fill-opacity="0.1"/>
<rect x="261.547" y="66.9922" width="16.4804" height="3.64372" rx="1.82186" fill="#7266FC" fill-opacity="0.1"/>
<path d="M233.943 126.201H225.703C227.022 126.201 227.763 125.29 228.175 124.835C228.587 123.924 229.411 122.922 231.059 122.558C232.707 122.193 233.669 124.835 233.943 126.201Z" fill="#7266FC"/>
<ellipse cx="226.941" cy="122.559" rx="0.824022" ry="0.910931" fill="#7266FC"/>
<rect x="77.7969" y="66.9922" width="15.6564" height="4.55466" rx="2.27733" fill="#7266FC" fill-opacity="0.1"/>
<rect x="77.7969" y="94.3203" width="18.1285" height="4.55466" rx="2.27733" fill="#7266FC" fill-opacity="0.1"/>
<rect x="77.7969" y="103.43" width="65.0978" height="4.55466" rx="2.27733" fill="#7266FC" fill-opacity="0.1"/>
<rect x="77.7969" y="115.27" width="51.9134" height="4.55466" rx="2.27733" fill="#7266FC" fill-opacity="0.1"/>
<rect x="93.4531" y="122.559" width="42.8492" height="4.55466" rx="2.27733" fill="#7266FC" fill-opacity="0.1"/>
<rect x="95.9219" y="128.934" width="30.4888" height="4.55466" rx="2.27733" fill="#7266FC" fill-opacity="0.1"/>
<rect x="115.695" y="148.977" width="34.6089" height="11.8421" rx="5.92105" fill="white"/>
<rect x="123.109" y="153.531" width="19.7765" height="2.73279" rx="1.3664" fill="#7266FC" fill-opacity="0.1"/>
<rect x="76.9688" y="148.977" width="34.6089" height="11.8421" rx="5.92105" fill="#7266FC"/>
<rect x="84.3828" y="153.531" width="19.7765" height="2.73279" rx="1.3664" fill="white" fill-opacity="0.1"/>
<g filter="url(#filter2_d_2578_3216)">
<rect x="30" y="120.738" width="70.0419" height="31.8826" rx="6" fill="white"/>
</g>
<path d="M42.052 128.941C42.8823 128.656 43.7511 128.556 44.611 128.644C45.4712 128.732 46.3138 129.007 47.091 129.459C47.8687 129.912 48.5684 130.536 49.1445 131.302C49.7208 132.069 50.1604 132.961 50.4322 133.93C50.704 134.899 50.8011 135.921 50.7164 136.935C50.6317 137.949 50.3674 138.931 49.9425 139.822C49.5178 140.714 48.943 141.494 48.2575 142.124C47.5724 142.753 46.7906 143.22 45.9597 143.504C45.1294 143.789 44.2606 143.889 43.4007 143.801C42.5405 143.713 41.6979 143.439 40.9207 142.986C40.143 142.533 39.4433 141.91 38.8672 141.143C38.2909 140.377 37.8513 139.484 37.5795 138.515C37.3077 137.546 37.2106 136.524 37.2953 135.51C37.38 134.496 37.6443 133.515 38.0692 132.623C38.4939 131.731 39.0687 130.951 39.7542 130.321C40.4393 129.692 41.2211 129.226 42.052 128.941L42.052 128.941Z" stroke="#7266FC" stroke-opacity="0.1" stroke-width="3" stroke-linecap="round" stroke-linejoin="round"/>
<path d="M42.052 128.941C43.5521 128.427 45.1663 128.519 46.6177 129.209C48.0743 129.902 49.2956 131.165 50.0277 132.808C50.7604 134.452 50.9416 136.343 50.5299 138.132C50.1183 139.921 49.15 141.456 47.8358 142.481" stroke="#7165F9" stroke-width="3" stroke-linecap="round" stroke-linejoin="round"/>
<rect x="58.0156" y="129.848" width="16.4804" height="4.55466" rx="2.27733" fill="#7266FC" fill-opacity="0.1"/>
<rect x="58.0156" y="138.043" width="28.8408" height="4.55466" rx="2.27733" fill="#7266FC" fill-opacity="0.1"/>
<g filter="url(#filter3_d_2578_3216)">
<rect x="88.5078" y="26" width="69.2179" height="76.5182" rx="6" fill="white"/>
</g>
<rect x="94.2734" y="47.8594" width="57.6816" height="30.9717" rx="2" fill="#F1F0FF"/>
<rect x="94.2734" y="84.2969" width="57.6816" height="10.9312" rx="2" fill="#7266FC"/>
<rect x="104.164" y="87.9414" width="37.905" height="3.64372" rx="1.82186" fill="white" fill-opacity="0.11"/>
<ellipse cx="100.042" cy="37.8414" rx="5.76816" ry="6.37652" fill="#7266FC" fill-opacity="0.1"/>
<rect x="108.281" y="33.2852" width="26.3687" height="2.73279" rx="1.3664" fill="#7266FC" fill-opacity="0.1"/>
<rect x="108.281" y="38.75" width="16.4804" height="2.73279" rx="1.3664" fill="#7266FC" fill-opacity="0.1"/>
<ellipse cx="146.183" cy="35.1101" rx="0.824022" ry="0.910931" fill="#7266FC" fill-opacity="0.1"/>
<ellipse cx="148.652" cy="35.1101" rx="0.824022" ry="0.910931" fill="#7266FC" fill-opacity="0.1"/>
<ellipse cx="151.129" cy="35.1101" rx="0.824022" ry="0.910931" fill="#7266FC" fill-opacity="0.1"/>
<defs>
<filter id="filter0_d_2578_3216" x="108.773" y="148.48" width="129.219" height="136.52" filterUnits="userSpaceOnUse" color-interpolation-filters="sRGB">
<feFlood flood-opacity="0" result="BackgroundImageFix"/>
<feColorMatrix in="SourceAlpha" type="matrix" values="0 0 0 0 0 0 0 0 0 0 0 0 0 0 0 0 0 0 127 0" result="hardAlpha"/>
<feOffset dy="4"/>
<feGaussianBlur stdDeviation="15"/>
<feComposite in2="hardAlpha" operator="out"/>
<feColorMatrix type="matrix" values="0 0 0 0 0 0 0 0 0 0 0 0 0 0 0 0 0 0 0.1 0"/>
<feBlend mode="normal" in2="BackgroundImageFix" result="effect1_dropShadow_2578_3216"/>
<feBlend mode="normal" in="SourceGraphic" in2="effect1_dropShadow_2578_3216" result="shape"/>
</filter>
<filter id="filter1_d_2578_3216" x="220.836" y="71.9648" width="134.164" height="141.984" filterUnits="userSpaceOnUse" color-interpolation-filters="sRGB">
<feFlood flood-opacity="0" result="BackgroundImageFix"/>
<feColorMatrix in="SourceAlpha" type="matrix" values="0 0 0 0 0 0 0 0 0 0 0 0 0 0 0 0 0 0 127 0" result="hardAlpha"/>
<feOffset dy="4"/>
<feGaussianBlur stdDeviation="15"/>
<feComposite in2="hardAlpha" operator="out"/>
<feColorMatrix type="matrix" values="0 0 0 0 0 0 0 0 0 0 0 0 0 0 0 0 0 0 0.1 0"/>
<feBlend mode="normal" in2="BackgroundImageFix" result="effect1_dropShadow_2578_3216"/>
<feBlend mode="normal" in="SourceGraphic" in2="effect1_dropShadow_2578_3216" result="shape"/>
</filter>
<filter id="filter2_d_2578_3216" x="0" y="94.7383" width="130.039" height="91.8828" filterUnits="userSpaceOnUse" color-interpolation-filters="sRGB">
<feFlood flood-opacity="0" result="BackgroundImageFix"/>
<feColorMatrix in="SourceAlpha" type="matrix" values="0 0 0 0 0 0 0 0 0 0 0 0 0 0 0 0 0 0 127 0" result="hardAlpha"/>
<feOffset dy="4"/>
<feGaussianBlur stdDeviation="15"/>
<feComposite in2="hardAlpha" operator="out"/>
<feColorMatrix type="matrix" values="0 0 0 0 0 0 0 0 0 0 0 0 0 0 0 0 0 0 0.1 0"/>
<feBlend mode="normal" in2="BackgroundImageFix" result="effect1_dropShadow_2578_3216"/>
<feBlend mode="normal" in="SourceGraphic" in2="effect1_dropShadow_2578_3216" result="shape"/>
</filter>
<filter id="filter3_d_2578_3216" x="58.5078" y="0" width="129.219" height="136.52" filterUnits="userSpaceOnUse" color-interpolation-filters="sRGB">
<feFlood flood-opacity="0" result="BackgroundImageFix"/>
<feColorMatrix in="SourceAlpha" type="matrix" values="0 0 0 0 0 0 0 0 0 0 0 0 0 0 0 0 0 0 127 0" result="hardAlpha"/>
<feOffset dy="4"/>
<feGaussianBlur stdDeviation="15"/>
<feComposite in2="hardAlpha" operator="out"/>
<feColorMatrix type="matrix" values="0 0 0 0 0 0 0 0 0 0 0 0 0 0 0 0 0 0 0.1 0"/>
<feBlend mode="normal" in2="BackgroundImageFix" result="effect1_dropShadow_2578_3216"/>
<feBlend mode="normal" in="SourceGraphic" in2="effect1_dropShadow_2578_3216" result="shape"/>
</filter>
</defs>
</svg>
